<svg id="Layer_1" data-name="Layer 1" xmlns="http://www.w3.org/2000/svg" xmlns:xlink="http://www.w3.org/1999/xlink" width="80" height="70" viewBox="0 0 80 70"><defs><style>.cls-1{fill:url(#linear-gradient);}.cls-2{fill:url(#linear-gradient-2);}.cls-3{fill:url(#linear-gradient-3);}.cls-4{fill:url(#linear-gradient-4);}.cls-5{fill:url(#linear-gradient-5);}.cls-6{fill:#edb072;}.cls-7{fill:#fff;}.cls-8{fill:none;}.cls-10,.cls-8{stroke:#000;stroke-miterlimit:10;}.cls-9{fill:#e874a4;}.cls-10{fill:#050505;stroke-width:0.75px;}.cls-11{opacity:0.4;}.cls-12{fill:#d35454;}.cls-13,.cls-14{fill:#f78146;}.cls-14{opacity:0.82;}</style><linearGradient id="linear-gradient" x1="9.99" y1="16.68" x2="33.81" y2="16.68" gradientUnits="userSpaceOnUse"><stop offset="0" stop-color="#fff"/><stop offset="1" stop-color="#666"/></linearGradient><linearGradient id="linear-gradient-2" x1="12.18" y1="28.3" x2="12.4" y2="28.3" xlink:href="#linear-gradient"/><linearGradient id="linear-gradient-3" x1="67.07" y1="31.67" x2="67.28" y2="31.67" xlink:href="#linear-gradient"/><linearGradient id="linear-gradient-4" x1="48.15" y1="19.91" x2="70.75" y2="19.91" xlink:href="#linear-gradient"/><linearGradient id="linear-gradient-5" x1="-171.94" y1="-61.17" x2="-106.05" y2="-61.17" gradientTransform="translate(156.61 139.44) rotate(16.09)" xlink:href="#linear-gradient"/></defs><title>1liv</title><path class="cls-1" d="M28.81,11.09a32.09,32.09,0,0,0-5.89-3.74L17.55,5.07a2.21,2.21,0,0,0-2.47,1.17,20.41,20.41,0,0,0-1.29,2.64l-1.7,4.64C11.28,15,10.57,18.64,10.34,20c-.6,1.06-.58,9.11,1.31,8.32l.54,0a6.41,6.41,0,0,1,.69-1.08l3.46-2,11.12-5.61,6.24-2.38a.25.25,0,0,0,.08-.05C34.16,16.63,31.43,13.36,28.81,11.09Z"/><path class="cls-2" d="M12.4,28.24h-.21C12.16,28.37,12.19,28.41,12.4,28.24Z"/><path class="cls-3" d="M67.28,31.65l-.21,0C67.25,31.8,67.29,31.78,67.28,31.65Z"/><path class="cls-4" d="M70.69,23.78c0-1.34,0-5.09-.48-6.62l-.78-4.84a20.91,20.91,0,0,0-.76-2.81A2.14,2.14,0,0,0,66.46,8L60.74,9.35a33.69,33.69,0,0,0-6.53,2.76c-3,1.81-6.33,4.6-6.05,5.13a.19.19,0,0,0,.07.06l5.68,3.34,9.87,7.29,3,2.53a6.33,6.33,0,0,1,.48,1.19l.52.11C69.51,32.83,71.08,24.92,70.69,23.78Z"/><path class="cls-5" d="M40.66,15.56C21.83,15.79,6.41,28.32,6.2,43.35,6.1,51,10,57.74,16.3,62.61a16.22,16.22,0,0,0,5,2.58C26.79,66.93,33,64.06,39.86,64c7.06-.09,16.25,2.73,21.73-.27C64.16,62.3,63.94,62,66,60.13c5.16-4.82,6.68-10,6.77-16.7C72.93,28.4,59.48,15.33,40.66,15.56Zm-8,32.1c.24.53.49.52,1,.52C33.12,48.18,32.87,48.19,32.63,47.66Z"/><path class="cls-6" d="M40.42,21.55c-13.59.12-24.76,9.16-24.94,20.08-.1,5.57,2.68,10.46,7.23,14a11.9,11.9,0,0,0,3.62,1.88c3.94,1.28,8.39-.78,13.39-.82s11.71,2,15.68-.14c1.86-1,1.7-1.21,3.16-2.58,3.74-3.49,4.84-7.21,4.93-12.11C63.68,31,54,21.44,40.42,21.55Z"/><ellipse cx="31.21" cy="35.44" rx="3.3" ry="3.12" transform="translate(-10.59 57.42) rotate(-76.37)"/><path class="cls-7" d="M28.32,36.39a3.27,3.27,0,0,1,.28-1.59,3.07,3.07,0,0,1,1.52-1.59,3,3,0,0,1,1-.26h.3a.69.69,0,0,0,.21,0h.29c.76.09,1.22.34,1,.51a6.37,6.37,0,0,0-.76.8,11.13,11.13,0,0,1-3.79,2.14c-.22.07.41-1,3.06-3.45"/><ellipse cx="48.71" cy="35.82" rx="3.3" ry="3.12" transform="translate(2.42 74.71) rotate(-76.37)"/><path class="cls-7" d="M45.82,36.76a3.23,3.23,0,0,1,.28-1.58,3,3,0,0,1,2.48-1.86h.3a.69.69,0,0,0,.21,0h.29c.76.1,1.22.35,1,.52a6.37,6.37,0,0,0-.76.8,11,11,0,0,1-3.79,2.13c-.22.08.41-1,3.06-3.44"/><path class="cls-8" d="M34.71,43.31A2.42,2.42,0,0,0,37,45.78a2.6,2.6,0,0,0,2.42-2.65"/><path class="cls-8" d="M39.46,42.84a2.47,2.47,0,0,0,1.85,2.88,2.53,2.53,0,0,0,2.83-2.15"/><path class="cls-9" d="M39.45,43.39S37.85,42,38,41.3c.07-.38,2.5-.28,2.5-.28a.37.37,0,0,1,.36.25.67.67,0,0,1-.12.54,10.18,10.18,0,0,1-1.14,1.48C39.51,43.39,39.49,43.42,39.45,43.39Z"/><line class="cls-10" x1="19.92" y1="42.51" x2="26.35" y2="42.09"/><line class="cls-10" x1="20.23" y1="45.61" x2="26.46" y2="43.72"/><line class="cls-10" x1="59.24" y1="42.44" x2="52.82" y2="42.13"/><line class="cls-10" x1="58.83" y1="45.55" x2="52.66" y2="43.76"/><g class="cls-11"><ellipse class="cls-12" cx="29.56" cy="44.4" rx="3.3" ry="3.12" transform="translate(-20.56 62.66) rotate(-76.37)"/></g><g class="cls-11"><ellipse class="cls-12" cx="48.83" cy="43.45" rx="3.3" ry="3.12" transform="translate(-4.9 80.66) rotate(-76.37)"/></g><path class="cls-13" d="M32.55,22.65l0,3.29L34,28.85l1.55-2.93L35.56,22A29.84,29.84,0,0,0,32.55,22.65Z"/><path class="cls-14" d="M41.32,21.54h-.15c-1,0-1.91.07-2.85.16l0,2.61,1.45,2.91,1.55-2.93Z"/><path class="cls-14" d="M46.56,22.27l-.05,3.29L45,28.49l-1.45-2.9.07-3.94C44.6,21.81,45.59,22,46.56,22.27Z"/></svg>
