<svg id="Layer_1" data-name="Layer 1" xmlns="http://www.w3.org/2000/svg" xmlns:xlink="http://www.w3.org/1999/xlink" width="258.63" height="381.58" viewBox="0 0 258.63 381.58"><defs><style>.cls-1{filter:url(#AI_GaussianBlur_7);}.cls-2{fill:url(#linear-gradient);}.cls-3{fill:url(#linear-gradient-2);}.cls-4{fill:url(#linear-gradient-3);}.cls-5{fill:url(#linear-gradient-4);}.cls-6{fill:url(#linear-gradient-5);}.cls-7{fill:url(#linear-gradient-6);}.cls-8{fill:url(#linear-gradient-7);}.cls-9{fill:#a74c6b;}.cls-10{fill:url(#linear-gradient-8);}.cls-11{fill:url(#linear-gradient-9);}.cls-12{fill:url(#linear-gradient-10);}.cls-13{fill:url(#linear-gradient-11);}.cls-14{fill:url(#linear-gradient-12);}.cls-15{fill:#edb072;}.cls-16{fill:#fff;}.cls-17{fill:#050505;stroke-width:0.75px;}.cls-17,.cls-22{stroke:#000;}.cls-17,.cls-22,.cls-25{stroke-miterlimit:10;}.cls-18{opacity:0.4;}.cls-19{fill:#d35454;}.cls-20,.cls-21{fill:#f78146;}.cls-21{opacity:0.82;}.cls-22{fill:none;}.cls-23{fill:#e874a4;}.cls-24{fill:#84abd3;}.cls-25{stroke:#fff;}.cls-26{fill:url(#linear-gradient-13);}.cls-27{fill:url(#linear-gradient-14);}.cls-28{fill:url(#linear-gradient-15);}.cls-29{fill:url(#linear-gradient-16);}</style><filter id="AI_GaussianBlur_7" name="AI_GaussianBlur_7"><feGaussianBlur stdDeviation="7"/></filter><linearGradient id="linear-gradient" x1="-1437.23" y1="1510.8" x2="-1437.23" y2="1220.46" gradientTransform="translate(-1750.9 1037.56) rotate(180) scale(1.31 0.59)" gradientUnits="userSpaceOnUse"><stop offset="0" stop-color="#f2f2f2" stop-opacity="0"/><stop offset="0.58" stop-color="#f2f2f2" stop-opacity="0.4"/></linearGradient><linearGradient id="linear-gradient-2" x1="-30.6" y1="88.16" x2="-30.6" y2="-299.98" gradientTransform="translate(159.2 175.65) scale(1.29 0.52)" xlink:href="#linear-gradient"/><linearGradient id="linear-gradient-3" x1="111.56" y1="60.55" x2="90.58" y2="-13.61" gradientTransform="matrix(0.98, 0.2, -0.2, 0.98, 81.11, 271.03)" gradientUnits="userSpaceOnUse"><stop offset="0" stop-color="#a4a4a4"/><stop offset="0.66" stop-color="#707070"/><stop offset="1" stop-color="#6b6b6b"/></linearGradient><linearGradient id="linear-gradient-4" x1="52.16" y1="-88.9" x2="141.9" y2="-88.9" gradientTransform="matrix(0.98, 0.2, -0.2, 0.98, 81.11, 271.03)" gradientUnits="userSpaceOnUse"><stop offset="0" stop-color="#929292"/><stop offset="0.41" stop-color="#898989"/><stop offset="0.69" stop-color="#aeaeae"/><stop offset="1" stop-color="#fff"/></linearGradient><linearGradient id="linear-gradient-5" x1="-69.85" y1="-48.89" x2="2.9" y2="-48.89" gradientTransform="matrix(0.98, 0.2, -0.2, 0.98, 81.11, 271.03)" gradientUnits="userSpaceOnUse"><stop offset="0" stop-color="#868686"/><stop offset="0.62" stop-color="#f9f9f9"/><stop offset="1" stop-color="#fff"/></linearGradient><linearGradient id="linear-gradient-6" x1="36.06" y1="81.75" x2="11.13" y2="-0.87" gradientTransform="matrix(0.98, 0.2, -0.2, 0.98, 81.11, 271.03)" gradientUnits="userSpaceOnUse"><stop offset="0" stop-color="#666"/><stop offset="1" stop-color="#fff"/></linearGradient><linearGradient id="linear-gradient-7" x1="-22.84" y1="-37.87" x2="105.26" y2="-37.87" gradientTransform="matrix(0.98, 0.2, -0.2, 0.98, 81.11, 271.03)" gradientUnits="userSpaceOnUse"><stop offset="0" stop-color="#fff"/><stop offset="1" stop-color="#666"/></linearGradient><linearGradient id="linear-gradient-8" x1="45.16" y1="66.71" x2="101.13" y2="66.71" gradientTransform="matrix(1, 0, 0, 1, 0, 0)" xlink:href="#linear-gradient-7"/><linearGradient id="linear-gradient-9" x1="51.49" y1="94.85" x2="52.02" y2="94.85" gradientTransform="matrix(1, 0, 0, 1, 0, 0)" xlink:href="#linear-gradient-7"/><linearGradient id="linear-gradient-10" x1="183.3" y1="92.82" x2="183.82" y2="92.82" gradientTransform="matrix(1, 0, 0, 1, 0, 0)" xlink:href="#linear-gradient-7"/><linearGradient id="linear-gradient-11" x1="135.42" y1="64.67" x2="190.81" y2="64.67" gradientTransform="matrix(1, 0, 0, 1, 0, 0)" xlink:href="#linear-gradient-7"/><linearGradient id="linear-gradient-12" x1="-70.36" y1="-153.13" x2="87.6" y2="-153.13" xlink:href="#linear-gradient-7"/><linearGradient id="linear-gradient-13" x1="-1921.08" y1="1200.54" x2="-1921.08" y2="1125.63" gradientTransform="translate(-1823.63 1490.21) rotate(180)" gradientUnits="userSpaceOnUse"><stop offset="0" stop-color="#f2f2f2" stop-opacity="0"/><stop offset="1" stop-color="#f2f2f2" stop-opacity="0.3"/></linearGradient><linearGradient id="linear-gradient-14" x1="-2176.67" y1="1204.21" x2="-2176.67" y2="1129.3" gradientTransform="translate(-2000.23 1488.78) rotate(180)" xlink:href="#linear-gradient-13"/><linearGradient id="linear-gradient-15" x1="-2143.69" y1="-17.4" x2="-2143.69" y2="-82.11" gradientTransform="translate(-1486.43 154.82) rotate(180) scale(0.79 1.13)" xlink:href="#linear-gradient-13"/><linearGradient id="linear-gradient-16" x1="-1174.74" y1="1909.84" x2="-1174.74" y2="1845.14" gradientTransform="matrix(0, -0.79, 1.13, 0, -2083.84, -700.79)" xlink:href="#linear-gradient-13"/></defs><title>catronaut ked</title><g class="cls-1"><ellipse class="cls-2" cx="128.96" cy="236.68" rx="74.94" ry="85.14" transform="translate(-46.74 32.29) rotate(-12.1)"/></g><g class="cls-1"><ellipse class="cls-3" cx="119.64" cy="120.9" rx="99.01" ry="100.31" transform="translate(-11.1 12.1) rotate(-5.53)"/></g><path class="cls-4" d="M187.36,276.77,195,343c.25,4.89-5.07,9.27-11.89,9.8l-10.34.79c-6.82.52-12.55-3-12.81-7.91l-2.12-65.37c-.1-1.84,1.12-4.32,2.38-5.83,2.1-2.53,5.24-5.1,9.5-5.43l7.78.08c3.66-.28,3.61.67,6,2.31C185.5,272.86,187.25,274.5,187.36,276.77Z"/><path class="cls-5" d="M221.24,231.17,156,202a10.14,10.14,0,0,1-4.28-13.33l3.53-7.56a9.38,9.38,0,0,1,12.7-4.75l62.19,32.51a12.42,12.42,0,0,1,4.48,4.68c1.5,2.76,2.62,6.28,1.16,9.4l-3.28,5.34c-1.25,2.68-2.13,2.15-4.63,2.93C225.68,231.91,223.41,232.27,221.24,231.17Z"/><path class="cls-6" d="M33.15,249.15l61.64-43a10.44,10.44,0,0,0,2.64-13.92L93,185.31a9.09,9.09,0,0,0-13.13-2.55l-54.77,43A34.51,34.51,0,0,0,17.83,234c-1.08,2-1.59,4.77-.19,7l2.81,6.72c1.64,2.58,5,3.37,7.39,3.16S31.26,250.5,33.15,249.15Z"/><path class="cls-7" d="M109.09,283.46l7.63,66.23c.25,4.89-5.07,9.27-11.89,9.8l-10.34.79c-6.82.52-12.55-3-12.81-7.91L79.56,287c-.1-1.84,1.12-4.32,2.38-5.83,2.1-2.53,5.24-5.1,9.5-5.43l7.78.08c3.66-.28,3.61.67,6,2.31C107.23,279.55,109,281.19,109.09,283.46Z"/><path class="cls-8" d="M192.67,235.51c.92,15.37-3,37.68-10.84,49.67-10.93,16.63-28,20.11-48.84,21.89-20.42,1.75-36.85,2.54-49.63-11.58-9.63-10.62-17-33.34-18-49.1-2.19-36.7,23.84-69.14,59.64-72.2S190.48,198.82,192.67,235.51Z"/><path class="cls-9" d="M176.36,179.94,75,188.6A2.75,2.75,0,0,1,72,185.93l-.26-4.25a3,3,0,0,1,2.59-3.15l101.42-8.67a2.77,2.77,0,0,1,2.94,2.68l.25,4.25A2.93,2.93,0,0,1,176.36,179.94Z"/><path class="cls-9" d="M128.12,306.16l-7.39-123.61a1.35,1.35,0,0,1,1.18-1.44l7.45-.63a1.25,1.25,0,0,1,1.33,1.22l7.23,122.35a2.62,2.62,0,0,1-2.31,2.8l-6.16.53A1.25,1.25,0,0,1,128.12,306.16Z"/><path class="cls-10" d="M88.09,50.68a77,77,0,0,0-14.78-7.87L60.07,38.36a5.33,5.33,0,0,0-5.7,3.25c-1,2.63-1.59,3.11-2.61,6.56l-3.2,11.4c-1.68,3.56-2.7,12.5-3,15.71-1.25,2.65.29,21.86,4.65,19.64l1.28-.16A15.85,15.85,0,0,1,53,92l7.91-5.46L86.42,71.12l14.46-6.84a.39.39,0,0,0,.19-.14C101.88,63,94.76,55.63,88.09,50.68Z"/><path class="cls-11" d="M52,94.69l-.51.07C51.43,95.06,51.54,95.13,52,94.69Z"/><path class="cls-12" d="M183.81,92.73l-.51-.07C183.77,93.11,183.88,93,183.81,92.73Z"/><path class="cls-13" d="M190.51,73.3c-.16-3.22-.82-12.17-2.35-15.73l-2.75-11.42c-.89-3.46-1.41-3.94-2.35-6.57a5.1,5.1,0,0,0-5.56-3.29l-13.42,4.36A80,80,0,0,0,149,48.43c-6.87,4.9-14.28,12.18-13.52,13.38a.34.34,0,0,0,.18.13l14.19,6.93,24.94,15.61L182.46,90a15.54,15.54,0,0,1,1.35,2.73l1.27.17C189.35,95.15,191.66,76,190.51,73.3Z"/><path class="cls-14" d="M117.23,59.19C72.27,63.2,37.7,96,40,131.94c1.16,18.34,11.67,33.71,27.68,44.18a38.85,38.85,0,0,0,12.49,5.24c13.38,3.16,27.57-4.83,44.08-6.31,16.86-1.5,39.34,3.55,51.89-4.63,5.89-3.85,5.31-4.47,9.79-9.36C197.35,148.6,200,136,199,119.89,196.73,83.93,162.18,55.17,117.23,59.19Zm-13.29,78.2c.67,1.21,1.27,1.16,2.46,1.05C105.21,138.55,104.61,138.6,103.94,137.39Z"/><path class="cls-15" d="M119.45,73.54C87,76.32,62,100,63.53,126.12c.79,13.33,8.34,24.52,19.88,32.18a27.84,27.84,0,0,0,9,3.84c9.65,2.34,19.91-3.42,31.83-4.44,12.17-1,28.38,2.7,37.46-3.2,4.26-2.77,3.84-3.22,7.09-6.76,8.28-9,10.25-18.13,9.54-29.85C176.77,91.77,151.9,70.77,119.45,73.54Z"/><ellipse cx="98.3" cy="108.44" rx="7.91" ry="7.47" transform="translate(-24.5 188.07) rotate(-80.77)"/><path class="cls-16" d="M91.56,111.23c-.33-.73,0-2.67.38-3.83a7.32,7.32,0,0,1,3.35-4.09,7.16,7.16,0,0,1,2.24-.81c.08,0,.64-.07.71-.07a1.63,1.63,0,0,0,.51,0l.09,0a1.53,1.53,0,0,1,.31,0,2.49,2.49,0,0,1,.29,0c1.83.09,3,.6,2.46,1a15.56,15.56,0,0,0-1.68,2c-1.79,2.19-5.78,4.57-8.66,5.81-.5.21.81-2.44,6.68-8.8"/><path class="cls-16" d="M97.53,103c.2,0,.4,0,.6,0a1.51,1.51,0,0,0,1.5-1.5,1.54,1.54,0,0,0-1.5-1.5c-.2,0-.4,0-.6,0a1.5,1.5,0,0,0,0,3Z"/><ellipse cx="140.2" cy="106.12" rx="7.91" ry="7.47" transform="translate(12.96 227.48) rotate(-80.77)"/><path class="cls-16" d="M133.46,108.91c-.33-.72,0-2.67.37-3.83a7.33,7.33,0,0,1,3.36-4.08,7.22,7.22,0,0,1,2.24-.82l.71-.07a1.88,1.88,0,0,0,.51,0l.09,0a1.68,1.68,0,0,1,.31,0h.29c1.83.09,3,.6,2.46,1.06a15.56,15.56,0,0,0-1.68,2c-1.8,2.19-5.78,4.57-8.66,5.8-.5.22.81-2.43,6.68-8.8"/><line class="cls-17" x1="72.61" y1="127.42" x2="87.92" y2="125.22"/><line class="cls-17" x1="73.93" y1="134.77" x2="88.47" y2="129.1"/><line class="cls-17" x1="166.6" y1="120.02" x2="151.19" y2="120.45"/><line class="cls-17" x1="166.17" y1="127.52" x2="151.1" y2="124.38"/><g class="cls-18"><ellipse class="cls-19" cx="96" cy="130.15" rx="7.91" ry="7.47" transform="translate(-47.87 204.02) rotate(-80.77)"/></g><g class="cls-18"><ellipse class="cls-19" cx="141.89" cy="125.18" rx="7.91" ry="7.47" transform="translate(-4.44 245.15) rotate(-80.77)"/></g><path class="cls-20" d="M99.16,77.63l.47,7.87,4,6.68,3.16-7.3-.56-9.42A70.7,70.7,0,0,0,99.16,77.63Z"/><path class="cls-21" d="M119.92,73.36l-.38,0c-2.3.2-4.55.5-6.77.9l.38,6.25,4,6.69,3.16-7.3Z"/><line class="cls-22" x1="119.46" y1="124.81" x2="119.46" y2="129.06"/><path class="cls-21" d="M132.58,74.14l.47,7.87-3.17,7.29-4-6.68-.56-9.42A68.55,68.55,0,0,1,132.58,74.14Z"/><path class="cls-16" d="M139.42,100.72a6.08,6.08,0,0,1,.61,0,1.51,1.51,0,0,0,1.5-1.5,1.54,1.54,0,0,0-1.5-1.5,6.08,6.08,0,0,0-.61,0,1.5,1.5,0,0,0,0,3Z"/><path class="cls-23" d="M119.47,125.93s-4.09-3-3.89-4.73c.11-.92,5.94-1.14,5.94-1.14a.88.88,0,0,1,.89.53,1.67,1.67,0,0,1-.18,1.31c-.41.8,0,.13-2.47,3.75C119.59,125.91,119.57,126,119.47,125.93Z"/><line class="cls-22" x1="116.24" y1="130.78" x2="119.28" y2="129.03"/><line class="cls-22" x1="122.67" y1="130.78" x2="119.64" y2="129.03"/><rect class="cls-24" x="101.2" y="210.59" width="56.05" height="28.03" rx="12" transform="translate(-18.66 11.82) rotate(-4.89)"/><line class="cls-25" x1="115.38" y1="218.38" x2="145.85" y2="215.78"/><line class="cls-25" x1="115.83" y1="225.94" x2="146.3" y2="223.33"/><ellipse cx="109.74" cy="219.49" rx="1.58" ry="1.49" transform="translate(-124.52 292.6) rotate(-80.77)"/><ellipse cx="110.61" cy="233.98" rx="1.58" ry="1.49" transform="translate(-138.09 305.61) rotate(-80.77)"/><ellipse cx="110.19" cy="227.05" rx="1.58" ry="1.49" transform="translate(-131.6 299.39) rotate(-80.77)"/><line class="cls-25" x1="116.28" y1="233.49" x2="146.76" y2="230.89"/><line class="cls-22" x1="99.08" y1="93.81" x2="87.18" y2="100.6"/><line class="cls-22" x1="138.99" y1="92.11" x2="150.88" y2="98.91"/><g class="cls-1"><rect class="cls-26" x="73.35" y="289.67" width="48.21" height="74.91" rx="12" transform="translate(-21.25 7.1) rotate(-3.76)"/></g><g class="cls-1"><rect class="cls-27" x="152.33" y="284.57" width="48.21" height="74.91" rx="12" transform="translate(-20.75 12.27) rotate(-3.76)"/></g><g class="cls-1"><rect class="cls-28" x="193.74" y="174.51" width="32.96" height="73.23" rx="12" transform="translate(-77.73 287.62) rotate(-60)"/></g><g class="cls-1"><rect class="cls-29" x="4.59" y="212.49" width="73.23" height="32.96" rx="12" transform="translate(-126.09 67.3) rotate(-35.78)"/></g></svg>
