<svg xmlns="http://www.w3.org/2000/svg" xmlns:xlink="http://www.w3.org/1999/xlink" width="950" height="580" viewBox="0 0 950 580"><defs><style>.cls-1{isolation:isolate;}.cls-2{fill:#fff;opacity:0.43;}.cls-10,.cls-3{fill:none;stroke-miterlimit:10;}.cls-3{stroke-width:7px;stroke:url(#linear-gradient);}.cls-4,.cls-7{opacity:0.51;mix-blend-mode:overlay;}.cls-4{fill:url(#linear-gradient-2);}.cls-5{fill:url(#linear-gradient-3);}.cls-6{opacity:0.73;mix-blend-mode:screen;}.cls-7{fill:url(#linear-gradient-4);}.cls-8{fill:url(#linear-gradient-5);}.cls-9{fill:#5b2354;}.cls-10{stroke-width:9px;stroke:url(#linear-gradient-6);}.cls-11{fill:url(#linear-gradient-7);}</style><linearGradient id="linear-gradient" x1="110" y1="302.5" x2="824" y2="302.5" gradientUnits="userSpaceOnUse"><stop offset="0" stop-color="#fff"/><stop offset="0" stop-color="#93278f" stop-opacity="0.6"/></linearGradient><linearGradient id="linear-gradient-2" x1="106.87" y1="472.7" x2="419.99" y2="472.7" gradientTransform="matrix(1.21, 0, 0, 1.17, 125.6, -262.02)" gradientUnits="userSpaceOnUse"><stop offset="0.48" stop-color="#fbb03b"/><stop offset="1" stop-color="#fcee21"/></linearGradient><linearGradient id="linear-gradient-3" x1="117.39" y1="472.7" x2="430.51" y2="472.7" xlink:href="#linear-gradient-2"/><linearGradient id="linear-gradient-4" x1="319.29" y1="297.7" x2="574.62" y2="297.7" gradientTransform="matrix(1, 0, 0, 1, 0, 0)" xlink:href="#linear-gradient-2"/><linearGradient id="linear-gradient-5" x1="327.87" y1="297.7" x2="583.2" y2="297.7" gradientTransform="matrix(1, 0, 0, 1, 0, 0)" xlink:href="#linear-gradient-2"/><linearGradient id="linear-gradient-6" x1="727.5" y1="449.19" x2="780.88" y2="449.19" gradientUnits="userSpaceOnUse"><stop offset="0.01" stop-color="#662d91"/><stop offset="1" stop-color="#ff1d25" stop-opacity="0.6"/></linearGradient><linearGradient id="linear-gradient-7" x1="746.53" y1="448.8" x2="801.5" y2="448.8" gradientUnits="userSpaceOnUse"><stop offset="0.01" stop-color="#662d91"/><stop offset="1" stop-color="#ff1d25"/></linearGradient></defs><title>gameover</title><g class="cls-1"><g id="Layer_1" data-name="Layer 1"><rect class="cls-2" x="36" y="40.09" width="861" height="524.34" rx="12"/><rect class="cls-3" x="113.5" y="98.5" width="707" height="408"/><polygon class="cls-4" points="574.87 452 453.75 400.82 340.63 467.57 354.53 341.2 253.77 259.05 383.48 232.12 434.32 114.6 500.6 224.34 632.77 233.85 544.03 328.6 574.87 452"/><polygon class="cls-5" points="587.6 451.97 466.48 400.8 353.36 467.55 367.25 341.17 266.5 259.02 396.2 232.09 447.05 114.57 513.32 224.31 645.5 233.82 556.75 328.57 587.6 451.97"/><image class="cls-6" width="349" height="330" transform="translate(276.5 132.5)" xlink:href="gameover1.png"/><polygon class="cls-7" points="535.94 410 454.25 374.19 378.13 420.49 387.3 332.53 319.29 275.19 406.64 256.64 440.73 174.9 485.55 251.4 574.62 258.22 514.97 324.05 535.94 410"/><polygon class="cls-8" points="544.51 410 462.82 374.19 386.71 420.49 395.88 332.53 327.87 275.19 415.22 256.64 449.3 174.9 494.12 251.4 583.2 258.22 523.54 324.05 544.51 410"/><path class="cls-9" d="M387.26,304.21l16.48-1.58.3,3.09-16.48,1.57Zm6.79,1.26,3.27-.31,2.08,21.23-3.28.31Z"/><path class="cls-9" d="M405.35,309.16l3.28-.31,1.61,16.5-3.27.32Zm8.39,2.35a4.07,4.07,0,0,0-1.55-.13,3.32,3.32,0,0,0-2.34,1.08,3.22,3.22,0,0,0-.63,2.45l-.64-3.15a6,6,0,0,1,1.76-2.49,4.85,4.85,0,0,1,2.62-1.08,6.26,6.26,0,0,1,2.1.13,4.66,4.66,0,0,1,1.71.81l-1.86,3.07A2.57,2.57,0,0,0,413.74,311.51Z"/><path class="cls-9" d="M417.63,308l3.34-.32,6.53,13.86L426,325.21Zm14.77-1.41-5.12,21.05a4.85,4.85,0,0,1-.83,1.89,3.6,3.6,0,0,1-1.45,1.09,7.51,7.51,0,0,1-2.23.5l-.65.06-.31-3.11.66-.07a2.5,2.5,0,0,0,1.42-.5,3,3,0,0,0,.82-1.35l4.34-19.24Z"/><path class="cls-9" d="M450.92,310.91a3.49,3.49,0,0,0-1.12-2.43,3.28,3.28,0,0,0-2.57-.66,6.43,6.43,0,0,0-1.93.48,6.11,6.11,0,0,0-1.61,1l-2.55-1.4a6.27,6.27,0,0,1,2.33-2,9.05,9.05,0,0,1,3.38-1,8,8,0,0,1,3.62.39,5.14,5.14,0,0,1,2.46,1.88,6.71,6.71,0,0,1,1.09,3.24l1,10.61-3.12.3Zm-7.77,10.27a4.69,4.69,0,0,1-1.9-3.69,4.6,4.6,0,0,1,1-3.81,6.25,6.25,0,0,1,4.1-1.63l4.74-.45.48,2.59-4.95.47a2.79,2.79,0,0,0-1.86.75,2.15,2.15,0,0,0-.47,1.78,2.13,2.13,0,0,0,1,1.78,4.41,4.41,0,0,0,2.62.36,7.59,7.59,0,0,0,2.76-.66,1.33,1.33,0,0,0,.81-1.33l.56,2.29a4,4,0,0,1-1,1.2,4.58,4.58,0,0,1-1.41.78,7.52,7.52,0,0,1-1.86.4A7.16,7.16,0,0,1,443.15,321.18Z"/><path class="cls-9" d="M462.15,319.9a5,5,0,0,1-2.19-2.11,8.88,8.88,0,0,1-1-3.56l-.36-3.64a9.13,9.13,0,0,1,.31-3.71,5,5,0,0,1,1.69-2.48,5.76,5.76,0,0,1,2.95-1.08,5.13,5.13,0,0,1,2.79.51,5.61,5.61,0,0,1,2.19,2v3.4a3.85,3.85,0,0,0-.56-1.76,2.58,2.58,0,0,0-1.23-1,3.73,3.73,0,0,0-1.81-.22,3.21,3.21,0,0,0-2.42,1.24,4.09,4.09,0,0,0-.61,2.9l.35,3.6a4,4,0,0,0,1.16,2.69,3.29,3.29,0,0,0,2.61.74,3.67,3.67,0,0,0,1.74-.58,2.71,2.71,0,0,0,1-1.28,4,4,0,0,0,.21-1.86l.56,3.46a4.74,4.74,0,0,1-1.43,2.21,4.65,4.65,0,0,1-2.71,1.09A5.92,5.92,0,0,1,462.15,319.9Zm2.26,7.07-1.56-.55a5.47,5.47,0,0,1-2.49-1.73l2-2.2a4.53,4.53,0,0,0,1.67,1.2,3.77,3.77,0,0,0,5.47-4l-1.61-16.5,3.27-.31,1.57,16a8.42,8.42,0,0,1-.46,4,5.7,5.7,0,0,1-2.21,2.7,8.29,8.29,0,0,1-3.79,1.22Z"/><path class="cls-9" d="M486.17,307.55a3.45,3.45,0,0,0-1.12-2.43,3.27,3.27,0,0,0-2.57-.66,6.45,6.45,0,0,0-1.92.48,5.77,5.77,0,0,0-1.62,1l-2.55-1.4a6.35,6.35,0,0,1,2.33-2,9.05,9.05,0,0,1,3.38-1,8.09,8.09,0,0,1,3.63.39,5,5,0,0,1,2.45,1.88,6.82,6.82,0,0,1,1.1,3.24l1,10.61-3.12.3Zm-7.77,10.27a4.73,4.73,0,0,1-1.9-3.69,4.64,4.64,0,0,1,1-3.81,6.25,6.25,0,0,1,4.11-1.63l4.74-.45.48,2.59-4.95.47a2.82,2.82,0,0,0-1.87.75,2.56,2.56,0,0,0,.56,3.56,4.43,4.43,0,0,0,2.62.36,7.6,7.6,0,0,0,2.77-.66,1.32,1.32,0,0,0,.8-1.33l.56,2.29a3.75,3.75,0,0,1-1,1.2,4.62,4.62,0,0,1-1.4.78,7.72,7.72,0,0,1-1.86.4A7.18,7.18,0,0,1,478.4,317.82Z"/><path class="cls-9" d="M493,294.12l3.28-.31.32,3.24-3.28.32Zm.65,6.62,3.28-.31,1.61,16.51-3.28.31Z"/><path class="cls-9" d="M501.94,300l3.28-.31,1.61,16.51-3.28.31Zm10.76,5.54a3.84,3.84,0,0,0-1.18-2.62,4.06,4.06,0,0,0-5.07.37,3.15,3.15,0,0,0-.64,2.46l-.65-3.15a5.9,5.9,0,0,1,1.79-2.5,4.91,4.91,0,0,1,2.68-1.07,5.25,5.25,0,0,1,4.37,1.35,7.52,7.52,0,0,1,2,4.83l1,10-3.28.32Z"/><path class="cls-9" d="M519.19,291.63l3.28-.31,1.68,17.19-3.28.31Zm1.94,19.88,3.28-.31.32,3.24-3.28.31Z"/><rect class="cls-10" x="732" y="417.39" width="44.38" height="63.61" rx="11.87"/><polygon class="cls-11" points="801.5 449.24 772.93 421.53 772.93 434.08 746.53 434.08 746.53 462.65 772.93 462.65 772.93 476.07 801.5 449.24"/></g></g></svg>
