<svg id="Layer_1" data-name="Layer 1" xmlns="http://www.w3.org/2000/svg" xmlns:xlink="http://www.w3.org/1999/xlink" width="460" height="340" viewBox="0 0 460 340"><defs><style>.cls-1{fill:url(#linear-gradient);}.cls-15,.cls-16,.cls-17,.cls-18,.cls-2,.cls-7,.cls-8{fill:#f97f23;}.cls-3{fill:#ff2a60;}.cls-4,.cls-6{fill:none;}.cls-4,.cls-5,.cls-6{stroke:#ff2a60;}.cls-15,.cls-16,.cls-17,.cls-18,.cls-4,.cls-5,.cls-6,.cls-7,.cls-8{stroke-linecap:round;stroke-miterlimit:10;}.cls-4,.cls-5{stroke-width:17px;}.cls-5{fill:#f7931e;}.cls-6{stroke-width:20px;}.cls-7{stroke-width:11px;stroke:url(#linear-gradient-2);}.cls-8{stroke-width:13px;stroke:url(#linear-gradient-3);}.cls-9{fill:url(#linear-gradient-4);}.cls-10,.cls-11,.cls-12,.cls-13,.cls-14{fill:#514236;}.cls-10{opacity:0.56;}.cls-12{opacity:0.8;}.cls-13{opacity:0.4;}.cls-14{opacity:0.5;}.cls-15,.cls-17,.cls-18{stroke-width:19px;}.cls-15{stroke:url(#radial-gradient);}.cls-16{stroke-width:18px;stroke:url(#radial-gradient-2);}.cls-17{stroke:url(#radial-gradient-3);}.cls-18{stroke:url(#radial-gradient-4);}</style><linearGradient id="linear-gradient" x1="79.22" y1="210.09" x2="258.22" y2="210.09" gradientTransform="translate(154.67 -59) rotate(35.78)" gradientUnits="userSpaceOnUse"><stop offset="0" stop-color="#c1272d"/><stop offset="0.52" stop-color="#f7931e"/><stop offset="1" stop-color="#f15a24"/></linearGradient><linearGradient id="linear-gradient-2" x1="274.16" y1="165.74" x2="461.32" y2="165.74" gradientTransform="matrix(0.96, 0.03, 0.03, 0.98, -57.83, 41.1)" gradientUnits="userSpaceOnUse"><stop offset="0.1" stop-color="#f47921"/><stop offset="0.5" stop-color="#fcee21"/><stop offset="0.51" stop-color="#fbe621"/><stop offset="0.64" stop-color="#f7aa22"/><stop offset="0.75" stop-color="#f47f23"/><stop offset="0.84" stop-color="#f26424"/><stop offset="0.89" stop-color="#f15a24"/></linearGradient><linearGradient id="linear-gradient-3" x1="243.9" y1="-14.85" x2="433.07" y2="-14.85" gradientTransform="matrix(0.93, 0.05, 0.05, 0.96, -108.61, 81.02)" gradientUnits="userSpaceOnUse"><stop offset="0.1" stop-color="#da5926"/><stop offset="0.5" stop-color="#fcee21"/><stop offset="0.52" stop-color="#fbe621"/><stop offset="0.68" stop-color="#f7aa22"/><stop offset="0.83" stop-color="#f47f23"/><stop offset="0.94" stop-color="#f26424"/><stop offset="1" stop-color="#f15a24"/></linearGradient><linearGradient id="linear-gradient-4" x1="102" y1="214.29" x2="229.5" y2="214.29" gradientUnits="userSpaceOnUse"><stop offset="0" stop-color="#c69c6d"/><stop offset="0.52" stop-color="#8c6239"/><stop offset="1" stop-color="#42210b"/></linearGradient><radialGradient id="radial-gradient" cx="751.76" cy="-271.63" r="86.29" gradientTransform="matrix(0.81, 0.13, 0.14, 0.9, -318.57, 230.06)" gradientUnits="userSpaceOnUse"><stop offset="0" stop-color="#c1272d"/><stop offset="0.18" stop-color="#d1382a"/><stop offset="0.44" stop-color="#e34b27"/><stop offset="0.71" stop-color="#ed5625"/><stop offset="1" stop-color="#f15a24"/></radialGradient><radialGradient id="radial-gradient-2" cx="1341.76" cy="-669.11" r="85.8" gradientTransform="matrix(0.69, 0.23, 0.22, 0.84, -509.23, 374.33)" xlink:href="#radial-gradient"/><radialGradient id="radial-gradient-3" cx="1014.65" cy="-388.85" r="86.29" gradientTransform="matrix(0.76, 0.17, 0.17, 0.88, -402.79, 294.77)" xlink:href="#radial-gradient"/><radialGradient id="radial-gradient-4" cx="1401.38" cy="-643.83" r="86.29" gradientTransform="matrix(0.68, 0.24, 0.22, 0.84, -508.48, 379.49)" xlink:href="#radial-gradient"/></defs><title>komet</title><ellipse class="cls-1" cx="168.72" cy="210.09" rx="91" ry="86.5" transform="translate(-90.99 138.29) rotate(-35.78)"/><rect class="cls-2" x="246.25" y="193.17" width="22" height="11" transform="translate(268.04 -126.19) rotate(54.22)"/><circle class="cls-3" cx="165.88" cy="212.13" r="74.5"/><line class="cls-4" x1="212.89" y1="138.82" x2="298" y2="79"/><line class="cls-4" x1="238" y1="79" x2="188.03" y2="115.44"/><line class="cls-5" x1="284" y1="127" x2="230.61" y2="165.84"/><rect class="cls-3" x="240.96" y="198.56" width="31" height="10" transform="translate(271.67 -123.51) rotate(54.22)"/><line class="cls-4" x1="315" y1="144" x2="249.49" y2="191.32"/><line class="cls-4" x1="295" y1="200" x2="253.96" y2="230.02"/><line class="cls-6" x1="236.03" y1="141.86" x2="219.69" y2="154.25"/><line class="cls-6" x1="262.16" y1="161.86" x2="240.25" y2="177.65"/><line class="cls-6" x1="272.53" y1="195.06" x2="250.62" y2="210.85"/><line class="cls-7" x1="384" y1="153" x2="217.78" y2="273.5"/><line class="cls-8" x1="285" y1="27" x2="127" y2="141"/><rect class="cls-3" x="122.29" y="152.54" width="148.5" height="75.53" transform="translate(236.03 -80.41) rotate(54.22)"/><ellipse class="cls-9" cx="165.75" cy="214.29" rx="63.75" ry="62.71"/><ellipse class="cls-10" cx="158" cy="169.5" rx="22.5" ry="8" transform="translate(-20.48 21.72) rotate(-7.39)"/><ellipse class="cls-11" cx="121" cy="236.5" rx="8" ry="22.5" transform="translate(-95.11 82.01) rotate(-27.34)"/><ellipse class="cls-12" cx="129.03" cy="196.84" rx="6.21" ry="12.96" transform="translate(-47.67 41.37) rotate(-15.41)"/><ellipse class="cls-10" cx="181.46" cy="206.5" rx="8" ry="22.5" transform="translate(-46.66 359.9) rotate(-82.61)"/><ellipse class="cls-11" cx="210.43" cy="233.84" rx="12.96" ry="6.21" transform="matrix(0.27, -0.96, 0.96, 0.27, -70.93, 374.56)"/><ellipse class="cls-13" cx="174.46" cy="260.5" rx="22.5" ry="8" transform="matrix(0.99, -0.13, 0.13, 0.99, -32.05, 24.59)"/><ellipse class="cls-14" cx="166.03" cy="230.84" rx="12.96" ry="6.21" transform="translate(-63.8 63.41) rotate(-18.2)"/><ellipse class="cls-11" cx="203.43" cy="182.84" rx="6.21" ry="12.96" transform="translate(-70.09 184.74) rotate(-42.35)"/><line class="cls-15" x1="320" y1="40" x2="193.78" y2="131.5"/><line class="cls-16" x1="317.5" y1="84.5" x2="223.78" y2="151.5"/><line class="cls-17" x1="364" y1="88" x2="250.78" y2="169.5"/><line class="cls-18" x1="345" y1="144" x2="253.78" y2="208.5"/></svg>
