<svg id="Layer_1" data-name="Layer 1" xmlns="http://www.w3.org/2000/svg" xmlns:xlink="http://www.w3.org/1999/xlink" width="140" height="140" viewBox="0 0 140 140"><defs><style>.cls-1{filter:url(#AI_BevelShadow_1);}.cls-2{fill:url(#linear-gradient);}.cls-3,.cls-4,.cls-5,.cls-6,.cls-7{fill:none;stroke-miterlimit:10;}.cls-3{stroke:url(#linear-gradient-2);}.cls-4{stroke:url(#linear-gradient-3);}.cls-5{stroke:url(#linear-gradient-4);}.cls-6,.cls-7{stroke-width:4px;opacity:0.38;}.cls-6{stroke:url(#linear-gradient-5);}.cls-7{stroke:url(#linear-gradient-6);}</style><filter id="AI_BevelShadow_1" x="-20" y="-20" width="140" height="140" name="AI_BevelShadow_1"><feGaussianBlur result="blur" stdDeviation="4" in="SourceAlpha"/><feOffset result="offsetBlur" dx="4" dy="4" in="blur"/><feSpecularLighting result="specOut" surfaceScale="5" specularExponent="10" in="blur"><fePointLight x="-5000" y="-10000" z="-20000"/></feSpecularLighting><feComposite result="specOut" operator="in" in="specOut" in2="SourceAlpha"/><feComposite result="litPaint" operator="arithmetic" k2="1" k3="1" in="SourceGraphic" in2="specOut"/><feMerge><feMergeNode in="offsetBlur"/><feMergeNode in="litPaint"/></feMerge></filter><linearGradient id="linear-gradient" x1="25.5" y1="70.63" x2="72.45" y2="70.63" gradientUnits="userSpaceOnUse"><stop offset="0" stop-color="#fff"/><stop offset="1"/></linearGradient><linearGradient id="linear-gradient-2" x1="81.47" y1="71.36" x2="90.1" y2="71.36" xlink:href="#linear-gradient"/><linearGradient id="linear-gradient-3" x1="91.98" y1="69.73" x2="104.54" y2="69.73" xlink:href="#linear-gradient"/><linearGradient id="linear-gradient-4" x1="95.29" y1="99.13" x2="109.27" y2="99.13" gradientTransform="translate(6.46 -26.95) rotate(-1.36)" xlink:href="#linear-gradient"/><linearGradient id="linear-gradient-5" x1="104.53" y1="-66.92" x2="190.36" y2="-66.92" gradientTransform="matrix(0.93, 0.16, -0.04, 0.94, -68.72, 107.75)" gradientUnits="userSpaceOnUse"><stop offset="0" stop-color="red"/><stop offset="1" stop-color="#ff1d25"/></linearGradient><linearGradient id="linear-gradient-6" x1="17.5" y1="69.5" x2="123.5" y2="69.5" gradientTransform="matrix(1, 0, 0, 1, 0, 0)" xlink:href="#linear-gradient-5"/></defs><title>mute</title><g class="cls-1"><path class="cls-2" d="M72.45,39,53.21,55.31l-.26,0H32.36a6.88,6.88,0,0,0-6.86,6.85V80.93a6.88,6.88,0,0,0,6.86,6.86H53a6.74,6.74,0,0,0,2-.34l17.48,14.78Z"/><path class="cls-3" d="M81.47,46.8c2,0,8.13,8.47,8.13,22s-6.13,27.08-8.13,27.08"/><path class="cls-4" d="M92,39c2.49,0,12.06,11,12.06,28S94.47,100.43,92,100.43"/><path class="cls-5" d="M103.26,35.59c2.79-.06,13.78,12,14.23,31s-9.82,37.57-12.6,37.64"/></g><line class="cls-6" x1="110.5" y1="35.5" x2="30.5" y2="100.5"/><circle class="cls-7" cx="70.5" cy="69.5" r="51"/></svg>
