<svg id="Layer_1" data-name="Layer 1" xmlns="http://www.w3.org/2000/svg" xmlns:xlink="http://www.w3.org/1999/xlink" width="90" height="80" viewBox="0 0 90 80"><defs><style>.cls-1{fill:url(#linear-gradient);}.cls-2,.cls-3{fill:none;stroke-miterlimit:10;stroke-width:4px;opacity:0.38;}.cls-2{stroke:url(#linear-gradient-2);}.cls-3{stroke:url(#linear-gradient-3);}</style><linearGradient id="linear-gradient" x1="18" y1="39.71" x2="68.5" y2="39.71" gradientUnits="userSpaceOnUse"><stop offset="0.01" stop-color="#662d91"/><stop offset="1" stop-color="#ff1d25"/></linearGradient><linearGradient id="linear-gradient-2" x1="34.28" y1="-7.61" x2="90.81" y2="-7.61" gradientTransform="matrix(0.91, 0.17, -0.02, 0.93, -12.79, 34.74)" gradientUnits="userSpaceOnUse"><stop offset="0" stop-color="red"/><stop offset="1" stop-color="#ff1d25"/></linearGradient><linearGradient id="linear-gradient-3" x1="9.5" y1="39.5" x2="81.5" y2="39.5" gradientTransform="matrix(1, 0, 0, 1, 0, 0)" xlink:href="#linear-gradient-2"/></defs><title>mute effekter</title><path class="cls-1" d="M61.5,12.42v.08h-22v-.08h-7V46.19a10.62,10.62,0,0,0-3.75-.69A10.75,10.75,0,1,0,39.5,56.25c0-.23,0-.45,0-.67h0V26.5h22V46.19a10.62,10.62,0,0,0-3.75-.69A10.75,10.75,0,1,0,68.5,56.25c0-.23,0-.45,0-.67h0V12.42Zm0,10.08h-22v-3h22Z"/><line class="cls-2" x1="69.5" y1="17.5" x2="19.5" y2="58.5"/><circle class="cls-3" cx="45.5" cy="39.5" r="34"/></svg>