<svg id="Layer_1" data-name="Layer 1" xmlns="http://www.w3.org/2000/svg" xmlns:xlink="http://www.w3.org/1999/xlink" width="120" height="130" viewBox="0 0 120 130"><defs><style>.cls-1{fill:url(#linear-gradient);filter:url(#AI_BevelShadow_1);}</style><linearGradient id="linear-gradient" x1="19.4" y1="64.6" x2="96" y2="64.6" gradientUnits="userSpaceOnUse"><stop offset="0" stop-color="#fff"/><stop offset="1"/></linearGradient><filter id="AI_BevelShadow_1" x="-20" y="-20" width="140" height="140" name="AI_BevelShadow_1"><feGaussianBlur result="blur" stdDeviation="4" in="SourceAlpha"/><feOffset result="offsetBlur" dx="4" dy="4" in="blur"/><feSpecularLighting result="specOut" surfaceScale="5" specularExponent="10" in="blur"><fePointLight x="-5000" y="-10000" z="-20000"/></feSpecularLighting><feComposite result="specOut" operator="in" in="specOut" in2="SourceAlpha"/><feComposite result="litPaint" operator="arithmetic" k2="1" k3="1" in="SourceGraphic" in2="specOut"/><feMerge><feMergeNode in="offsetBlur"/><feMergeNode in="litPaint"/></feMerge></filter></defs><title>settings</title><path class="cls-1" d="M87.45,61.32,96,53.7l-3.3-8-11.47.54L76.4,41.35,77,30,69,26.6,61.27,35,54.4,35,46.74,26.5l-8.07,3.28.54,11.41L34.33,46l-11.46-.63-3.37,8L28,61.06l0,6.83L19.4,75.51l3.3,8L34.17,83,39,87.85l-.63,11.41,8,3.35,7.73-8.44,6.86,0,7.66,8.51,8.07-3.29L76.19,88l4.88-4.81,11.46.63,3.37-8-8.48-7.69ZM58.12,87c-11.55,0-20.92-9.8-20.92-21.9s9.37-21.9,20.92-21.9S79,53,79,65.14,69.67,87,58.12,87Z"/></svg>
