<svg id="Layer_1" data-name="Layer 1" xmlns="http://www.w3.org/2000/svg" xmlns:xlink="http://www.w3.org/1999/xlink" width="900" height="600" viewBox="0 0 900 600"><defs><style>.cls-1{fill:#fff;opacity:0.43;}.cls-2,.cls-5,.cls-6,.cls-7,.cls-8{fill:none;stroke-miterlimit:10;}.cls-2{stroke-width:7px;stroke:url(#linear-gradient);}.cls-3{fill:url(#linear-gradient-2);}.cls-4{fill:url(#linear-gradient-3);}.cls-5{stroke:url(#linear-gradient-4);}.cls-6{stroke:url(#linear-gradient-5);}.cls-7{stroke:url(#linear-gradient-6);}.cls-8{stroke-width:9px;stroke:url(#linear-gradient-7);}.cls-9{fill:url(#linear-gradient-8);}</style><linearGradient id="linear-gradient" x1="87.5" y1="313" x2="801.5" y2="313" gradientUnits="userSpaceOnUse"><stop offset="0" stop-color="#fff"/><stop offset="0" stop-color="#93278f" stop-opacity="0.6"/></linearGradient><linearGradient id="linear-gradient-2" x1="396" y1="307" x2="481.5" y2="307" gradientUnits="userSpaceOnUse"><stop offset="0.01" stop-color="#662d91"/><stop offset="1" stop-color="#ff1d25"/></linearGradient><linearGradient id="linear-gradient-3" x1="184.5" y1="306.99" x2="240.07" y2="306.99" gradientUnits="userSpaceOnUse"><stop offset="0" stop-color="#662d91"/><stop offset="1" stop-color="#9e005d"/></linearGradient><linearGradient id="linear-gradient-4" x1="250.75" y1="307.94" x2="260.87" y2="307.94" xlink:href="#linear-gradient-3"/><linearGradient id="linear-gradient-5" x1="263.18" y1="305.79" x2="277.96" y2="305.79" gradientUnits="userSpaceOnUse"><stop offset="0.01" stop-color="#662d91"/><stop offset="1" stop-color="#9e005d"/></linearGradient><linearGradient id="linear-gradient-6" x1="288.69" y1="291.92" x2="305.29" y2="291.92" gradientTransform="translate(-18.15 21.01) rotate(-1.36)" xlink:href="#linear-gradient-5"/><linearGradient id="linear-gradient-7" x1="599.58" y1="307" x2="671.37" y2="307" gradientUnits="userSpaceOnUse"><stop offset="0.01" stop-color="#662d91"/><stop offset="1" stop-color="#ff1d25" stop-opacity="0.6"/></linearGradient><linearGradient id="linear-gradient-8" x1="624.64" y1="306.48" x2="702.42" y2="306.48" xlink:href="#linear-gradient-2"/></defs><title>settings_1</title><rect class="cls-1" x="13.5" y="50.59" width="861" height="524.34" rx="12"/><rect class="cls-1" x="61.44" y="81.67" width="762.65" height="464.45" rx="12"/><rect class="cls-2" x="91" y="109" width="707" height="408"/><path class="cls-3" d="M469.65,265.5v.13H432.4v-.13H420.55v51.35a20,20,0,0,0-6.35-1c-10.05,0-18.2,7.32-18.2,16.34s8.15,16.35,18.2,16.35,18.2-7.32,18.2-16.35c0-.34,0-.67-.06-1h.06V286.92h37.25v29.93a20,20,0,0,0-6.35-1c-10.05,0-18.2,7.32-18.2,16.34s8.15,16.35,18.2,16.35,18.2-7.32,18.2-16.35c0-.34,0-.67-.06-1h.06V265.5Zm0,15.33H432.4v-4.56h37.25Z"/><path class="cls-4" d="M240.07,265.07,217.3,286.66c-.11,0-.21,0-.31,0H192.62c-4.47,0-8.12,4.1-8.12,9.1v24.92c0,5,3.65,9.1,8.12,9.1H217a7.09,7.09,0,0,0,2.39-.45l20.69,19.62Z"/><path class="cls-5" d="M250.75,275.37c2.36,0,9.62,11.23,9.62,29.22s-7.26,35.93-9.62,35.93"/><path class="cls-6" d="M263.18,265.07c2.95,0,14.28,14.63,14.28,37.12s-11.33,44.32-14.28,44.32"/><path class="cls-7" d="M276.54,260.5c3.29-.09,16.3,15.93,16.83,41.06s-11.61,49.85-14.91,49.94"/><rect class="cls-8" x="604.08" y="264.5" width="62.79" height="85" rx="11.87"/><polygon class="cls-9" points="702.42 307.05 662 270.04 662 286.81 624.64 286.81 624.64 324.98 662 324.98 662 342.92 702.42 307.05"/></svg>
