<svg id="Layer_1" data-name="Layer 1" xmlns="http://www.w3.org/2000/svg" xmlns:xlink="http://www.w3.org/1999/xlink" width="260" height="380" viewBox="0 0 260 380"><defs><style>.cls-1{filter:url(#AI_GaussianBlur_7);}.cls-2{fill:url(#linear-gradient);}.cls-3{fill:url(#linear-gradient-2);}.cls-4{fill:url(#linear-gradient-3);}.cls-5{fill:url(#linear-gradient-4);}.cls-6{fill:url(#linear-gradient-5);}.cls-7{fill:url(#linear-gradient-6);}.cls-8{fill:url(#linear-gradient-7);}.cls-9{fill:url(#linear-gradient-8);}.cls-10{fill:url(#linear-gradient-9);}.cls-11{fill:#a74c6b;}.cls-12{fill:url(#linear-gradient-10);}.cls-13{fill:url(#linear-gradient-11);}.cls-14{fill:url(#linear-gradient-12);}.cls-15{fill:url(#linear-gradient-13);}.cls-16{fill:url(#linear-gradient-14);}.cls-17{fill:#edb072;}.cls-18{fill:#fff;}.cls-19{fill:none;}.cls-19,.cls-21{stroke:#000;}.cls-19,.cls-21,.cls-27{stroke-miterlimit:10;}.cls-20{fill:#e874a4;}.cls-21{fill:#050505;stroke-width:0.75px;}.cls-22{opacity:0.4;}.cls-23{fill:#d35454;}.cls-24,.cls-25{fill:#f78146;}.cls-25{opacity:0.82;}.cls-26{fill:#84abd3;}.cls-27{stroke:#fff;}.cls-28{fill:url(#linear-gradient-15);}.cls-29{fill:url(#linear-gradient-16);}.cls-30{fill:url(#linear-gradient-17);}</style><filter id="AI_GaussianBlur_7" name="AI_GaussianBlur_7"><feGaussianBlur stdDeviation="7"/></filter><linearGradient id="linear-gradient" x1="32.28" y1="21.88" x2="32.28" y2="-382.06" gradientTransform="translate(70.66 204.34) scale(1.29 0.52)" gradientUnits="userSpaceOnUse"><stop offset="0" stop-color="#f2f2f2" stop-opacity="0"/><stop offset="0.58" stop-color="#f2f2f2" stop-opacity="0.4"/></linearGradient><linearGradient id="linear-gradient-2" x1="-924.37" y1="1640.9" x2="-924.37" y2="1338.75" gradientTransform="translate(-1079.79 1097.74) rotate(180) scale(1.31 0.59)" xlink:href="#linear-gradient"/><linearGradient id="linear-gradient-3" x1="150.11" y1="418.79" x2="150.11" y2="340.84" gradientTransform="translate(-43.92 -56.36)" gradientUnits="userSpaceOnUse"><stop offset="0" stop-color="#f2f2f2" stop-opacity="0"/><stop offset="1" stop-color="#f2f2f2" stop-opacity="0.3"/></linearGradient><linearGradient id="linear-gradient-4" x1="272.94" y1="489.14" x2="272.94" y2="411.19" gradientTransform="translate(-89.56 -135.39)" xlink:href="#linear-gradient-3"/><linearGradient id="linear-gradient-5" x1="154.12" y1="149.59" x2="133.14" y2="75.42" gradientTransform="translate(55.48 177.68) rotate(7.75)" gradientUnits="userSpaceOnUse"><stop offset="0" stop-color="#a4a4a4"/><stop offset="0.66" stop-color="#707070"/><stop offset="1" stop-color="#6b6b6b"/></linearGradient><linearGradient id="linear-gradient-6" x1="94.71" y1="0.12" x2="184.46" y2="0.12" gradientTransform="translate(55.48 177.68) rotate(7.75)" gradientUnits="userSpaceOnUse"><stop offset="0" stop-color="#929292"/><stop offset="0.41" stop-color="#898989"/><stop offset="0.69" stop-color="#aeaeae"/><stop offset="1" stop-color="#fff"/></linearGradient><linearGradient id="linear-gradient-7" x1="-27.32" y1="40.13" x2="45.44" y2="40.13" gradientTransform="translate(55.48 177.68) rotate(7.75)" gradientUnits="userSpaceOnUse"><stop offset="0" stop-color="#868686"/><stop offset="0.62" stop-color="#f9f9f9"/><stop offset="1" stop-color="#fff"/></linearGradient><linearGradient id="linear-gradient-8" x1="78.61" y1="170.79" x2="53.67" y2="88.16" gradientTransform="translate(55.48 177.68) rotate(7.75)" gradientUnits="userSpaceOnUse"><stop offset="0" stop-color="#666"/><stop offset="1" stop-color="#fff"/></linearGradient><linearGradient id="linear-gradient-9" x1="19.69" y1="51.16" x2="147.82" y2="51.16" gradientTransform="translate(55.48 177.68) rotate(7.75)" gradientUnits="userSpaceOnUse"><stop offset="0" stop-color="#fff"/><stop offset="1" stop-color="#666"/></linearGradient><linearGradient id="linear-gradient-10" x1="43.97" y1="97.86" x2="44.49" y2="97.86" gradientTransform="matrix(1, 0, 0, 1, 0, 0)" xlink:href="#linear-gradient-9"/><linearGradient id="linear-gradient-11" x1="36.51" y1="69.59" x2="91.38" y2="69.59" gradientTransform="matrix(1, 0, 0, 1, 0, 0)" xlink:href="#linear-gradient-9"/><linearGradient id="linear-gradient-12" x1="175.34" y1="86.8" x2="175.88" y2="86.8" gradientTransform="matrix(1, 0, 0, 1, 0, 0)" xlink:href="#linear-gradient-9"/><linearGradient id="linear-gradient-13" x1="125.43" y1="58.8" x2="181.76" y2="58.8" gradientTransform="matrix(1, 0, 0, 1, 0, 0)" xlink:href="#linear-gradient-9"/><linearGradient id="linear-gradient-14" x1="-27.83" y1="-64.12" x2="130.15" y2="-64.12" xlink:href="#linear-gradient-9"/><linearGradient id="linear-gradient-15" x1="-1617.32" y1="135.56" x2="-1617.32" y2="68.22" gradientTransform="translate(-1068.87 320.72) rotate(180) scale(0.79 1.13)" xlink:href="#linear-gradient-3"/><linearGradient id="linear-gradient-16" x1="-1375.65" y1="1163.6" x2="-1375.65" y2="1085.64" gradientTransform="translate(-1270.34 1450.73) rotate(180)" xlink:href="#linear-gradient-3"/><linearGradient id="linear-gradient-17" x1="-1474.32" y1="1134.91" x2="-1474.32" y2="1056.95" gradientTransform="translate(-1291.23 1408.78) rotate(180)" xlink:href="#linear-gradient-3"/></defs><title>catronat normal</title><g class="cls-1"><ellipse class="cls-2" cx="112.39" cy="111.26" rx="103.04" ry="104.39" transform="translate(-10.21 11.36) rotate(-5.53)"/></g><g class="cls-1"><ellipse class="cls-3" cx="129.26" cy="224.03" rx="77.99" ry="88.6" transform="translate(-44.08 32.07) rotate(-12.1)"/></g><g class="cls-1"><rect class="cls-4" x="81.11" y="284.48" width="50.18" height="77.95" rx="12" transform="translate(-30.7 11.75) rotate(-5.53)"/></g><g class="cls-1"><rect class="cls-5" x="158.29" y="275.8" width="50.18" height="77.95" rx="12" transform="translate(-61.9 45.43) rotate(-12.1)"/></g><path class="cls-6" d="M192,270.07l12.15,65.56c.59,4.86-4.42,9.6-11.19,10.59l-10.26,1.5c-6.77,1-12.74-2.15-13.32-7l-6.61-65.08c-.22-1.82.82-4.39,2-6a13.85,13.85,0,0,1,9.1-6.07l7.77-.45c3.63-.53,3.65.42,6.11,1.89C189.9,266.29,191.76,267.82,192,270.07Z"/><path class="cls-7" d="M222.71,222.25l-67.12-24.61a10.12,10.12,0,0,1-5.18-13l3-7.79a9.38,9.38,0,0,1,12.34-5.61L230,199.41a12.31,12.31,0,0,1,4.8,4.36c1.69,2.66,3,6.08,1.8,9.3l-2.91,5.55c-1.06,2.76-2,2.29-4.41,3.24C227.19,222.68,225,223.19,222.71,222.25Z"/><path class="cls-8" d="M36.26,253.1l58.55-47.18a10.43,10.43,0,0,0,1.69-14.06l-4.85-6.57a9.11,9.11,0,0,0-13.29-1.64L26.68,230.33a34.65,34.65,0,0,0-6.74,8.7c-.94,2.06-1.26,4.87.3,7l3.26,6.51c1.81,2.47,5.22,3,7.59,2.65S34.48,254.58,36.26,253.1Z"/><path class="cls-9" d="M114.4,282.12l12.15,65.56c.59,4.86-4.42,9.6-11.19,10.59l-10.26,1.5c-6.77,1-12.73-2.15-13.32-7l-6.61-65.08c-.22-1.83.83-4.39,2-6,1.92-2.67,4.88-5.45,9.11-6.07l7.77-.46c3.62-.53,3.65.43,6.11,1.9C112.27,278.34,114.13,279.86,114.4,282.12Z"/><path class="cls-10" d="M194.5,228.54c2,15.27-.38,37.8-7.41,50.3-9.76,17.35-26.58,22-47.22,25.2-20.27,3.15-36.6,5.06-50.32-8.15-10.34-9.94-19.26-32.1-21.28-47.76-4.71-36.46,19-70.62,54.55-76.13S189.79,192.08,194.5,228.54Z"/><path class="cls-11" d="M174.41,174.21,73.81,189.82a2.75,2.75,0,0,1-3.11-2.47l-.55-4.22a2.94,2.94,0,0,1,2.37-3.32l100.6-15.61a2.76,2.76,0,0,1,3.12,2.47l.54,4.22A2.93,2.93,0,0,1,174.41,174.21Z"/><path class="cls-11" d="M134.94,303.46,119.08,180.63a1.35,1.35,0,0,1,1.08-1.51l7.39-1.14A1.24,1.24,0,0,1,129,179.1l15.61,121.59a2.61,2.61,0,0,1-2.1,2.95l-6.11.95A1.26,1.26,0,0,1,134.94,303.46Z"/><path class="cls-12" d="M44.49,97.69l-.5.1C43.93,98.1,44,98.16,44.49,97.69Z"/><path class="cls-13" d="M77.46,51.3a77,77,0,0,0-15.29-6.84L48.66,40.93a5.3,5.3,0,0,0-5.46,3.64A51,51,0,0,0,41,51.29L38.63,62.88c-1.43,3.67-1.83,12.66-1.9,15.88-1.06,2.73,1.79,21.8,6,19.28L44,97.79A15.62,15.62,0,0,1,45.25,95l7.51-6L77.2,71.8l14-7.81a.39.39,0,0,0,.17-.15C92.06,62.59,84.46,55.78,77.46,51.3Z"/><path class="cls-14" d="M175.85,86.69l-.51,0C175.84,87.07,175.94,87,175.85,86.69Z"/><path class="cls-15" d="M181.21,66.83c-.38-3.19-1.65-12.08-3.43-15.53l-3.53-11.21a49.13,49.13,0,0,0-2.79-6.39,5.12,5.12,0,0,0-5.78-2.9L152.6,36.08a80.38,80.38,0,0,0-14.53,8.79c-6.52,5.37-13.41,13.13-12.56,14.28a.32.32,0,0,0,.18.12l14.63,5.94,26,13.87,8,5a15.2,15.2,0,0,1,1.53,2.64l1.28.08C181.55,88.72,182.53,69.4,181.21,66.83Z"/><path class="cls-16" d="M107.12,57.79C62.54,64.88,30.29,100,35,135.68c2.42,18.23,14,32.84,30.66,42.19a39.11,39.11,0,0,0,12.82,4.36c13.56,2.23,27.18-6.71,43.55-9.31,16.72-2.66,39.5.83,51.45-8.19,5.62-4.24,5-4.82,9.14-10,10.56-13.22,12.36-25.94,10.24-42C188.15,77,151.7,50.69,107.12,57.79Zm-7.89,78.94c.75,1.16,1.34,1.06,2.53.88C100.57,137.79,100,137.89,99.23,136.73Z"/><path class="cls-17" d="M108.62,72.08c-32.19,5-55.53,30.34-52.18,56.3,1.71,13.24,10,23.89,22,30.74a28.13,28.13,0,0,0,9.25,3.21c9.79,1.67,19.63-4.77,31.45-6.61,12.08-1.87,28.51.75,37.16-5.77,4.06-3,3.61-3.48,6.61-7.23,7.65-9.56,9-18.79,7.48-30.44C167.08,86.32,140.81,67.08,108.62,72.08Z"/><ellipse cx="91.62" cy="108.23" rx="7.91" ry="7.47" transform="translate(-24.61 189.46) rotate(-84.7)"/><path class="cls-18" d="M85.08,111.47c-.37-.7-.16-2.66.11-3.84a7.37,7.37,0,0,1,3.07-4.31,7.58,7.58,0,0,1,2.18-1l.71-.12a1.33,1.33,0,0,0,.5-.06l.09,0,.3-.06.29,0c1.84,0,3,.4,2.53.88a16.23,16.23,0,0,0-1.53,2.16c-1.65,2.3-5.46,5-8.25,6.38-.48.25.65-2.48,6.07-9.24"/><path class="cls-18" d="M90.37,102.89c.2,0,.4,0,.6,0a1.5,1.5,0,0,0,1.5-1.5,1.52,1.52,0,0,0-1.5-1.5c-.2,0-.4,0-.6,0a1.53,1.53,0,0,0-1.5,1.5,1.51,1.51,0,0,0,1.5,1.5Z"/><ellipse cx="133.26" cy="103.04" rx="7.91" ry="7.47" transform="translate(18.36 226.22) rotate(-84.7)"/><path class="cls-18" d="M126.73,106.29c-.38-.7-.16-2.67.11-3.85a7.37,7.37,0,0,1,3.07-4.31,7,7,0,0,1,2.18-1c.07,0,.62-.12.7-.12a1.64,1.64,0,0,0,.51-.06l.09,0a1.21,1.21,0,0,1,.3-.07l.29,0c1.84,0,3,.4,2.53.89A16.2,16.2,0,0,0,135,99.9c-1.64,2.31-5.45,5-8.24,6.39-.49.25.64-2.49,6.06-9.24"/><path class="cls-19" d="M102.65,125.68a5.81,5.81,0,0,0,6.38,5.06c3.11-.49,5.27-3.68,4.82-7.13"/><path class="cls-19" d="M113.76,122.91c0,3.34,2.36,6.08,5.39,6.2s5.81-2.61,6-6.1"/><path class="cls-20" d="M113.93,124.23s-4.28-2.68-4.2-4.45c0-.93,5.85-1.55,5.85-1.55a.87.87,0,0,1,.92.47,1.64,1.64,0,0,1-.09,1.32c-.35.83,0,.12-2.2,3.91C114.06,124.19,114,124.28,113.93,124.23Z"/><line class="cls-21" x1="160.56" y1="115.09" x2="145.21" y2="116.58"/><line class="cls-21" x1="160.64" y1="122.61" x2="145.39" y2="120.51"/><g class="cls-22"><ellipse class="cls-23" cx="90.81" cy="127.52" rx="7.91" ry="7.47" transform="translate(-44.55 206.17) rotate(-84.7)"/></g><g class="cls-22"><ellipse class="cls-23" cx="136.2" cy="121.1" rx="7.91" ry="7.47" transform="translate(3.05 245.53) rotate(-84.7)"/></g><path class="cls-24" d="M90.36,77.43l1,7.82,4.45,6.39,2.65-7.5-1.2-9.36A69.54,69.54,0,0,0,90.36,77.43Z"/><path class="cls-25" d="M110.78,71.75l-.38,0c-2.28.35-4.51.81-6.69,1.36l.8,6.22L109,85.77l2.66-7.5Z"/><path class="cls-25" d="M123.46,71.65l1,7.82L121.81,87l-4.45-6.4-1.21-9.36A70.16,70.16,0,0,1,123.46,71.65Z"/><path class="cls-18" d="M132,97.7c.21,0,.41,0,.61,0a1.5,1.5,0,0,0,0-3c-.2,0-.4,0-.61,0a1.54,1.54,0,0,0-1.5,1.5,1.52,1.52,0,0,0,1.5,1.5Z"/><rect class="cls-26" x="102.53" y="209.69" width="56.06" height="28.03" rx="12" transform="translate(-32.76 22.67) rotate(-8.82)"/><line class="cls-27" x1="116.21" y1="216.75" x2="146.43" y2="212.06"/><line class="cls-27" x1="117.17" y1="224.26" x2="147.4" y2="219.57"/><ellipse cx="110.66" cy="218.25" rx="1.58" ry="1.49" transform="translate(-116.88 308.28) rotate(-84.7)"/><ellipse cx="112.51" cy="232.65" rx="1.58" ry="1.49" transform="translate(-129.53 323.2) rotate(-84.7)"/><ellipse cx="111.63" cy="225.76" rx="1.58" ry="1.49" transform="translate(-123.48 316.07) rotate(-84.7)"/><line class="cls-27" x1="118.14" y1="231.77" x2="148.37" y2="227.08"/><g class="cls-1"><rect class="cls-28" x="194.02" y="167.29" width="34.3" height="76.21" rx="12" transform="translate(-59.75 321.07) rotate(-67.33)"/></g><g class="cls-1"><rect class="cls-29" x="80.22" y="287.13" width="50.18" height="77.95" rx="12" transform="translate(-48.76 20.01) rotate(-8.82)"/></g><g class="cls-1"><rect class="cls-30" x="158" y="273.87" width="50.18" height="77.95" rx="12" transform="translate(-61.5 45.32) rotate(-12.1)"/></g></svg>
