<svg xmlns="http://www.w3.org/2000/svg" xmlns:xlink="http://www.w3.org/1999/xlink" width="900" height="600" viewBox="0 0 900 600"><defs><style>.cls-1{isolation:isolate;}.cls-2,.cls-27{fill:#fff;}.cls-2{opacity:0.43;}.cls-10,.cls-3,.cls-33{fill:none;}.cls-10,.cls-28,.cls-3,.cls-33,.cls-36,.cls-41{stroke-miterlimit:10;}.cls-3{stroke-width:7px;stroke:url(#linear-gradient);}.cls-4,.cls-7{opacity:0.51;mix-blend-mode:overlay;}.cls-4{fill:url(#linear-gradient-2);}.cls-5{fill:url(#linear-gradient-3);}.cls-6{opacity:0.73;mix-blend-mode:screen;}.cls-7{fill:url(#linear-gradient-4);}.cls-8{fill:url(#linear-gradient-5);}.cls-9{fill:#5b2354;}.cls-10{stroke-width:9px;stroke:url(#linear-gradient-6);}.cls-11{fill:url(#linear-gradient-7);}.cls-12{filter:url(#AI_GaussianBlur_7);}.cls-13{fill:url(#linear-gradient-8);}.cls-14{fill:url(#linear-gradient-9);}.cls-15{fill:url(#linear-gradient-10);}.cls-16{fill:url(#linear-gradient-11);}.cls-17{fill:url(#linear-gradient-12);}.cls-18{fill:url(#linear-gradient-13);}.cls-19{fill:url(#linear-gradient-14);}.cls-20{fill:#a74c6b;}.cls-21{fill:url(#linear-gradient-15);}.cls-22{fill:url(#linear-gradient-16);}.cls-23{fill:url(#linear-gradient-17);}.cls-24{fill:url(#linear-gradient-18);}.cls-25{fill:url(#linear-gradient-19);}.cls-26{fill:#edb072;}.cls-28{fill:#050505;stroke-width:0.75px;}.cls-28,.cls-33,.cls-41{stroke:#000;}.cls-29{opacity:0.4;}.cls-30{fill:#d35454;}.cls-31,.cls-32{fill:#f78146;}.cls-32{opacity:0.82;}.cls-34{fill:#e874a4;}.cls-35{fill:#84abd3;}.cls-36{stroke:#fff;}.cls-37{fill:url(#linear-gradient-20);}.cls-38{fill:url(#linear-gradient-21);}.cls-39{fill:url(#linear-gradient-22);}.cls-40{fill:url(#linear-gradient-23);}</style><linearGradient id="linear-gradient" x1="92.5" y1="300.24" x2="806.5" y2="300.24" gradientUnits="userSpaceOnUse"><stop offset="0" stop-color="#fff"/><stop offset="0" stop-color="#93278f" stop-opacity="0.6"/></linearGradient><linearGradient id="linear-gradient-2" x1="350.25" y1="285.53" x2="514.41" y2="285.53" gradientTransform="matrix(1.21, 0, 0, 1.17, -79.74, 31.41)" gradientUnits="userSpaceOnUse"><stop offset="0.48" stop-color="#fbb03b"/><stop offset="1" stop-color="#fcee21"/></linearGradient><linearGradient id="linear-gradient-3" x1="355.76" y1="285.53" x2="519.92" y2="285.53" xlink:href="#linear-gradient-2"/><linearGradient id="linear-gradient-4" x1="377.78" y1="368.25" x2="511.64" y2="368.25" gradientTransform="matrix(1, 0, 0, 1, 0, 0)" xlink:href="#linear-gradient-2"/><linearGradient id="linear-gradient-5" x1="382.27" y1="368.25" x2="516.14" y2="368.25" gradientTransform="matrix(1, 0, 0, 1, 0, 0)" xlink:href="#linear-gradient-2"/><linearGradient id="linear-gradient-6" x1="711" y1="146.93" x2="764.38" y2="146.93" gradientUnits="userSpaceOnUse"><stop offset="0.01" stop-color="#662d91"/><stop offset="1" stop-color="#ff1d25" stop-opacity="0.6"/></linearGradient><linearGradient id="linear-gradient-7" x1="730.03" y1="146.54" x2="785" y2="146.54" gradientUnits="userSpaceOnUse"><stop offset="0.01" stop-color="#662d91"/><stop offset="1" stop-color="#ff1d25"/></linearGradient><filter id="AI_GaussianBlur_7" name="AI_GaussianBlur_7"><feGaussianBlur stdDeviation="7"/></filter><linearGradient id="linear-gradient-8" x1="1900.25" y1="-899.93" x2="1900.25" y2="-1058.8" gradientTransform="matrix(0, 1.31, 0.59, 0, 754.94, -2084.32)" gradientUnits="userSpaceOnUse"><stop offset="0" stop-color="#f2f2f2" stop-opacity="0"/><stop offset="0.58" stop-color="#f2f2f2" stop-opacity="0.4"/></linearGradient><linearGradient id="linear-gradient-9" x1="684.18" y1="1040.56" x2="684.18" y2="828.17" gradientTransform="matrix(0, -1.29, -0.52, 0, 668.62, 1222.31)" xlink:href="#linear-gradient-8"/><linearGradient id="linear-gradient-10" x1="788.46" y1="468.29" x2="776.98" y2="427.71" gradientTransform="matrix(-0.98, 0.2, 0.2, 0.98, 830.98, -153.49)" gradientUnits="userSpaceOnUse"><stop offset="0" stop-color="#a4a4a4"/><stop offset="0.66" stop-color="#707070"/><stop offset="1" stop-color="#6b6b6b"/></linearGradient><linearGradient id="linear-gradient-11" x1="755.96" y1="386.51" x2="805.06" y2="386.51" gradientTransform="matrix(-0.98, 0.2, 0.2, 0.98, 830.98, -153.49)" gradientUnits="userSpaceOnUse"><stop offset="0" stop-color="#929292"/><stop offset="0.41" stop-color="#898989"/><stop offset="0.69" stop-color="#aeaeae"/><stop offset="1" stop-color="#fff"/></linearGradient><linearGradient id="linear-gradient-12" x1="689.2" y1="408.4" x2="729" y2="408.4" gradientTransform="matrix(-0.98, 0.2, 0.2, 0.98, 830.98, -153.49)" gradientUnits="userSpaceOnUse"><stop offset="0" stop-color="#868686"/><stop offset="0.62" stop-color="#f9f9f9"/><stop offset="1" stop-color="#fff"/></linearGradient><linearGradient id="linear-gradient-13" x1="747.15" y1="479.88" x2="733.51" y2="434.68" gradientTransform="matrix(-0.98, 0.2, 0.2, 0.98, 830.98, -153.49)" gradientUnits="userSpaceOnUse"><stop offset="0" stop-color="#666"/><stop offset="1" stop-color="#fff"/></linearGradient><linearGradient id="linear-gradient-14" x1="714.92" y1="414.43" x2="785.02" y2="414.43" gradientTransform="matrix(-0.98, 0.2, 0.2, 0.98, 830.98, -153.49)" gradientUnits="userSpaceOnUse"><stop offset="0" stop-color="#fff"/><stop offset="1" stop-color="#666"/></linearGradient><linearGradient id="linear-gradient-15" x1="527.58" y1="308.18" x2="558.21" y2="308.18" gradientTransform="matrix(-1, 0, 0, 1, 754.06, 0.04)" xlink:href="#linear-gradient-14"/><linearGradient id="linear-gradient-16" x1="531.04" y1="323.58" x2="531.33" y2="323.58" gradientTransform="matrix(-1, 0, 0, 1, 754.06, 0.04)" xlink:href="#linear-gradient-14"/><linearGradient id="linear-gradient-17" x1="603.17" y1="322.47" x2="603.46" y2="322.47" gradientTransform="matrix(-1, 0, 0, 1, 754.06, 0.04)" xlink:href="#linear-gradient-14"/><linearGradient id="linear-gradient-18" x1="576.97" y1="307.06" x2="607.28" y2="307.06" gradientTransform="matrix(-1, 0, 0, 1, 754.06, 0.04)" xlink:href="#linear-gradient-14"/><linearGradient id="linear-gradient-19" x1="688.92" y1="351.36" x2="775.35" y2="351.36" xlink:href="#linear-gradient-14"/><linearGradient id="linear-gradient-20" x1="1678.76" y1="-804.91" x2="1678.76" y2="-845.89" gradientTransform="matrix(0, 1, 1, 0, 1023.21, -1228.1)" gradientUnits="userSpaceOnUse"><stop offset="0" stop-color="#f2f2f2" stop-opacity="0"/><stop offset="1" stop-color="#f2f2f2" stop-opacity="0.3"/></linearGradient><linearGradient id="linear-gradient-21" x1="1459.01" y1="-801.19" x2="1459.01" y2="-842.18" gradientTransform="matrix(0, 1, 1, 0, 976.27, -1011.15)" xlink:href="#linear-gradient-20"/><linearGradient id="linear-gradient-22" x1="2122.87" y1="-314.35" x2="2122.87" y2="-349.76" gradientTransform="matrix(0, 0.79, 1.13, 0, 511.96, -1292.99)" xlink:href="#linear-gradient-20"/><linearGradient id="linear-gradient-23" x1="754.69" y1="-766.54" x2="754.69" y2="-801.94" gradientTransform="matrix(0.79, 0, 0, -1.13, -368.71, -490.7)" xlink:href="#linear-gradient-20"/></defs><title>gameover2</title><g class="cls-1"><g id="Layer_1" data-name="Layer 1"><rect class="cls-2" x="18.5" y="37.83" width="861" height="524.34" rx="12"/><rect class="cls-2" x="64.82" y="61.43" width="762.65" height="464.45" rx="12"/><rect class="cls-3" x="96" y="96.24" width="707" height="408"/><polygon class="cls-4" points="511.77 449.14 448.27 422.31 388.96 457.31 396.25 391.05 343.42 347.98 411.43 333.87 438.08 272.25 472.83 329.78 542.13 334.77 495.6 384.45 511.77 449.14"/><polygon class="cls-5" points="518.45 449.13 454.94 422.3 395.64 457.3 402.92 391.04 350.1 347.97 418.1 333.85 444.76 272.24 479.5 329.77 548.8 334.76 502.27 384.43 518.45 449.13"/><image class="cls-6" width="224" height="214" transform="translate(335 261.24)" xlink:href="gameover21.png"/><polygon class="cls-7" points="491.36 427.13 448.53 408.35 408.63 432.63 413.43 386.51 377.77 356.45 423.57 346.72 441.44 303.87 464.94 343.97 511.64 347.55 480.37 382.06 491.36 427.13"/><polygon class="cls-8" points="495.86 427.13 453.03 408.35 413.12 432.63 417.93 386.51 382.27 356.45 428.07 346.72 445.94 303.87 469.44 343.97 516.14 347.55 484.86 382.06 495.86 427.13"/><path class="cls-9" d="M413.41,371.66l8.64-.83.16,1.62-8.64.83Zm3.56.66,1.72-.16,1.08,11.13-1.72.16Z"/><path class="cls-9" d="M422.9,374.25l1.71-.16.85,8.66-1.72.16Zm4.39,1.23a2.13,2.13,0,0,0-.81-.06,1.73,1.73,0,0,0-1.23.57,1.63,1.63,0,0,0-.32,1.28l-.34-1.65a3.08,3.08,0,0,1,.92-1.31,2.56,2.56,0,0,1,1.38-.56,3,3,0,0,1,1.09.07,2.33,2.33,0,0,1,.9.42l-1,1.61A1.56,1.56,0,0,0,427.29,375.48Z"/><path class="cls-9" d="M429.33,373.64l1.75-.17,3.43,7.27-.78,1.93Zm7.74-.74-2.68,11a2.51,2.51,0,0,1-.43,1,1.85,1.85,0,0,1-.77.57,3.83,3.83,0,0,1-1.16.26l-.35,0-.16-1.64.35,0a1.28,1.28,0,0,0,.74-.27,1.48,1.48,0,0,0,.43-.7l2.28-10.09Z"/><path class="cls-9" d="M446.79,375.17a1.86,1.86,0,0,0-.59-1.27,1.75,1.75,0,0,0-1.35-.35,3.27,3.27,0,0,0-1,.26,3,3,0,0,0-.84.52l-1.34-.73a3.3,3.3,0,0,1,1.22-1,4.74,4.74,0,0,1,1.77-.51,4.25,4.25,0,0,1,1.9.21,2.7,2.7,0,0,1,1.29,1,3.58,3.58,0,0,1,.57,1.7l.55,5.57-1.64.15Zm-4.08,5.39a2.49,2.49,0,0,1-1-1.94,2.42,2.42,0,0,1,.55-2,3.29,3.29,0,0,1,2.15-.86l2.49-.24.25,1.36-2.6.25a1.43,1.43,0,0,0-1,.39,1.13,1.13,0,0,0-.25.94,1.1,1.1,0,0,0,.54.93,2.31,2.31,0,0,0,1.37.19,3.86,3.86,0,0,0,1.45-.35.69.69,0,0,0,.42-.7l.3,1.2a2.08,2.08,0,0,1-.5.63,2.52,2.52,0,0,1-.74.41,3.54,3.54,0,0,1-1,.21A3.78,3.78,0,0,1,442.71,380.56Z"/><path class="cls-9" d="M452.67,379.89a2.73,2.73,0,0,1-1.15-1.11,4.79,4.79,0,0,1-.53-1.87L450.8,375a4.8,4.8,0,0,1,.16-1.94,2.58,2.58,0,0,1,.89-1.3,2.83,2.83,0,0,1,1.54-.56,2.6,2.6,0,0,1,1.46.26,3,3,0,0,1,1.15,1v1.78a2,2,0,0,0-.3-.92,1.35,1.35,0,0,0-.64-.54,2,2,0,0,0-.95-.12,1.7,1.7,0,0,0-1.27.65,2.2,2.2,0,0,0-.32,1.52l.18,1.89a2.15,2.15,0,0,0,.61,1.41,1.73,1.73,0,0,0,1.37.39,1.89,1.89,0,0,0,.91-.31,1.39,1.39,0,0,0,.53-.66,2.19,2.19,0,0,0,.11-1l.29,1.81a2.43,2.43,0,0,1-.75,1.16,2.37,2.37,0,0,1-1.42.57A3.15,3.15,0,0,1,452.67,379.89Zm1.19,3.7-.82-.29a2.86,2.86,0,0,1-1.31-.9l1.06-1.16a2.32,2.32,0,0,0,.88.63,2,2,0,0,0,1,.16,1.88,1.88,0,0,0,1.87-2.26l-.85-8.64,1.72-.17.82,8.4a4.38,4.38,0,0,1-.24,2.09,3,3,0,0,1-1.16,1.41,4.38,4.38,0,0,1-2,.64Z"/><path class="cls-9" d="M465.27,373.41a1.86,1.86,0,0,0-.59-1.28,1.75,1.75,0,0,0-1.35-.34,3.56,3.56,0,0,0-1,.25,3.24,3.24,0,0,0-.84.53l-1.34-.73a3.32,3.32,0,0,1,1.22-1,4.93,4.93,0,0,1,1.78-.5,4.23,4.23,0,0,1,1.89.2,2.68,2.68,0,0,1,1.29,1,3.54,3.54,0,0,1,.58,1.7l.54,5.56-1.64.16Zm-4.08,5.39a2.51,2.51,0,0,1-1-1.94,2.44,2.44,0,0,1,.54-2,3.32,3.32,0,0,1,2.16-.85l2.48-.24.25,1.36-2.59.25a1.46,1.46,0,0,0-1,.39,1.19,1.19,0,0,0-.25.93,1.17,1.17,0,0,0,.54.94,2.44,2.44,0,0,0,1.38.19,4.13,4.13,0,0,0,1.45-.35.69.69,0,0,0,.42-.7l.29,1.2a1.94,1.94,0,0,1-.5.63,2.4,2.4,0,0,1-.74.41,3.85,3.85,0,0,1-1,.21A3.8,3.8,0,0,1,461.19,378.8Z"/><path class="cls-9" d="M468.87,366.37l1.71-.16.17,1.7-1.72.16Zm.33,3.47,1.72-.16.85,8.65-1.72.17Z"/><path class="cls-9" d="M473.53,369.43l1.72-.17.85,8.66-1.72.16Zm5.65,2.9a2,2,0,0,0-.62-1.37,2.13,2.13,0,0,0-2.66.19,1.67,1.67,0,0,0-.34,1.29l-.34-1.65a3.14,3.14,0,0,1,.94-1.31,2.58,2.58,0,0,1,1.41-.56,2.72,2.72,0,0,1,2.29.71,3.94,3.94,0,0,1,1,2.53l.52,5.25-1.72.17Z"/><path class="cls-9" d="M482.58,365.06l1.72-.16.88,9-1.72.17Zm1,10.43,1.72-.17.16,1.7-1.71.17Z"/><rect class="cls-10" x="715.5" y="115.13" width="44.38" height="63.61" rx="11.87"/><polygon class="cls-11" points="785 146.97 756.43 119.27 756.43 131.82 730.03 131.82 730.03 160.39 756.43 160.39 756.43 173.81 785 146.97"/><g class="cls-12"><ellipse class="cls-13" cx="180.58" cy="401.16" rx="46.59" ry="41" transform="translate(-249.53 493.6) rotate(-77.9)"/></g><g class="cls-12"><ellipse class="cls-14" cx="185.68" cy="337.81" rx="54.89" ry="54.18" transform="translate(-168.48 490.01) rotate(-84.46)"/></g><path class="cls-15" d="M148.62,423.1l-4.18,36.24c-.14,2.67,2.78,5.07,6.51,5.36l5.66.43c3.73.29,6.87-1.65,7-4.32L164.78,425a5.41,5.41,0,0,0-1.3-3.19,7.63,7.63,0,0,0-5.2-3l-4.26.05c-2-.16-2,.36-3.26,1.26C149.64,421,148.68,421.85,148.62,423.1Z"/><path class="cls-16" d="M130.09,398.14l35.71-15.95a5.54,5.54,0,0,0,2.34-7.29l-1.93-4.14a5.14,5.14,0,0,0-7-2.6l-34,17.79a6.76,6.76,0,0,0-2.45,2.56c-.83,1.51-1.44,3.43-.64,5.14l1.8,2.93c.68,1.46,1.16,1.17,2.53,1.6A4.69,4.69,0,0,0,130.09,398.14Z"/><path class="cls-17" d="M233,408l-33.73-23.55a5.73,5.73,0,0,1-1.45-7.62l2.41-3.77a5,5,0,0,1,7.18-1.39l30,23.54a19.26,19.26,0,0,1,4,4.5,3.83,3.83,0,0,1,.1,3.82L240,407.2a4.43,4.43,0,0,1-4.05,1.73A4.57,4.57,0,0,1,233,408Z"/><path class="cls-18" d="M191.45,426.76,187.27,463c-.14,2.68,2.78,5.08,6.51,5.36l5.65.44c3.74.28,6.87-1.65,7-4.33l1.17-35.77a5.48,5.48,0,0,0-1.3-3.19,7.63,7.63,0,0,0-5.2-3l-4.26,0c-2-.15-2,.37-3.27,1.26C192.47,424.62,191.51,425.52,191.45,426.76Z"/><path class="cls-19" d="M145.72,400.52c-.51,8.41,1.62,20.62,5.93,27.18,6,9.1,15.33,11,26.72,12,11.18,1,20.16,1.39,27.16-6.33,5.27-5.82,9.31-18.25,9.82-26.87,1.21-20.08-13-37.83-32.63-39.51S146.92,380.44,145.72,400.52Z"/><path class="cls-20" d="M154.64,370.11l55.5,4.75a1.52,1.52,0,0,0,1.61-1.47l.14-2.32a1.61,1.61,0,0,0-1.42-1.72L155,364.6a1.5,1.5,0,0,0-1.6,1.46l-.14,2.33A1.6,1.6,0,0,0,154.64,370.11Z"/><path class="cls-20" d="M181,439.18l4.05-67.64a.73.73,0,0,0-.65-.78l-4.07-.35a.7.7,0,0,0-.74.67l-4,66.95a1.44,1.44,0,0,0,1.26,1.53l3.38.29A.69.69,0,0,0,181,439.18Z"/><path class="cls-21" d="M203,299.39a42,42,0,0,1,8.08-4.31l7.25-2.43a2.89,2.89,0,0,1,3.11,1.78,26.57,26.57,0,0,1,1.43,3.58l1.75,6.24c.92,1.95,1.48,6.84,1.64,8.6.68,1.45-.16,12-2.55,10.75l-.7-.09a8.82,8.82,0,0,0-.8-1.49l-4.32-3-14-8.46L196,306.83a.18.18,0,0,1-.1-.08C195.41,306.1,199.3,302.09,203,299.39Z"/><path class="cls-22" d="M222.69,323.47l.28,0C223,323.68,223,323.72,222.69,323.47Z"/><path class="cls-23" d="M150.58,322.39l.27,0C150.6,322.6,150.54,322.56,150.58,322.39Z"/><path class="cls-24" d="M146.91,311.76c.08-1.76.45-6.66,1.29-8.61l1.5-6.25a27.66,27.66,0,0,1,1.29-3.59,2.8,2.8,0,0,1,3-1.8l7.34,2.39a43.73,43.73,0,0,1,8.26,4.25c3.76,2.69,7.81,6.67,7.4,7.32a.18.18,0,0,1-.1.08l-7.77,3.79-13.64,8.54-4.21,3a8.21,8.21,0,0,0-.73,1.49l-.7.1C147.54,323.72,146.28,313.21,146.91,311.76Z"/><path class="cls-25" d="M142.26,337.25c-.56,8.84.9,15.71,7.16,22.53,2.46,2.68,2.14,3,5.36,5.12,6.86,4.48,19.17,1.72,28.39,2.54,9,.81,16.8,5.18,24.12,3.45a21.11,21.11,0,0,0,6.84-2.86c8.76-5.73,14.51-14.14,15.15-24.18,1.25-19.67-17.67-37.61-42.27-39.81S143.5,317.57,142.26,337.25Zm50.67,10.16c.65.06,1,.08,1.35-.58C193.91,347.49,193.58,347.47,192.93,347.41Z"/><path class="cls-26" d="M153.57,336.16c-.38,6.41.69,11.4,5.22,16.33,1.78,1.94,1.55,2.19,3.88,3.7,5,3.23,13.84,1.19,20.5,1.76s12.14,3.7,17.42,2.43a15.44,15.44,0,0,0,4.92-2.1c6.31-4.19,10.44-10.32,10.88-17.61.86-14.29-12.84-27.25-30.59-28.77S154.42,321.86,153.57,336.16Z"/><ellipse cx="197.36" cy="330.99" rx="4.09" ry="4.33" transform="translate(-50.52 35.93) rotate(-9.23)"/><path class="cls-27" d="M201.05,332.52a4.32,4.32,0,0,0-.2-2.1,4,4,0,0,0-3.07-2.68l-.38,0a.92.92,0,0,1-.28,0h-.05l-.17,0h-.16c-1,.05-1.63.33-1.35.57a9.77,9.77,0,0,1,.92,1.12,14.52,14.52,0,0,0,4.74,3.18c.28.12-.44-1.33-3.65-4.82"/><path class="cls-27" d="M197.79,325.71l-.33,0a1.54,1.54,0,0,0-1.5,1.5,1.51,1.51,0,0,0,1.5,1.5l.33,0a1.5,1.5,0,1,0,0-3Z"/><ellipse cx="174.44" cy="329.72" rx="4.09" ry="4.33" transform="translate(-50.61 32.24) rotate(-9.23)"/><path class="cls-27" d="M178.12,331.25a4.32,4.32,0,0,0-.2-2.1,4,4,0,0,0-3.06-2.68l-.39,0a.92.92,0,0,1-.28,0h-.05l-.17,0h-.16c-1,.05-1.63.33-1.34.58a8,8,0,0,1,.91,1.11,14.52,14.52,0,0,0,4.74,3.18c.28.12-.44-1.33-3.65-4.82"/><line class="cls-28" x1="211.42" y1="341.38" x2="203.04" y2="340.18"/><line class="cls-28" x1="210.7" y1="345.4" x2="202.74" y2="342.3"/><line class="cls-28" x1="159.99" y1="337.32" x2="168.42" y2="337.56"/><line class="cls-28" x1="160.23" y1="341.43" x2="168.47" y2="339.71"/><g class="cls-29"><ellipse class="cls-30" cx="198.62" cy="342.87" rx="4.09" ry="4.33" transform="translate(-52.41 36.29) rotate(-9.23)"/></g><g class="cls-29"><ellipse class="cls-30" cx="173.51" cy="340.15" rx="4.09" ry="4.33" transform="translate(-52.3 32.22) rotate(-9.23)"/></g><path class="cls-31" d="M196.9,314.13l-.26,4.31-2.19,3.66-1.73-4L193,313C194.35,313.28,195.64,313.68,196.9,314.13Z"/><path class="cls-32" d="M185.54,311.8h.2c1.26.11,2.5.28,3.71.5l-.21,3.42-2.19,3.65-1.73-4Z"/><line class="cls-33" x1="185.79" y1="339.95" x2="185.79" y2="342.27"/><path class="cls-32" d="M178.61,312.22l-.26,4.31,1.73,4,2.19-3.66.31-5.15A36.48,36.48,0,0,0,178.61,312.22Z"/><path class="cls-27" d="M174.86,324.44l-.33,0A1.54,1.54,0,0,0,173,326a1.52,1.52,0,0,0,1.5,1.5l.33,0a1.5,1.5,0,0,0,0-3Z"/><path class="cls-34" d="M185.78,340.56s2.24-1.62,2.13-2.59c-.06-.5-3.25-.62-3.25-.62a.5.5,0,0,0-.49.29.91.91,0,0,0,.1.72,13.74,13.74,0,0,0,1.35,2.05C185.71,340.55,185.73,340.59,185.78,340.56Z"/><line class="cls-33" x1="187.54" y1="343.22" x2="185.88" y2="342.26"/><line class="cls-33" x1="184.03" y1="343.22" x2="185.69" y2="342.26"/><rect class="cls-35" x="165.1" y="386.89" width="30.67" height="15.34" rx="7.67" transform="translate(326.57 803.06) rotate(-175.11)"/><line class="cls-36" x1="188.01" y1="391.15" x2="171.34" y2="389.72"/><line class="cls-36" x1="187.76" y1="395.29" x2="171.09" y2="393.86"/><ellipse cx="191.1" cy="391.76" rx="0.82" ry="0.87" transform="translate(-60.34 35.71) rotate(-9.23)"/><ellipse cx="190.62" cy="399.69" rx="0.82" ry="0.87" transform="translate(-61.62 35.74) rotate(-9.23)"/><ellipse cx="190.85" cy="395.9" rx="0.82" ry="0.87" transform="translate(-61.01 35.72) rotate(-9.23)"/><line class="cls-36" x1="187.52" y1="399.42" x2="170.84" y2="397.99"/><line class="cls-33" x1="196.94" y1="322.99" x2="203.45" y2="326.71"/><line class="cls-33" x1="175.1" y1="322.05" x2="168.59" y2="325.77"/><g class="cls-12"><rect class="cls-37" x="177.32" y="437.46" width="40.99" height="26.38" rx="12" transform="translate(-264.87 618.42) rotate(-86.23)"/></g><g class="cls-12"><rect class="cls-38" x="134.1" y="434.67" width="40.99" height="26.38" rx="12" transform="translate(-302.46 572.69) rotate(-86.23)"/></g><g class="cls-12"><rect class="cls-39" x="116.08" y="378.16" width="40.07" height="18.04" rx="9.02" transform="translate(-175.32 119.9) rotate(-29.99)"/></g><g class="cls-12"><rect class="cls-40" x="219.58" y="376.91" width="18.04" height="40.07" rx="9.02" transform="translate(-227.09 350.28) rotate(-54.22)"/></g><path class="cls-41" d="M260.36,197.84c0,4.76-2,7.28-4.49,7.28s-4.35-2.83-4.35-7c0-4.39,1.91-7.26,4.49-7.26S260.36,193.74,260.36,197.84Zm-7.5.23c0,3,1.12,5.59,3.08,5.59s3.1-2.6,3.1-5.74c0-2.74-1-5.61-3.08-5.61S252.86,195,252.86,198.07Z"/><path class="cls-41" d="M261.94,190.34h1.26v6.19h0a3.05,3.05,0,0,1,.91-1.27,2,2,0,0,1,1.29-.51c.93,0,2.43.82,2.43,4.24v5.9h-1.27v-5.7c0-1.59-.41-2.95-1.61-2.95-.81,0-1.46.82-1.69,1.81a3.07,3.07,0,0,0-.09.86v6h-1.26Z"/><path class="cls-41" d="M273,197.66c0-1,0-1.87-.06-2.69H274l.07,1.64h0a2.59,2.59,0,0,1,2.3-1.86c1,0,2.45.82,2.45,4.22v5.92H277.6v-5.72c0-1.59-.42-2.93-1.61-2.93-.83,0-1.48.84-1.69,1.85a3.43,3.43,0,0,0-.09.84v6H273Z"/><path class="cls-41" d="M287.2,199.85c0,3.67-1.78,5.27-3.46,5.27-1.88,0-3.33-2-3.33-5.11,0-3.32,1.52-5.26,3.45-5.26S287.2,196.82,287.2,199.85Zm-5.51.1c0,2.17.87,3.81,2.11,3.81s2.11-1.61,2.11-3.85c0-1.68-.59-3.81-2.08-3.81S281.69,198.07,281.69,200Z"/><path class="cls-41" d="M288.15,203.83c0-.76.36-1.3.86-1.3s.85.54.85,1.3-.33,1.29-.87,1.29S288.15,204.56,288.15,203.83Z"/><path class="cls-41" d="M291.12,203.83c0-.76.36-1.3.86-1.3s.85.54.85,1.3-.33,1.29-.86,1.29S291.12,204.56,291.12,203.83Z"/><path class="cls-41" d="M253.34,215.66v8.18c0,3.09,1,4.4,2.26,4.4s2.35-1.35,2.35-4.4v-8.18h1.27v8.05c0,4.25-1.57,6-3.67,6s-3.47-1.62-3.47-5.9v-8.14Z"/><path class="cls-41" d="M261.34,222.24c0-1,0-1.87-.06-2.69h1.12l.07,1.64h0a2.58,2.58,0,0,1,2.3-1.86c1,0,2.45.82,2.45,4.22v5.92H266v-5.71c0-1.6-.42-2.93-1.61-2.93-.83,0-1.48.84-1.69,1.84a3.49,3.49,0,0,0-.09.84v6h-1.26Z"/><path class="cls-41" d="M269.43,229.47v-8.54h-1v-1.38h1v-.47a6,6,0,0,1,.81-3.46,2,2,0,0,1,1.69-.92A2.13,2.13,0,0,1,273,215l-.17,1.39a1.39,1.39,0,0,0-.81-.23c-1.08,0-1.35,1.35-1.35,2.87v.53h1.68v1.38h-1.68v8.54Z"/><path class="cls-41" d="M279.6,224.43c0,3.67-1.78,5.27-3.46,5.27-1.89,0-3.34-2-3.34-5.1,0-3.32,1.53-5.27,3.45-5.27S279.6,221.4,279.6,224.43Zm-5.52.1c0,2.18.88,3.82,2.11,3.82s2.11-1.62,2.11-3.86c0-1.68-.58-3.81-2.08-3.81S274.08,222.65,274.08,224.53Z"/><path class="cls-41" d="M281.19,222.65c0-1.17,0-2.17-.06-3.1h1.1l0,1.95h.06c.31-1.33,1.07-2.17,1.92-2.17a1,1,0,0,1,.36.06v1.7a1.4,1.4,0,0,0-.43-.06c-.89,0-1.52,1-1.7,2.32a6.9,6.9,0,0,0-.05.84v5.28h-1.25Z"/><path class="cls-41" d="M287.75,216.71v2.84h1.8v1.38h-1.8v5.35c0,1.23.24,1.92.94,1.92a2.13,2.13,0,0,0,.74-.12l.05,1.35a2.18,2.18,0,0,1-1.12.25,1.53,1.53,0,0,1-1.36-.76,4.83,4.83,0,0,1-.49-2.58v-5.41h-1.08v-1.38h1.08v-2.37Z"/><path class="cls-41" d="M296.79,226.77c0,1,0,1.92.06,2.7h-1.12l-.07-1.62h0a2.66,2.66,0,0,1-2.3,1.85c-1.09,0-2.4-.86-2.4-4.35v-5.8h1.27v5.5c0,1.88.4,3.15,1.55,3.15.84,0,1.43-.84,1.66-1.64a3.66,3.66,0,0,0,.12-.92v-6.09h1.26Z"/><path class="cls-41" d="M298.88,222.24c0-1,0-1.87-.06-2.69H300l.07,1.64h0a2.57,2.57,0,0,1,2.29-1.86c1,0,2.46.82,2.46,4.22v5.92h-1.27v-5.71c0-1.6-.41-2.93-1.6-2.93-.84,0-1.48.84-1.7,1.84a3.52,3.52,0,0,0-.08.84v6h-1.27Z"/><path class="cls-41" d="M310.7,229.47l-.1-1.25h-.05a2.44,2.44,0,0,1-2.12,1.48c-1.41,0-2.13-1.42-2.13-2.85,0-2.4,1.5-3.71,4.18-3.69V223c0-.82-.16-2.3-1.58-2.3a2.78,2.78,0,0,0-1.81.74l-.29-1.19a3.44,3.44,0,0,1,2.29-.88c2.12,0,2.64,2.07,2.64,4.06v3.71a21.09,21.09,0,0,0,.11,2.37Zm-.19-5.06c-1.38,0-2.94.31-2.94,2.24,0,1.16.54,1.72,1.19,1.72a1.91,1.91,0,0,0,1.68-1.66,2.87,2.87,0,0,0,.07-.58Z"/><path class="cls-41" d="M315.23,216.71v2.84H317v1.38h-1.81v5.35c0,1.23.24,1.92.95,1.92a2.07,2.07,0,0,0,.73-.12l.06,1.35a2.21,2.21,0,0,1-1.12.25,1.56,1.56,0,0,1-1.37-.76,4.84,4.84,0,0,1-.48-2.58v-5.41h-1.08v-1.38H314v-2.37Z"/><path class="cls-41" d="M319.08,224.84c0,2.44,1.12,3.44,2.38,3.44a3.39,3.39,0,0,0,1.92-.51l.22,1.29a4.21,4.21,0,0,1-2.31.62c-2.14,0-3.42-2-3.42-5s1.24-5.35,3.26-5.35c2.27,0,2.87,2.85,2.87,4.67,0,.37,0,.66,0,.84Zm3.7-1.29c0-1.15-.33-2.93-1.75-2.93s-1.84,1.68-1.94,2.93Z"/><path class="cls-41" d="M325.56,214.92h1.27v14.55h-1.27Z"/><path class="cls-41" d="M329.41,219.55l1.52,5.87c.16.65.33,1.43.45,2h0c.12-.59.27-1.35.44-2.07l1.38-5.82h1.33l-1.89,7.07c-.91,3.41-1.52,5.15-2.38,6.21a3.23,3.23,0,0,1-1.55,1.17l-.32-1.51a3.18,3.18,0,0,0,1.1-.89,5.6,5.6,0,0,0,1.07-2,2.24,2.24,0,0,0,.1-.43,2.08,2.08,0,0,0-.09-.48L328,219.55Z"/><path class="cls-41" d="M339.21,219.55l1.52,5.87c.16.65.33,1.43.45,2h0c.13-.59.27-1.35.44-2.07l1.38-5.82h1.34l-1.9,7.07c-.9,3.41-1.52,5.15-2.38,6.21a3.23,3.23,0,0,1-1.55,1.17l-.32-1.51a3.29,3.29,0,0,0,1.11-.89,5.77,5.77,0,0,0,1.06-2,1.66,1.66,0,0,0,.1-.43,2.08,2.08,0,0,0-.09-.48l-2.57-9.14Z"/><path class="cls-41" d="M351.66,224.43c0,3.67-1.78,5.27-3.46,5.27-1.88,0-3.33-2-3.33-5.1,0-3.32,1.52-5.27,3.44-5.27S351.66,221.4,351.66,224.43Zm-5.52.1c0,2.18.88,3.82,2.12,3.82s2.11-1.62,2.11-3.86c0-1.68-.59-3.81-2.09-3.81S346.14,222.65,346.14,224.53Z"/><path class="cls-41" d="M359.06,226.77q0,1.53.06,2.7H358l-.07-1.62h0a2.65,2.65,0,0,1-2.3,1.85c-1.09,0-2.39-.86-2.39-4.35v-5.8h1.26v5.5c0,1.88.4,3.15,1.55,3.15.85,0,1.44-.84,1.67-1.64a3.68,3.68,0,0,0,.11-.92v-6.09h1.26Z"/><path class="cls-41" d="M370.2,214.92v12c0,.88,0,1.89.06,2.56h-1.14l-.05-1.72h0a2.61,2.61,0,0,1-2.37,1.95c-1.68,0-3-2-3-5,0-3.3,1.42-5.33,3.11-5.33a2.26,2.26,0,0,1,2.1,1.52h0v-5.93Zm-1.26,8.67a5,5,0,0,0-.06-.76c-.19-1.14-.88-2.09-1.82-2.09-1.31,0-2.09,1.64-2.09,3.84,0,2,.69,3.66,2.06,3.66.85,0,1.62-.8,1.85-2.15a4.67,4.67,0,0,0,.06-.78Z"/><path class="cls-41" d="M373.7,216.77c0,.61-.3,1.1-.8,1.1s-.76-.49-.76-1.1.33-1.13.79-1.13S373.7,216.13,373.7,216.77Zm-1.41,12.7v-9.92h1.27v9.92Z"/><path class="cls-41" d="M381.65,214.92v12c0,.88,0,1.89.06,2.56h-1.13l-.06-1.72h0a2.6,2.6,0,0,1-2.37,1.95c-1.68,0-3-2-3-5,0-3.3,1.42-5.33,3.12-5.33a2.25,2.25,0,0,1,2.09,1.52h0v-5.93Zm-1.26,8.67a4,4,0,0,0-.06-.76c-.18-1.14-.87-2.09-1.82-2.09-1.31,0-2.08,1.64-2.08,3.84,0,2,.69,3.66,2.05,3.66.85,0,1.62-.8,1.85-2.15a3.8,3.8,0,0,0,.06-.78Z"/><path class="cls-41" d="M383.75,222.24c0-1,0-1.87-.06-2.69h1.12l.07,1.64h0a2.58,2.58,0,0,1,2.3-1.86c1,0,2.45.82,2.45,4.22v5.92H388.4v-5.71c0-1.6-.42-2.93-1.61-2.93-.83,0-1.48.84-1.69,1.84a3.49,3.49,0,0,0-.09.84v6h-1.26Z"/><path class="cls-41" d="M392.83,215.44a29.22,29.22,0,0,1-1.35,4.85l-.8.15a39,39,0,0,0,.85-4.82Z"/><path class="cls-41" d="M395.57,216.71v2.84h1.81v1.38h-1.81v5.35c0,1.23.25,1.92.95,1.92a2,2,0,0,0,.73-.12l.06,1.35a2.18,2.18,0,0,1-1.12.25,1.53,1.53,0,0,1-1.36-.76,4.83,4.83,0,0,1-.49-2.58v-5.41h-1.08v-1.38h1.08v-2.37Z"/><path class="cls-41" d="M401.67,227.63a2.7,2.7,0,0,0,1.67.72,1.32,1.32,0,0,0,1.35-1.48c0-.86-.36-1.33-1.29-1.82a3,3,0,0,1-1.84-2.81c0-1.6.9-2.91,2.4-2.91a2.72,2.72,0,0,1,1.7.61l-.31,1.32a2.15,2.15,0,0,0-1.42-.58,1.21,1.21,0,0,0-1.17,1.35c0,.82.42,1.19,1.33,1.68a3.1,3.1,0,0,1,1.82,3c0,1.74-1,3-2.6,3a3.07,3.07,0,0,1-1.95-.68Z"/><path class="cls-41" d="M413.34,226.77q0,1.53.06,2.7h-1.12l-.07-1.62h0a2.65,2.65,0,0,1-2.3,1.85c-1.09,0-2.39-.86-2.39-4.35v-5.8h1.26v5.5c0,1.88.4,3.15,1.55,3.15.85,0,1.44-.84,1.67-1.64a3.68,3.68,0,0,0,.11-.92v-6.09h1.26Z"/><path class="cls-41" d="M420.39,229.1a3.49,3.49,0,0,1-2,.58c-2.09,0-3.46-2-3.46-5.06s1.47-5.27,3.74-5.27a3.28,3.28,0,0,1,1.75.51l-.29,1.4a2.22,2.22,0,0,0-1.46-.48c-1.6,0-2.46,1.68-2.46,3.75,0,2.3,1,3.71,2.41,3.71a2.74,2.74,0,0,0,1.56-.49Z"/><path class="cls-41" d="M426.73,229.1a3.47,3.47,0,0,1-2,.58c-2.1,0-3.46-2-3.46-5.06s1.46-5.27,3.73-5.27a3.22,3.22,0,0,1,1.75.51l-.28,1.4a2.27,2.27,0,0,0-1.47-.48c-1.59,0-2.45,1.68-2.45,3.75,0,2.3,1,3.71,2.41,3.71a2.71,2.71,0,0,0,1.55-.49Z"/><path class="cls-41" d="M428.83,224.84c0,2.44,1.12,3.44,2.38,3.44a3.42,3.42,0,0,0,1.93-.51l.21,1.29a4.18,4.18,0,0,1-2.31.62c-2.14,0-3.42-2-3.42-5s1.24-5.35,3.26-5.35c2.27,0,2.87,2.85,2.87,4.67,0,.37,0,.66,0,.84Zm3.7-1.29c0-1.15-.33-2.93-1.75-2.93s-1.84,1.68-1.94,2.93Z"/><path class="cls-41" d="M436,224.84c0,2.44,1.12,3.44,2.38,3.44a3.42,3.42,0,0,0,1.93-.51l.21,1.29a4.16,4.16,0,0,1-2.31.62c-2.14,0-3.42-2-3.42-5s1.24-5.35,3.26-5.35c2.27,0,2.87,2.85,2.87,4.67,0,.37,0,.66,0,.84Zm3.7-1.29c0-1.15-.33-2.93-1.75-2.93s-1.84,1.68-1.94,2.93Z"/><path class="cls-41" d="M448.51,214.92v12c0,.88,0,1.89.05,2.56h-1.13l-.06-1.72h0A2.59,2.59,0,0,1,445,229.7c-1.68,0-3-2-3-5,0-3.3,1.42-5.33,3.12-5.33a2.27,2.27,0,0,1,2.1,1.52h0v-5.93Zm-1.27,8.67a4.93,4.93,0,0,0-.05-.76c-.19-1.14-.88-2.09-1.83-2.09-1.3,0-2.08,1.64-2.08,3.84,0,2,.69,3.66,2.05,3.66.85,0,1.63-.8,1.86-2.15a4.72,4.72,0,0,0,.05-.78Z"/><path class="cls-41" d="M455.05,216.77c0,.61-.3,1.1-.8,1.1s-.77-.49-.77-1.1.34-1.13.79-1.13S455.05,216.13,455.05,216.77Zm-1.41,12.7v-9.92h1.27v9.92Z"/><path class="cls-41" d="M457,222.24c0-1,0-1.87-.06-2.69h1.12l.08,1.64h0a2.59,2.59,0,0,1,2.3-1.86c1,0,2.46.82,2.46,4.22v5.92h-1.27v-5.71c0-1.6-.41-2.93-1.6-2.93-.84,0-1.48.84-1.7,1.84a3.49,3.49,0,0,0-.09.84v6H457Z"/><path class="cls-41" d="M474,214.92v12c0,.88,0,1.89.06,2.56h-1.14l-.05-1.72h0a2.61,2.61,0,0,1-2.37,1.95c-1.68,0-3-2-3-5,0-3.3,1.42-5.33,3.11-5.33a2.26,2.26,0,0,1,2.1,1.52h0v-5.93Zm-1.26,8.67a5,5,0,0,0-.06-.76c-.19-1.14-.88-2.09-1.82-2.09-1.31,0-2.09,1.64-2.09,3.84,0,2,.69,3.66,2.06,3.66.85,0,1.62-.8,1.85-2.15a4.67,4.67,0,0,0,.06-.78Z"/><path class="cls-41" d="M476.81,224.84c0,2.44,1.12,3.44,2.38,3.44a3.36,3.36,0,0,0,1.92-.51l.22,1.29a4.21,4.21,0,0,1-2.31.62c-2.14,0-3.42-2-3.42-5s1.24-5.35,3.26-5.35c2.27,0,2.87,2.85,2.87,4.67,0,.37,0,.66,0,.84Zm3.7-1.29c0-1.15-.33-2.93-1.75-2.93s-1.84,1.68-1.94,2.93Z"/><path class="cls-41" d="M483.12,227.63a2.67,2.67,0,0,0,1.67.72,1.32,1.32,0,0,0,1.35-1.48c0-.86-.36-1.33-1.3-1.82a3,3,0,0,1-1.83-2.81c0-1.6.9-2.91,2.39-2.91a2.72,2.72,0,0,1,1.71.61l-.31,1.32a2.18,2.18,0,0,0-1.42-.58,1.21,1.21,0,0,0-1.17,1.35c0,.82.42,1.19,1.32,1.68a3.09,3.09,0,0,1,1.83,3c0,1.74-.95,3-2.6,3a3,3,0,0,1-1.95-.68Z"/><path class="cls-41" d="M490.5,216.71v2.84h1.81v1.38H490.5v5.35c0,1.23.24,1.92.95,1.92a2.07,2.07,0,0,0,.73-.12l.06,1.35a2.21,2.21,0,0,1-1.12.25,1.54,1.54,0,0,1-1.37-.76,4.83,4.83,0,0,1-.49-2.58v-5.41h-1.07v-1.38h1.07v-2.37Z"/><path class="cls-41" d="M493.73,222.65c0-1.17,0-2.17-.06-3.1h1.11l0,1.95h.06c.31-1.33,1.07-2.17,1.92-2.17a1,1,0,0,1,.36.06v1.7a1.4,1.4,0,0,0-.43-.06c-.89,0-1.52,1-1.7,2.32,0,.24,0,.53,0,.84v5.28h-1.25Z"/><path class="cls-41" d="M504.57,224.43c0,3.67-1.78,5.27-3.46,5.27-1.88,0-3.33-2-3.33-5.1,0-3.32,1.52-5.27,3.44-5.27S504.57,221.4,504.57,224.43Zm-5.52.1c0,2.18.88,3.82,2.11,3.82s2.11-1.62,2.11-3.86c0-1.68-.58-3.81-2.08-3.81S499.05,222.65,499.05,224.53Z"/><path class="cls-41" d="M506.52,219.55l1.52,5.87c.16.65.33,1.43.44,2h0c.13-.59.28-1.35.45-2.07l1.38-5.82h1.33l-1.89,7.07c-.91,3.41-1.53,5.15-2.39,6.21a3.15,3.15,0,0,1-1.55,1.17l-.31-1.51a3.27,3.27,0,0,0,1.1-.89,5.45,5.45,0,0,0,1.06-2,1.66,1.66,0,0,0,.1-.43,1.93,1.93,0,0,0-.08-.48l-2.57-9.14Z"/><path class="cls-41" d="M514.22,216.77c0,.61-.3,1.1-.8,1.1s-.76-.49-.76-1.1.33-1.13.79-1.13S514.22,216.13,514.22,216.77Zm-1.4,12.7v-9.92h1.26v9.92Z"/><path class="cls-41" d="M516.18,222.24c0-1,0-1.87-.06-2.69h1.12l.07,1.64h0a2.58,2.58,0,0,1,2.3-1.86c1,0,2.45.82,2.45,4.22v5.92h-1.26v-5.71c0-1.6-.42-2.93-1.61-2.93-.83,0-1.48.84-1.69,1.84a3.49,3.49,0,0,0-.09.84v6h-1.26Z"/><path class="cls-41" d="M530.13,219.55c0,.72-.06,1.52-.06,2.73V228c0,2.27-.31,3.67-1,4.53a3.06,3.06,0,0,1-2.53,1.19,3.5,3.5,0,0,1-2.31-.82l.32-1.38a3.08,3.08,0,0,0,2,.78c1.29,0,2.24-1,2.24-3.46v-1.11h0a2.44,2.44,0,0,1-2.21,1.66c-1.73,0-3-2.09-3-4.83,0-3.36,1.53-5.27,3.13-5.27a2.36,2.36,0,0,1,2.17,1.72h0l0-1.5Zm-1.31,3.92a3.48,3.48,0,0,0-.07-.82c-.23-1.05-.85-1.91-1.77-1.91-1.2,0-2.06,1.46-2.06,3.75,0,1.95.69,3.57,2.05,3.57.77,0,1.48-.7,1.75-1.85a4.41,4.41,0,0,0,.1-1Z"/><path class="cls-41" d="M536.73,216.71v2.84h1.81v1.38h-1.81v5.35c0,1.23.24,1.92.95,1.92a2.07,2.07,0,0,0,.73-.12l.06,1.35a2.24,2.24,0,0,1-1.12.25,1.54,1.54,0,0,1-1.37-.76,4.83,4.83,0,0,1-.49-2.58v-5.41h-1.07v-1.38h1.07v-2.37Z"/><path class="cls-41" d="M540,214.92h1.26v6.19h0a3.12,3.12,0,0,1,.9-1.27,2.06,2.06,0,0,1,1.3-.51c.93,0,2.42.82,2.42,4.24v5.9h-1.26v-5.69c0-1.6-.42-2.95-1.61-2.95-.82,0-1.46.82-1.69,1.8a2.73,2.73,0,0,0-.09.86v6H540Z"/><path class="cls-41" d="M548.63,224.84c0,2.44,1.12,3.44,2.38,3.44a3.39,3.39,0,0,0,1.92-.51l.22,1.29a4.21,4.21,0,0,1-2.31.62c-2.14,0-3.42-2-3.42-5s1.23-5.35,3.26-5.35c2.27,0,2.87,2.85,2.87,4.67,0,.37,0,.66,0,.84Zm3.7-1.29c0-1.15-.33-2.93-1.75-2.93s-1.84,1.68-1.94,2.93Z"/><path class="cls-41" d="M558.16,222.24c0-1,0-1.87-.06-2.69h1.1l.06,1.6h0a2.46,2.46,0,0,1,2.19-1.82c.94,0,1.66.82,2,2h0a3.9,3.9,0,0,1,.78-1.29,1.93,1.93,0,0,1,1.53-.7c.92,0,2.29.86,2.29,4.3v5.84h-1.24v-5.61c0-1.91-.49-3.06-1.51-3.06-.71,0-1.27.76-1.49,1.64a4.08,4.08,0,0,0-.1.91v6.12h-1.23v-5.94c0-1.58-.49-2.73-1.45-2.73-.79,0-1.37.91-1.57,1.81a3.49,3.49,0,0,0-.1.88v6h-1.23Z"/><path class="cls-41" d="M570.83,224.84c0,2.44,1.12,3.44,2.38,3.44a3.42,3.42,0,0,0,1.93-.51l.21,1.29a4.16,4.16,0,0,1-2.31.62c-2.14,0-3.42-2-3.42-5s1.24-5.35,3.26-5.35c2.27,0,2.87,2.85,2.87,4.67a7.9,7.9,0,0,1,0,.84Zm3.7-1.29c0-1.15-.33-2.93-1.75-2.93s-1.84,1.68-1.94,2.93Z"/><path class="cls-41" d="M578.84,216.71v2.84h1.81v1.38h-1.81v5.35c0,1.23.24,1.92.95,1.92a2.07,2.07,0,0,0,.73-.12l.06,1.35a2.24,2.24,0,0,1-1.12.25,1.54,1.54,0,0,1-1.37-.76,4.83,4.83,0,0,1-.49-2.58v-5.41h-1.07v-1.38h1.07v-2.37Z"/><path class="cls-41" d="M582.68,224.84c0,2.44,1.12,3.44,2.39,3.44a3.39,3.39,0,0,0,1.92-.51l.22,1.29a4.22,4.22,0,0,1-2.32.62c-2.13,0-3.41-2-3.41-5s1.23-5.35,3.26-5.35c2.27,0,2.87,2.85,2.87,4.67,0,.37,0,.66,0,.84Zm3.71-1.29c0-1.15-.33-2.93-1.75-2.93s-1.84,1.68-1.94,2.93Z"/><path class="cls-41" d="M595.46,224.43c0,3.67-1.78,5.27-3.46,5.27-1.88,0-3.33-2-3.33-5.1,0-3.32,1.52-5.27,3.44-5.27S595.46,221.4,595.46,224.43Zm-5.51.1c0,2.18.87,3.82,2.11,3.82s2.11-1.62,2.11-3.86c0-1.68-.59-3.81-2.08-3.81S590,222.65,590,224.53Z"/><path class="cls-41" d="M597.05,222.65c0-1.17,0-2.17-.06-3.1h1.11l0,1.95h.06c.31-1.33,1.08-2.17,1.92-2.17a1,1,0,0,1,.36.06v1.7a1.4,1.4,0,0,0-.43-.06c-.89,0-1.52,1-1.69,2.32a6.75,6.75,0,0,0-.06.84v5.28h-1.25Z"/><path class="cls-41" d="M601.57,227.63a2.65,2.65,0,0,0,1.67.72,1.32,1.32,0,0,0,1.35-1.48c0-.86-.36-1.33-1.3-1.82a3,3,0,0,1-1.83-2.81c0-1.6.9-2.91,2.39-2.91a2.75,2.75,0,0,1,1.71.61l-.31,1.32a2.18,2.18,0,0,0-1.43-.58,1.21,1.21,0,0,0-1.16,1.35c0,.82.42,1.19,1.32,1.68a3.09,3.09,0,0,1,1.83,3c0,1.74-.95,3-2.6,3a3.1,3.1,0,0,1-2-.68Z"/><path class="cls-41" d="M614.32,229.47l-.1-1.25h-.05a2.44,2.44,0,0,1-2.12,1.48c-1.41,0-2.13-1.42-2.13-2.85,0-2.4,1.5-3.71,4.18-3.69V223c0-.82-.16-2.3-1.58-2.3a2.78,2.78,0,0,0-1.81.74l-.28-1.19a3.4,3.4,0,0,1,2.28-.88c2.12,0,2.64,2.07,2.64,4.06v3.71a18.82,18.82,0,0,0,.12,2.37Zm-.19-5.06c-1.38,0-2.94.31-2.94,2.24,0,1.16.54,1.72,1.19,1.72a1.91,1.91,0,0,0,1.68-1.66,2.87,2.87,0,0,0,.07-.58Z"/><path class="cls-41" d="M617.39,222.24c0-1,0-1.87-.06-2.69h1.12l.07,1.64h0a2.58,2.58,0,0,1,2.3-1.86c1,0,2.45.82,2.45,4.22v5.92H622v-5.71c0-1.6-.42-2.93-1.61-2.93-.83,0-1.48.84-1.69,1.84a3.49,3.49,0,0,0-.09.84v6h-1.26Z"/><path class="cls-41" d="M631.35,214.92v12c0,.88,0,1.89.06,2.56h-1.13l-.06-1.72h0a2.6,2.6,0,0,1-2.37,1.95c-1.68,0-3-2-3-5,0-3.3,1.42-5.33,3.12-5.33a2.25,2.25,0,0,1,2.09,1.52h0v-5.93Zm-1.26,8.67a4,4,0,0,0-.06-.76c-.18-1.14-.87-2.09-1.82-2.09-1.31,0-2.08,1.64-2.08,3.84,0,2,.69,3.66,2,3.66.85,0,1.62-.8,1.85-2.15a3.8,3.8,0,0,0,.06-.78Z"/><path class="cls-41" d="M636.32,227.63a2.65,2.65,0,0,0,1.66.72,1.32,1.32,0,0,0,1.35-1.48c0-.86-.36-1.33-1.29-1.82a3,3,0,0,1-1.84-2.81c0-1.6.91-2.91,2.4-2.91a2.77,2.77,0,0,1,1.71.61l-.32,1.32a2.13,2.13,0,0,0-1.42-.58,1.21,1.21,0,0,0-1.16,1.35c0,.82.42,1.19,1.32,1.68a3.08,3.08,0,0,1,1.82,3c0,1.74-.94,3-2.6,3a3.07,3.07,0,0,1-2-.68Z"/><path class="cls-41" d="M648.46,224.43c0,3.67-1.78,5.27-3.46,5.27-1.88,0-3.33-2-3.33-5.1,0-3.32,1.52-5.27,3.45-5.27S648.46,221.4,648.46,224.43Zm-5.51.1c0,2.18.87,3.82,2.11,3.82s2.11-1.62,2.11-3.86c0-1.68-.59-3.81-2.08-3.81S643,222.65,643,224.53Z"/><path class="cls-41" d="M252.76,249.42c0,2.44,1.11,3.45,2.38,3.45a3.38,3.38,0,0,0,1.92-.52l.22,1.3a4.31,4.31,0,0,1-2.31.61c-2.14,0-3.42-2-3.42-5s1.23-5.35,3.26-5.35c2.27,0,2.87,2.85,2.87,4.67,0,.37,0,.66,0,.84Zm3.7-1.29c0-1.14-.33-2.93-1.75-2.93s-1.84,1.68-1.94,2.93Z"/><path class="cls-41" d="M263.09,254.06l-.1-1.25h0a2.47,2.47,0,0,1-2.13,1.47c-1.41,0-2.12-1.41-2.12-2.85,0-2.4,1.49-3.71,4.17-3.69v-.2c0-.82-.15-2.3-1.57-2.3a2.74,2.74,0,0,0-1.81.74l-.29-1.19a3.42,3.42,0,0,1,2.28-.88c2.13,0,2.64,2.07,2.64,4.06v3.71a19.09,19.09,0,0,0,.12,2.38ZM262.9,249c-1.38,0-2.94.31-2.94,2.24,0,1.17.55,1.72,1.19,1.72a1.9,1.9,0,0,0,1.68-1.66,2.87,2.87,0,0,0,.07-.58Z"/><path class="cls-41" d="M266.16,247.23c0-1.17,0-2.17-.06-3.09h1.11l0,1.94h.06c.31-1.33,1.08-2.17,1.92-2.17a1,1,0,0,1,.36.06v1.7a1.4,1.4,0,0,0-.43-.06c-.89,0-1.52,1-1.69,2.32a6.75,6.75,0,0,0-.06.84v5.29h-1.25Z"/><path class="cls-41" d="M272.72,241.29v2.85h1.81v1.37h-1.81v5.35c0,1.23.24,1.92.95,1.92a2.07,2.07,0,0,0,.73-.12l.06,1.35a2.24,2.24,0,0,1-1.12.25,1.54,1.54,0,0,1-1.37-.76,4.83,4.83,0,0,1-.49-2.58v-5.41h-1.07v-1.37h1.07v-2.38Z"/><path class="cls-41" d="M276,239.5h1.26v6.19h0a3.12,3.12,0,0,1,.9-1.27,2.12,2.12,0,0,1,1.3-.51c.93,0,2.42.82,2.42,4.24v5.91H280.6v-5.7c0-1.6-.42-3-1.61-3-.82,0-1.46.82-1.69,1.8a3.11,3.11,0,0,0-.09.86v6H276Z"/><path class="cls-41" d="M287,239.5h1.26v6.19h0a3,3,0,0,1,.9-1.27,2.11,2.11,0,0,1,1.29-.51c.94,0,2.43.82,2.43,4.24v5.91h-1.26v-5.7c0-1.6-.42-3-1.61-3-.82,0-1.47.82-1.69,1.8a2.77,2.77,0,0,0-.09.86v6H287Z"/><path class="cls-41" d="M298.77,254.06l-.1-1.25h0a2.47,2.47,0,0,1-2.13,1.47c-1.41,0-2.12-1.41-2.12-2.85,0-2.4,1.49-3.71,4.17-3.69v-.2c0-.82-.15-2.3-1.58-2.3a2.74,2.74,0,0,0-1.8.74l-.29-1.19a3.4,3.4,0,0,1,2.28-.88c2.13,0,2.64,2.07,2.64,4.06v3.71a19.09,19.09,0,0,0,.12,2.38Zm-.19-5.07c-1.38,0-2.94.31-2.94,2.24,0,1.17.54,1.72,1.19,1.72a1.9,1.9,0,0,0,1.68-1.66,2.87,2.87,0,0,0,.07-.58Z"/><path class="cls-41" d="M301.67,252.21a2.65,2.65,0,0,0,1.66.72,1.32,1.32,0,0,0,1.35-1.48c0-.86-.36-1.33-1.29-1.82a3,3,0,0,1-1.84-2.81c0-1.6.91-2.91,2.4-2.91a2.72,2.72,0,0,1,1.71.62l-.32,1.31a2.13,2.13,0,0,0-1.42-.58,1.21,1.21,0,0,0-1.16,1.36c0,.82.41,1.19,1.32,1.68a3.08,3.08,0,0,1,1.82,3c0,1.74-.95,3-2.6,3a3.07,3.07,0,0,1-1.95-.68Z"/><path class="cls-41" d="M310.51,254.06c0-.68.06-1.69.06-2.57v-12h1.24v6.24h0a2.56,2.56,0,0,1,2.37-1.83c1.73,0,3,2.05,2.93,5.06,0,3.55-1.56,5.31-3.11,5.31a2.46,2.46,0,0,1-2.33-1.86h0l-.06,1.64Zm1.3-4a4.62,4.62,0,0,0,.06.66c.25,1.25,1,2.11,1.9,2.11,1.32,0,2.11-1.54,2.11-3.82,0-2-.72-3.68-2.07-3.68-.86,0-1.67.84-1.92,2.21a4.65,4.65,0,0,0-.08.74Z"/><path class="cls-41" d="M319.43,249.42c0,2.44,1.12,3.45,2.39,3.45a3.38,3.38,0,0,0,1.92-.52l.22,1.3a4.31,4.31,0,0,1-2.31.61c-2.14,0-3.42-2-3.42-5s1.23-5.35,3.26-5.35c2.27,0,2.87,2.85,2.87,4.67,0,.37,0,.66,0,.84Zm3.71-1.29c0-1.14-.33-2.93-1.75-2.93s-1.84,1.68-1.94,2.93Z"/><path class="cls-41" d="M326.63,249.42c0,2.44,1.11,3.45,2.38,3.45a3.38,3.38,0,0,0,1.92-.52l.22,1.3a4.31,4.31,0,0,1-2.31.61c-2.14,0-3.42-2-3.42-5s1.23-5.35,3.26-5.35c2.27,0,2.87,2.85,2.87,4.67,0,.37,0,.66,0,.84Zm3.7-1.29c0-1.14-.33-2.93-1.75-2.93s-1.84,1.68-1.94,2.93Z"/><path class="cls-41" d="M333.11,246.82c0-1,0-1.86-.06-2.68h1.12l.08,1.64h0a2.57,2.57,0,0,1,2.29-1.87c1,0,2.46.82,2.46,4.22v5.93h-1.27v-5.72c0-1.6-.41-2.93-1.6-2.93-.84,0-1.48.84-1.7,1.84a3.52,3.52,0,0,0-.08.84v6h-1.27Z"/><path class="cls-41" d="M349.94,251.35c0,1,0,1.93.05,2.71h-1.12l-.07-1.62h0a2.64,2.64,0,0,1-2.3,1.84c-1.09,0-2.39-.86-2.39-4.34v-5.8h1.26v5.49c0,1.88.4,3.15,1.55,3.15.85,0,1.44-.84,1.67-1.63a3.83,3.83,0,0,0,.11-.93v-6.08h1.27Z"/><path class="cls-41" d="M353.55,241.29v2.85h1.81v1.37h-1.81v5.35c0,1.23.24,1.92.95,1.92a2.07,2.07,0,0,0,.73-.12l.06,1.35a2.21,2.21,0,0,1-1.12.25,1.56,1.56,0,0,1-1.37-.76,4.84,4.84,0,0,1-.48-2.58v-5.41h-1.08v-1.37h1.08v-2.38Z"/><path class="cls-41" d="M358.3,241.29v2.85h1.81v1.37H358.3v5.35c0,1.23.25,1.92.95,1.92a2.07,2.07,0,0,0,.73-.12L360,254a2.21,2.21,0,0,1-1.12.25,1.56,1.56,0,0,1-1.37-.76,4.94,4.94,0,0,1-.48-2.58v-5.41H356v-1.37h1.08v-2.38Z"/><path class="cls-41" d="M362.15,249.42c0,2.44,1.12,3.45,2.38,3.45a3.36,3.36,0,0,0,1.92-.52l.22,1.3a4.31,4.31,0,0,1-2.31.61c-2.14,0-3.42-2-3.42-5s1.24-5.35,3.26-5.35c2.27,0,2.87,2.85,2.87,4.67,0,.37,0,.66,0,.84Zm3.7-1.29c0-1.14-.33-2.93-1.75-2.93s-1.84,1.68-1.94,2.93Z"/><path class="cls-41" d="M368.63,247.23c0-1.17,0-2.17-.05-3.09h1.1l.05,1.94h0c.32-1.33,1.08-2.17,1.93-2.17a1,1,0,0,1,.36.06v1.7a1.42,1.42,0,0,0-.44-.06c-.89,0-1.52,1-1.69,2.32a6.75,6.75,0,0,0-.06.84v5.29h-1.25Z"/><path class="cls-41" d="M373.38,239.5h1.27v14.56h-1.27Z"/><path class="cls-41" d="M377.23,244.14l1.52,5.86c.16.65.33,1.43.45,2h0c.13-.6.27-1.36.44-2.07l1.38-5.82h1.34l-1.9,7.07c-.9,3.4-1.52,5.14-2.38,6.21a3.26,3.26,0,0,1-1.55,1.16l-.32-1.51a3.37,3.37,0,0,0,1.11-.88,5.83,5.83,0,0,0,1.06-2,1.66,1.66,0,0,0,.1-.43,2,2,0,0,0-.09-.47l-2.57-9.14Z"/><path class="cls-41" d="M392.58,239.5v12c0,.88,0,1.89.05,2.57H391.5l-.06-1.73h0a2.59,2.59,0,0,1-2.37,1.95c-1.68,0-3-2-3-5,0-3.3,1.42-5.33,3.12-5.33a2.25,2.25,0,0,1,2.09,1.52h0V239.5Zm-1.27,8.67a3.8,3.8,0,0,0-.06-.75c-.18-1.15-.87-2.09-1.82-2.09-1.31,0-2.08,1.63-2.08,3.83,0,2,.69,3.67,2,3.67.85,0,1.63-.8,1.85-2.16a3.76,3.76,0,0,0,.06-.77Z"/><path class="cls-41" d="M395.37,249.42c0,2.44,1.12,3.45,2.39,3.45a3.38,3.38,0,0,0,1.92-.52l.22,1.3a4.32,4.32,0,0,1-2.32.61c-2.14,0-3.41-2-3.41-5s1.23-5.35,3.26-5.35c2.26,0,2.87,2.85,2.87,4.67a7.35,7.35,0,0,1-.05.84Zm3.71-1.29c0-1.14-.33-2.93-1.76-2.93-1.27,0-1.83,1.68-1.93,2.93Z"/><path class="cls-41" d="M401.69,252.21a2.65,2.65,0,0,0,1.66.72,1.32,1.32,0,0,0,1.35-1.48c0-.86-.36-1.33-1.29-1.82a3,3,0,0,1-1.84-2.81c0-1.6.91-2.91,2.4-2.91a2.72,2.72,0,0,1,1.71.62l-.32,1.31a2.13,2.13,0,0,0-1.42-.58,1.21,1.21,0,0,0-1.16,1.36c0,.82.41,1.19,1.32,1.68a3.08,3.08,0,0,1,1.82,3c0,1.74-.95,3-2.6,3a3.07,3.07,0,0,1-1.95-.68Z"/><path class="cls-41" d="M409.06,241.29v2.85h1.81v1.37h-1.81v5.35c0,1.23.25,1.92.95,1.92a2,2,0,0,0,.73-.12l.06,1.35a2.18,2.18,0,0,1-1.12.25,1.53,1.53,0,0,1-1.36-.76,4.83,4.83,0,0,1-.49-2.58v-5.41h-1.08v-1.37h1.08v-2.38Z"/><path class="cls-41" d="M412.29,247.23c0-1.17,0-2.17-.05-3.09h1.1l0,1.94h.06c.32-1.33,1.08-2.17,1.93-2.17a1,1,0,0,1,.35.06v1.7a1.31,1.31,0,0,0-.43-.06c-.89,0-1.52,1-1.69,2.32a6.75,6.75,0,0,0-.06.84v5.29h-1.25Z"/><path class="cls-41" d="M423.13,249c0,3.67-1.78,5.27-3.46,5.27-1.88,0-3.33-2-3.33-5.1,0-3.32,1.52-5.27,3.45-5.27S423.13,246,423.13,249Zm-5.51.11c0,2.17.87,3.81,2.11,3.81s2.11-1.62,2.11-3.85c0-1.68-.59-3.82-2.08-3.82S417.62,247.23,417.62,249.12Z"/><path class="cls-41" d="M425.08,244.14,426.6,250c.16.65.33,1.43.45,2h0c.13-.6.27-1.36.44-2.07l1.38-5.82h1.34l-1.9,7.07c-.9,3.4-1.52,5.14-2.38,6.21a3.26,3.26,0,0,1-1.55,1.16l-.32-1.51a3.37,3.37,0,0,0,1.11-.88,5.83,5.83,0,0,0,1.06-2,1.66,1.66,0,0,0,.1-.43,2,2,0,0,0-.09-.47l-2.57-9.14Z"/><path class="cls-41" d="M431.94,249.42c0,2.44,1.12,3.45,2.39,3.45a3.38,3.38,0,0,0,1.92-.52l.22,1.3a4.32,4.32,0,0,1-2.32.61c-2.14,0-3.41-2-3.41-5s1.23-5.35,3.26-5.35c2.26,0,2.87,2.85,2.87,4.67a7.35,7.35,0,0,1-.05.84Zm3.71-1.29c0-1.14-.33-2.93-1.76-2.93-1.27,0-1.83,1.68-1.93,2.93Z"/><path class="cls-41" d="M444.43,239.5v12c0,.88,0,1.89.06,2.57h-1.14l-.05-1.73h0a2.61,2.61,0,0,1-2.37,1.95c-1.68,0-3-2-3-5,0-3.3,1.42-5.33,3.11-5.33a2.27,2.27,0,0,1,2.1,1.52h0V239.5Zm-1.26,8.67a4.74,4.74,0,0,0-.06-.75c-.19-1.15-.88-2.09-1.82-2.09-1.31,0-2.09,1.63-2.09,3.83,0,2,.69,3.67,2.06,3.67.84,0,1.62-.8,1.85-2.16a4.63,4.63,0,0,0,.06-.77Z"/><path class="cls-41" d="M446.08,253c0-.76.36-1.29.86-1.29s.85.53.85,1.29-.33,1.29-.86,1.29S446.08,253.73,446.08,253Z"/><path class="cls-41" d="M449.05,253c0-.76.36-1.29.86-1.29s.85.53.85,1.29-.33,1.29-.86,1.29S449.05,253.73,449.05,253Z"/><path d="M452,253c0-.76.36-1.29.86-1.29s.85.53.85,1.29-.33,1.29-.86,1.29S452,253.73,452,253Z"/></g></g></svg>
