<svg id="Layer_1" data-name="Layer 1" xmlns="http://www.w3.org/2000/svg" xmlns:xlink="http://www.w3.org/1999/xlink" width="420" height="340" viewBox="0 0 420 340"><defs><style>.cls-1{fill:url(#linear-gradient);}.cls-15,.cls-16,.cls-17,.cls-18,.cls-2,.cls-7,.cls-8{fill:#f97f23;}.cls-3{fill:#ff2a60;}.cls-4,.cls-6{fill:none;}.cls-4,.cls-5,.cls-6{stroke:#ff2a60;}.cls-15,.cls-16,.cls-17,.cls-18,.cls-4,.cls-5,.cls-6,.cls-7,.cls-8{stroke-linecap:round;stroke-miterlimit:10;}.cls-4,.cls-5{stroke-width:17px;}.cls-5{fill:#f7931e;}.cls-6{stroke-width:20px;}.cls-7{stroke-width:11px;stroke:url(#linear-gradient-2);}.cls-8{stroke-width:13px;stroke:url(#linear-gradient-3);}.cls-9{fill:url(#linear-gradient-4);}.cls-10,.cls-11,.cls-12,.cls-13,.cls-14{fill:#514236;}.cls-10{opacity:0.56;}.cls-12{opacity:0.8;}.cls-13{opacity:0.4;}.cls-14{opacity:0.5;}.cls-15,.cls-17,.cls-18{stroke-width:19px;}.cls-15{stroke:url(#radial-gradient);}.cls-16{stroke-width:18px;stroke:url(#radial-gradient-2);}.cls-17{stroke:url(#radial-gradient-3);}.cls-18{stroke:url(#radial-gradient-4);}.cls-19,.cls-20{opacity:0.55;}.cls-19{fill:url(#linear-gradient-5);}.cls-20{fill:url(#linear-gradient-6);}</style><linearGradient id="linear-gradient" x1="78.22" y1="198.59" x2="257.22" y2="198.59" gradientTransform="translate(147.75 -60.58) rotate(35.78)" gradientUnits="userSpaceOnUse"><stop offset="0" stop-color="#c1272d"/><stop offset="0.52" stop-color="#f7931e"/><stop offset="1" stop-color="#f15a24"/></linearGradient><linearGradient id="linear-gradient-2" x1="255.97" y1="166.45" x2="443.13" y2="166.45" gradientTransform="matrix(0.96, 0.03, 0.03, 0.98, -41.33, 29.37)" gradientUnits="userSpaceOnUse"><stop offset="0.1" stop-color="#f47921"/><stop offset="0.5" stop-color="#fcee21"/><stop offset="0.51" stop-color="#fbe621"/><stop offset="0.64" stop-color="#f7aa22"/><stop offset="0.75" stop-color="#f47f23"/><stop offset="0.84" stop-color="#f26424"/><stop offset="0.89" stop-color="#f15a24"/></linearGradient><linearGradient id="linear-gradient-3" x1="209.16" y1="-1.16" x2="398.32" y2="-1.16" gradientTransform="matrix(0.93, 0.05, 0.05, 0.96, -77.89, 58.1)" gradientUnits="userSpaceOnUse"><stop offset="0.1" stop-color="#da5926"/><stop offset="0.5" stop-color="#fcee21"/><stop offset="0.52" stop-color="#fbe621"/><stop offset="0.68" stop-color="#f7aa22"/><stop offset="0.83" stop-color="#f47f23"/><stop offset="0.94" stop-color="#f26424"/><stop offset="1" stop-color="#f15a24"/></linearGradient><linearGradient id="linear-gradient-4" x1="101" y1="202.79" x2="228.5" y2="202.79" gradientUnits="userSpaceOnUse"><stop offset="0" stop-color="#c69c6d"/><stop offset="0.52" stop-color="#8c6239"/><stop offset="1" stop-color="#42210b"/></linearGradient><radialGradient id="radial-gradient" cx="636.41" cy="-200.55" r="86.29" gradientTransform="matrix(0.81, 0.13, 0.14, 0.9, -235.24, 169.88)" gradientUnits="userSpaceOnUse"><stop offset="0" stop-color="#c1272d"/><stop offset="0.18" stop-color="#d1382a"/><stop offset="0.44" stop-color="#e34b27"/><stop offset="0.71" stop-color="#ed5625"/><stop offset="1" stop-color="#f15a24"/></radialGradient><radialGradient id="radial-gradient-2" cx="1082.44" cy="-490.85" r="85.8" gradientTransform="matrix(0.69, 0.23, 0.22, 0.84, -370.19, 272.2)" xlink:href="#radial-gradient"/><radialGradient id="radial-gradient-3" cx="851.4" cy="-281.61" r="86.29" gradientTransform="matrix(0.76, 0.17, 0.17, 0.88, -297.03, 217.37)" xlink:href="#radial-gradient"/><radialGradient id="radial-gradient-4" cx="1123.81" cy="-450.05" r="86.29" gradientTransform="matrix(0.68, 0.24, 0.22, 0.84, -364.15, 272.39)" xlink:href="#radial-gradient"/><linearGradient id="linear-gradient-5" x1="-157.48" y1="150.73" x2="82.75" y2="150.73" gradientTransform="matrix(1.2, 0, 0, 1.17, 211.54, 15.5)" gradientUnits="userSpaceOnUse"><stop offset="0.48" stop-color="#fbb03b"/><stop offset="1" stop-color="#fcee21"/></linearGradient><linearGradient id="linear-gradient-6" x1="-96.35" y1="-48.73" x2="143.88" y2="-48.73" gradientTransform="matrix(1.17, 0.22, -0.22, 1.15, 128.55, 236.19)" gradientUnits="userSpaceOnUse"><stop offset="0.21" stop-color="red"/><stop offset="0.61" stop-color="#fe4d0b"/><stop offset="1" stop-color="#fcee21"/></linearGradient></defs><title>komet i stykker</title><ellipse class="cls-1" cx="167.72" cy="198.59" rx="91" ry="86.5" transform="translate(-84.45 135.53) rotate(-35.78)"/><rect class="cls-2" x="245.25" y="181.67" width="22" height="11" transform="translate(258.29 -130.15) rotate(54.22)"/><circle class="cls-3" cx="164.88" cy="200.63" r="74.5"/><line class="cls-4" x1="211.89" y1="127.32" x2="297" y2="67.5"/><line class="cls-4" x1="237" y1="67.5" x2="187.03" y2="103.94"/><line class="cls-5" x1="283" y1="115.5" x2="229.61" y2="154.34"/><rect class="cls-3" x="239.96" y="187.06" width="31" height="10" transform="matrix(0.58, 0.81, -0.81, 0.58, 261.92, -127.48)"/><line class="cls-4" x1="314" y1="132.5" x2="248.49" y2="179.82"/><line class="cls-4" x1="294" y1="188.5" x2="252.96" y2="218.52"/><line class="cls-6" x1="235.03" y1="130.36" x2="218.69" y2="142.75"/><line class="cls-6" x1="261.16" y1="150.36" x2="239.25" y2="166.15"/><line class="cls-6" x1="271.53" y1="183.56" x2="249.62" y2="199.35"/><line class="cls-7" x1="383" y1="141.5" x2="216.78" y2="262"/><line class="cls-8" x1="284" y1="15.5" x2="126" y2="129.5"/><rect class="cls-3" x="121.29" y="141.04" width="148.5" height="75.53" transform="translate(226.28 -84.37) rotate(54.22)"/><ellipse class="cls-9" cx="164.75" cy="202.79" rx="63.75" ry="62.71"/><ellipse class="cls-10" cx="157" cy="158" rx="22.5" ry="8" transform="translate(-19.01 21.5) rotate(-7.39)"/><ellipse class="cls-11" cx="120" cy="225" rx="8" ry="22.5" transform="translate(-89.94 80.26) rotate(-27.34)"/><ellipse class="cls-12" cx="128.03" cy="185.34" rx="6.21" ry="12.96" transform="translate(-44.65 40.69) rotate(-15.41)"/><ellipse class="cls-10" cx="180.46" cy="195" rx="8" ry="22.5" transform="translate(-36.13 348.89) rotate(-82.61)"/><ellipse class="cls-11" cx="209.43" cy="222.34" rx="12.96" ry="6.21" transform="matrix(0.27, -0.96, 0.96, 0.27, -60.58, 365.15)"/><ellipse class="cls-13" cx="173.46" cy="249" rx="22.5" ry="8" transform="matrix(0.99, -0.13, 0.13, 0.99, -30.58, 24.37)"/><ellipse class="cls-14" cx="165.03" cy="219.34" rx="12.96" ry="6.21" transform="translate(-60.25 62.52) rotate(-18.2)"/><ellipse class="cls-11" cx="202.43" cy="171.34" rx="6.21" ry="12.96" transform="translate(-62.6 181.06) rotate(-42.35)"/><line class="cls-15" x1="319" y1="28.5" x2="192.78" y2="120"/><line class="cls-16" x1="316.5" y1="73" x2="222.78" y2="140"/><line class="cls-17" x1="363" y1="76.5" x2="249.78" y2="158"/><line class="cls-18" x1="344" y1="132.5" x2="252.78" y2="197"/><polygon class="cls-19" points="237.28 320.4 173.87 264.5 123.09 332.08 118.94 248.56 34.29 261.51 91.83 199.3 22.88 150.03 108.41 145.57 95.57 62.94 158.97 118.84 209.76 51.26 213.91 134.78 298.56 121.83 241.02 184.04 309.96 233.31 224.44 237.77 237.28 320.4"/><polygon class="cls-20" points="212.53 325.52 160.9 258.59 98.2 315.29 110 232.5 24.42 229.13 92.73 178.99 34.41 117.51 119.23 129.38 122.32 45.82 173.95 112.75 236.65 56.05 224.85 138.84 310.43 142.21 242.11 192.35 300.44 253.83 215.62 241.96 212.53 325.52"/></svg>
