<svg xmlns="http://www.w3.org/2000/svg" xmlns:xlink="http://www.w3.org/1999/xlink" width="870" height="530" viewBox="0 0 870 530"><defs><style>.cls-1{isolation:isolate;}.cls-2{fill:#fff;opacity:0.43;}.cls-11,.cls-3{fill:none;stroke-miterlimit:10;}.cls-3{stroke-width:7px;stroke:url(#linear-gradient);}.cls-4,.cls-6,.cls-8{mix-blend-mode:overlay;}.cls-5{opacity:0.73;mix-blend-mode:screen;}.cls-6,.cls-8{opacity:0.51;}.cls-6{fill:url(#linear-gradient-2);}.cls-7{fill:url(#linear-gradient-3);}.cls-8{fill:url(#linear-gradient-4);}.cls-9{fill:url(#linear-gradient-5);}.cls-10{fill:#5b2354;}.cls-11{stroke-width:9px;stroke:url(#linear-gradient-6);}.cls-12{fill:url(#linear-gradient-7);}.cls-13{fill:url(#linear-gradient-8);}.cls-14{fill:#ff2a60;}.cls-15{fill:url(#linear-gradient-9);}.cls-16,.cls-17,.cls-18,.cls-19,.cls-20{fill:#514236;}.cls-16{opacity:0.56;}.cls-18{opacity:0.8;}.cls-19{opacity:0.4;}.cls-20{opacity:0.5;}.cls-21,.cls-22{opacity:0.55;}.cls-21{fill:url(#linear-gradient-10);}.cls-22{fill:url(#linear-gradient-11);}</style><linearGradient id="linear-gradient" x1="78.5" y1="265.24" x2="792.5" y2="265.24" gradientUnits="userSpaceOnUse"><stop offset="0" stop-color="#fff"/><stop offset="0" stop-color="#93278f" stop-opacity="0.6"/></linearGradient><linearGradient id="linear-gradient-2" x1="126.97" y1="299.74" x2="256.38" y2="299.74" gradientTransform="matrix(1.21, 0, 0, 1.17, -60.65, 33.74)" gradientUnits="userSpaceOnUse"><stop offset="0.48" stop-color="#fbb03b"/><stop offset="1" stop-color="#fcee21"/></linearGradient><linearGradient id="linear-gradient-3" x1="131.32" y1="299.74" x2="260.73" y2="299.74" xlink:href="#linear-gradient-2"/><linearGradient id="linear-gradient-4" x1="119.34" y1="387.1" x2="224.86" y2="387.1" gradientTransform="matrix(1, 0, 0, 1, 0, 0)" xlink:href="#linear-gradient-2"/><linearGradient id="linear-gradient-5" x1="122.88" y1="387.1" x2="228.41" y2="387.1" gradientTransform="matrix(1, 0, 0, 1, 0, 0)" xlink:href="#linear-gradient-2"/><linearGradient id="linear-gradient-6" x1="696" y1="111.93" x2="749.38" y2="111.93" gradientUnits="userSpaceOnUse"><stop offset="0.01" stop-color="#662d91"/><stop offset="1" stop-color="#ff1d25" stop-opacity="0.6"/></linearGradient><linearGradient id="linear-gradient-7" x1="715.03" y1="111.54" x2="770" y2="111.54" gradientUnits="userSpaceOnUse"><stop offset="0.01" stop-color="#662d91"/><stop offset="1" stop-color="#ff1d25"/></linearGradient><linearGradient id="linear-gradient-8" x1="320.18" y1="277.56" x2="549.03" y2="277.56" gradientTransform="translate(244.29 -201.71) rotate(35.78)" gradientUnits="userSpaceOnUse"><stop offset="0" stop-color="#c1272d"/><stop offset="0.52" stop-color="#f7931e"/><stop offset="1" stop-color="#f15a24"/></linearGradient><linearGradient id="linear-gradient-9" x1="349.3" y1="282.93" x2="512.32" y2="282.93" gradientUnits="userSpaceOnUse"><stop offset="0" stop-color="#c69c6d"/><stop offset="0.52" stop-color="#8c6239"/><stop offset="1" stop-color="#42210b"/></linearGradient><linearGradient id="linear-gradient-10" x1="260.85" y1="165.62" x2="568" y2="165.62" gradientTransform="matrix(1.2, 0, 0, 1.17, -62.18, 76.44)" xlink:href="#linear-gradient-2"/><linearGradient id="linear-gradient-11" x1="405.6" y1="141.6" x2="712.75" y2="141.6" gradientTransform="matrix(1.17, 0.22, -0.22, 1.15, -190.76, -26.77)" gradientUnits="userSpaceOnUse"><stop offset="0.21" stop-color="red"/><stop offset="0.61" stop-color="#fe4d0b"/><stop offset="1" stop-color="#fcee21"/></linearGradient></defs><title>levelcomplete</title><g class="cls-1"><g id="Layer_1" data-name="Layer 1"><rect class="cls-2" x="4.5" y="2.83" width="861" height="524.34" rx="12"/><rect class="cls-3" x="82" y="61.24" width="707" height="408"/><g class="cls-4"><image class="cls-5" width="247" height="231" transform="translate(50 269.24)" xlink:href="levelcomplete1.png"/><polygon class="cls-6" points="224.97 450.87 174.91 429.72 128.16 457.31 133.9 405.08 92.26 371.13 145.86 360 166.88 311.43 194.27 356.78 248.9 360.71 212.22 399.87 224.97 450.87"/><polygon class="cls-7" points="230.22 450.86 180.17 429.71 133.42 457.3 139.16 405.07 97.52 371.12 151.12 359.99 172.14 311.42 199.53 356.77 254.16 360.7 217.48 399.86 230.22 450.86"/></g><image class="cls-5" width="194" height="186" transform="translate(77 294.24)" xlink:href="levelcomplete2.png"/><polygon class="cls-8" points="208.87 433.52 175.11 418.72 143.66 437.85 147.44 401.5 119.34 377.8 155.44 370.13 169.53 336.35 188.05 367.96 224.86 370.79 200.21 397.99 208.87 433.52"/><polygon class="cls-9" points="212.42 433.52 178.66 418.72 147.2 437.85 150.99 401.5 122.88 377.8 158.98 370.13 173.07 336.35 191.59 367.96 228.41 370.79 203.75 397.99 212.42 433.52"/><path class="cls-10" d="M147.43,389.79l6.81-.65.12,1.28-6.81.65Zm2.8.52,1.36-.13.85,8.78-1.35.13Z"/><path class="cls-10" d="M154.9,391.84l1.36-.13.67,6.82-1.36.13Zm3.47,1a1.48,1.48,0,0,0-.64-.05,1.41,1.41,0,0,0-1,.44,1.35,1.35,0,0,0-.26,1l-.26-1.3a2.45,2.45,0,0,1,.73-1,2,2,0,0,1,1.08-.44,2.76,2.76,0,0,1,.87.05,1.9,1.9,0,0,1,.7.34l-.76,1.26A1.26,1.26,0,0,0,158.37,392.81Z"/><path class="cls-10" d="M160,391.35l1.38-.13,2.7,5.73-.61,1.52Zm6.1-.58-2.11,8.7a2,2,0,0,1-.35.78,1.37,1.37,0,0,1-.6.45,2.77,2.77,0,0,1-.91.21l-.28,0-.12-1.29.27,0a1,1,0,0,0,.59-.21,1.2,1.2,0,0,0,.33-.55l1.8-8Z"/><path class="cls-10" d="M173.74,392.56a1.44,1.44,0,0,0-.47-1,1.36,1.36,0,0,0-1.06-.28,3.06,3.06,0,0,0-.79.2,2.38,2.38,0,0,0-.67.42l-1.06-.58a2.71,2.71,0,0,1,1-.82,3.81,3.81,0,0,1,1.4-.4,3.36,3.36,0,0,1,1.49.16,2.1,2.1,0,0,1,1,.78,2.77,2.77,0,0,1,.45,1.34l.43,4.39-1.29.12Zm-3.21,4.25a2,2,0,0,1-.79-1.53,1.9,1.9,0,0,1,.43-1.57,2.6,2.6,0,0,1,1.7-.68l1.95-.18.2,1.07-2,.19a1.2,1.2,0,0,0-.77.31.91.91,0,0,0-.2.74.9.9,0,0,0,.43.73,1.75,1.75,0,0,0,1.08.15,3.16,3.16,0,0,0,1.14-.27.55.55,0,0,0,.34-.55l.23.95a1.46,1.46,0,0,1-.4.49,2,2,0,0,1-.58.33,3.26,3.26,0,0,1-.77.16A2.93,2.93,0,0,1,170.53,396.81Z"/><path class="cls-10" d="M178.38,396.28a2.17,2.17,0,0,1-.91-.87,3.69,3.69,0,0,1-.42-1.48l-.15-1.5a3.72,3.72,0,0,1,.13-1.53,2,2,0,0,1,.7-1,2.24,2.24,0,0,1,1.22-.44,2.08,2.08,0,0,1,1.15.21,2.22,2.22,0,0,1,.9.8v1.41a1.75,1.75,0,0,0-.23-.73,1.16,1.16,0,0,0-.51-.42,1.5,1.5,0,0,0-.75-.09,1.31,1.31,0,0,0-1,.51,1.69,1.69,0,0,0-.25,1.2l.14,1.48a1.69,1.69,0,0,0,.48,1.12,1.38,1.38,0,0,0,1.08.3,1.54,1.54,0,0,0,.72-.24,1.06,1.06,0,0,0,.41-.52,1.59,1.59,0,0,0,.09-.77l.23,1.43a1.92,1.92,0,0,1-.59.91,1.86,1.86,0,0,1-1.12.45A2.46,2.46,0,0,1,178.38,396.28Zm.93,2.92-.64-.23a2.25,2.25,0,0,1-1-.71l.83-.91a1.82,1.82,0,0,0,.69.49,1.71,1.71,0,0,0,.8.13,1.47,1.47,0,0,0,1.46-1.78l-.66-6.82,1.35-.13.65,6.62a3.49,3.49,0,0,1-.19,1.65,2.33,2.33,0,0,1-.92,1.11,3.35,3.35,0,0,1-1.56.5Z"/><path class="cls-10" d="M188.31,391.17a1.44,1.44,0,0,0-.47-1,1.36,1.36,0,0,0-1.06-.28,2.72,2.72,0,0,0-.79.21,2.15,2.15,0,0,0-.67.41l-1.06-.58a2.71,2.71,0,0,1,1-.82,3.81,3.81,0,0,1,1.4-.4,3.36,3.36,0,0,1,1.49.16,2.1,2.1,0,0,1,1,.78,2.77,2.77,0,0,1,.45,1.34l.43,4.39-1.29.12Zm-3.21,4.25a2,2,0,0,1-.79-1.53,1.9,1.9,0,0,1,.43-1.57,2.6,2.6,0,0,1,1.7-.68l2-.18.19,1.07-2,.19a1.2,1.2,0,0,0-.77.31,1.05,1.05,0,0,0,.23,1.48,1.83,1.83,0,0,0,1.08.14,3.16,3.16,0,0,0,1.14-.27.54.54,0,0,0,.34-.55l.23.95a1.46,1.46,0,0,1-.4.49,1.83,1.83,0,0,1-.58.33,3.26,3.26,0,0,1-.77.16A2.93,2.93,0,0,1,185.1,395.42Z"/><path class="cls-10" d="M191.14,385.62l1.36-.13.13,1.35-1.36.12Zm.27,2.74,1.35-.13.67,6.82-1.35.13Z"/><path class="cls-10" d="M194.82,388l1.36-.13.66,6.83-1.35.13Zm4.45,2.29a1.57,1.57,0,0,0-.49-1.08,1.38,1.38,0,0,0-1.1-.29,1.44,1.44,0,0,0-1,.44,1.32,1.32,0,0,0-.27,1l-.26-1.3a2.36,2.36,0,0,1,.74-1,2.09,2.09,0,0,1,1.1-.44,2.19,2.19,0,0,1,1.81.56,3.07,3.07,0,0,1,.81,2l.41,4.14-1.36.13Z"/><path class="cls-10" d="M202,384.59l1.36-.13.69,7.11-1.35.13Zm.81,8.22,1.35-.13.13,1.34-1.35.13Z"/><rect class="cls-11" x="700.5" y="80.13" width="44.38" height="63.61" rx="11.87"/><polygon class="cls-12" points="770 111.97 741.43 84.27 741.43 96.82 715.03 96.82 715.03 125.39 741.43 125.39 741.43 138.81 770 111.97"/><ellipse class="cls-13" cx="434.61" cy="277.56" rx="116.35" ry="110.59" transform="translate(-80.26 306.47) rotate(-35.78)"/><circle class="cls-14" cx="430.98" cy="280.17" r="95.25"/><ellipse class="cls-15" cx="430.81" cy="282.93" rx="81.51" ry="80.18"/><ellipse class="cls-16" cx="420.9" cy="225.67" rx="28.77" ry="10.23" transform="translate(-25.52 55.99) rotate(-7.39)"/><ellipse class="cls-17" cx="373.6" cy="311.33" rx="10.23" ry="28.77" transform="translate(-101.26 206.39) rotate(-27.34)"/><ellipse class="cls-18" cx="383.86" cy="260.63" rx="7.94" ry="16.57" transform="translate(-55.46 111.38) rotate(-15.41)"/><ellipse class="cls-16" cx="450.89" cy="272.97" rx="10.23" ry="28.77" transform="translate(122.21 685.02) rotate(-82.61)"/><ellipse class="cls-17" cx="487.93" cy="307.93" rx="16.57" ry="7.94" transform="translate(61.41 696.49) rotate(-74.59)"/><ellipse class="cls-19" cx="441.94" cy="342.01" rx="28.77" ry="10.23" transform="translate(-40.31 59.66) rotate(-7.39)"/><ellipse class="cls-20" cx="431.17" cy="304.1" rx="16.57" ry="7.94" transform="translate(-73.41 149.89) rotate(-18.2)"/><ellipse class="cls-17" cx="478.98" cy="242.73" rx="7.94" ry="16.57" transform="translate(-38.53 385.98) rotate(-42.35)"/><polygon class="cls-21" points="523.55 433.3 442.47 361.83 377.55 448.24 372.24 341.45 264.01 358 337.57 278.47 249.43 215.47 358.77 209.77 342.36 104.12 423.43 175.6 488.35 89.19 493.66 195.97 601.89 179.42 528.33 258.96 616.47 321.96 507.13 327.66 523.55 433.3"/><polygon class="cls-22" points="491.9 439.85 425.88 354.27 345.72 426.76 360.81 320.92 251.4 316.6 338.74 252.5 264.17 173.9 372.61 189.07 376.56 82.23 442.57 167.81 522.73 95.32 507.65 201.16 617.06 205.48 529.72 269.59 604.29 348.19 495.85 333.01 491.9 439.85"/><path class="cls-10" d="M385.77,298.92l23.86-31.82a23.74,23.74,0,0,0,3.22-5.67A15.05,15.05,0,0,0,414,256v-.1a8.3,8.3,0,0,0-2.4-6.35,9.59,9.59,0,0,0-6.82-2.26,9.46,9.46,0,0,0-6.78,2.47,11.29,11.29,0,0,0-3.15,7v.05h-9.93v-.05a25.55,25.55,0,0,1,3.46-10,17.63,17.63,0,0,1,6.75-6.35,20.15,20.15,0,0,1,9.56-2.19,23.73,23.73,0,0,1,10.44,2.1,14.6,14.6,0,0,1,6.59,6.09A19.29,19.29,0,0,1,424,256V256a21.3,21.3,0,0,1-1.5,7.57,32.72,32.72,0,0,1-4.19,7.63l-19.82,26.92h25.89v9.13H385.77Z"/><path class="cls-10" d="M448.55,308l-4.38-2.1a17.32,17.32,0,0,1-7-6.07,21.78,21.78,0,0,1-3.37-9.58h9.79a10.29,10.29,0,0,0,1.84,4.8,8.42,8.42,0,0,0,3.64,2.8,13.8,13.8,0,0,0,5.25.92q4.75,0,7.39-2.54a9.47,9.47,0,0,0,2.64-7.15V287q0-5.13-2.5-7.93a9,9,0,0,0-7.06-2.8h-4.84V267.1h4.84a8,8,0,0,0,6.22-2.4,9.66,9.66,0,0,0,2.21-6.78v-2.11a8.22,8.22,0,0,0-2.33-6.26,9.22,9.22,0,0,0-6.61-2.21,10.06,10.06,0,0,0-4.38.91,8.41,8.41,0,0,0-3.27,2.83,12.82,12.82,0,0,0-2,4.77H434.9a24.85,24.85,0,0,1,3.56-9.6,17.37,17.37,0,0,1,6.61-6.07,19.65,19.65,0,0,1,9.18-2.07q8.83,0,13.69,4.66t4.85,13.13V257A14.78,14.78,0,0,1,470,266a15.69,15.69,0,0,1-7.86,5.56,13.93,13.93,0,0,1,8.69,5.5A18.29,18.29,0,0,1,473.92,288v1.13a21,21,0,0,1-2.31,10.21,15.2,15.2,0,0,1-6.7,6.45A23.4,23.4,0,0,1,454.29,308Z"/></g></g></svg>
