<svg id="Layer_1" data-name="Layer 1" xmlns="http://www.w3.org/2000/svg" xmlns:xlink="http://www.w3.org/1999/xlink" width="80" height="240" viewBox="0 0 80 240"><defs><style>.cls-1{fill:url(#linear-gradient);}.cls-2{fill:url(#linear-gradient-2);}.cls-3{fill:url(#linear-gradient-3);}.cls-4{fill:url(#linear-gradient-4);}.cls-5{fill:url(#linear-gradient-5);}.cls-6{fill:#edb072;}.cls-7{fill:#fff;}.cls-8{fill:none;}.cls-10,.cls-8{stroke:#000;stroke-miterlimit:10;}.cls-9{fill:#e874a4;}.cls-10{fill:#050505;stroke-width:0.75px;}.cls-11{opacity:0.4;}.cls-12{fill:#d35454;}.cls-13,.cls-14{fill:#f78146;}.cls-14{opacity:0.82;}.cls-15{fill:url(#linear-gradient-6);}.cls-16{fill:url(#linear-gradient-7);}.cls-17{fill:url(#linear-gradient-8);}.cls-18{fill:url(#linear-gradient-9);}.cls-19{fill:url(#linear-gradient-10);}.cls-20{fill:url(#linear-gradient-11);}.cls-21{fill:url(#linear-gradient-12);}.cls-22{fill:url(#linear-gradient-13);}.cls-23{fill:url(#linear-gradient-14);}.cls-24{fill:url(#linear-gradient-15);}</style><linearGradient id="linear-gradient" x1="10.49" y1="95.68" x2="34.31" y2="95.68" gradientUnits="userSpaceOnUse"><stop offset="0" stop-color="#fff"/><stop offset="1" stop-color="#666"/></linearGradient><linearGradient id="linear-gradient-2" x1="12.68" y1="107.3" x2="12.9" y2="107.3" xlink:href="#linear-gradient"/><linearGradient id="linear-gradient-3" x1="67.57" y1="110.67" x2="67.78" y2="110.67" xlink:href="#linear-gradient"/><linearGradient id="linear-gradient-4" x1="48.65" y1="98.91" x2="71.25" y2="98.91" xlink:href="#linear-gradient"/><linearGradient id="linear-gradient-5" x1="-46.04" y1="-189.03" x2="19.85" y2="-189.03" gradientTransform="translate(0.7 306.39) rotate(16.09)" xlink:href="#linear-gradient"/><linearGradient id="linear-gradient-6" x1="9.49" y1="165.68" x2="33.31" y2="165.68" xlink:href="#linear-gradient"/><linearGradient id="linear-gradient-7" x1="11.68" y1="177.3" x2="11.9" y2="177.3" xlink:href="#linear-gradient"/><linearGradient id="linear-gradient-8" x1="66.57" y1="180.67" x2="66.78" y2="180.67" xlink:href="#linear-gradient"/><linearGradient id="linear-gradient-9" x1="47.65" y1="168.91" x2="70.25" y2="168.91" xlink:href="#linear-gradient"/><linearGradient id="linear-gradient-10" x1="-27.6" y1="-121.5" x2="38.29" y2="-121.5" gradientTransform="translate(0.7 306.39) rotate(16.09)" xlink:href="#linear-gradient"/><linearGradient id="linear-gradient-11" x1="11.49" y1="29.68" x2="35.31" y2="29.68" xlink:href="#linear-gradient"/><linearGradient id="linear-gradient-12" x1="13.68" y1="41.3" x2="13.9" y2="41.3" xlink:href="#linear-gradient"/><linearGradient id="linear-gradient-13" x1="68.57" y1="44.67" x2="68.78" y2="44.67" xlink:href="#linear-gradient"/><linearGradient id="linear-gradient-14" x1="49.65" y1="32.91" x2="72.25" y2="32.91" xlink:href="#linear-gradient"/><linearGradient id="linear-gradient-15" x1="-63.37" y1="-252.72" x2="2.52" y2="-252.72" gradientTransform="translate(0.7 306.39) rotate(16.09)" xlink:href="#linear-gradient"/></defs><title>liv</title><path class="cls-1" d="M29.31,90.09a32.09,32.09,0,0,0-5.89-3.74l-5.37-2.28a2.21,2.21,0,0,0-2.47,1.17,20.41,20.41,0,0,0-1.29,2.64l-1.7,4.64C11.78,94,11.07,97.64,10.84,99c-.6,1.06-.58,9.11,1.31,8.32l.54,0a6.41,6.41,0,0,1,.69-1.08l3.46-2L28,98.54l6.24-2.38a.25.25,0,0,0,.08,0C34.66,95.63,31.93,92.36,29.31,90.09Z"/><path class="cls-2" d="M12.9,107.24h-.21C12.66,107.37,12.69,107.41,12.9,107.24Z"/><path class="cls-3" d="M67.78,110.65l-.21-.05C67.75,110.8,67.79,110.78,67.78,110.65Z"/><path class="cls-4" d="M71.19,102.78c0-1.34,0-5.09-.48-6.62l-.78-4.84a20.91,20.91,0,0,0-.76-2.81A2.14,2.14,0,0,0,67,87l-5.72,1.38a33.69,33.69,0,0,0-6.53,2.76c-3,1.81-6.33,4.6-6.05,5.13a.19.19,0,0,0,.07.06l5.68,3.34,9.87,7.29,3,2.53a6.33,6.33,0,0,1,.48,1.19l.52.11C70,111.83,71.58,103.92,71.19,102.78Z"/><path class="cls-5" d="M41.16,94.56c-18.83.23-34.25,12.76-34.46,27.79-.1,7.67,3.78,14.39,10.1,19.26a16.22,16.22,0,0,0,5,2.58c5.46,1.74,11.62-1.13,18.53-1.21,7.06-.09,16.25,2.73,21.73-.27,2.57-1.41,2.35-1.69,4.37-3.58,5.16-4.82,6.68-10,6.77-16.7C73.43,107.4,60,94.33,41.16,94.56Zm-8,32.1c.24.53.49.52,1,.52C33.62,127.18,33.37,127.19,33.13,126.66Z"/><path class="cls-6" d="M40.92,100.55c-13.59.12-24.76,9.16-24.94,20.08-.1,5.57,2.68,10.46,7.23,14a11.9,11.9,0,0,0,3.62,1.88c3.94,1.28,8.39-.78,13.39-.82s11.71,2,15.68-.14c1.86-1,1.7-1.21,3.16-2.58,3.74-3.49,4.84-7.21,4.93-12.11C64.18,110,54.5,100.44,40.92,100.55Z"/><ellipse cx="31.71" cy="114.44" rx="3.3" ry="3.12" transform="translate(-86.98 118.28) rotate(-76.37)"/><path class="cls-7" d="M28.82,115.39a3.27,3.27,0,0,1,.28-1.59,3.07,3.07,0,0,1,1.52-1.59,3,3,0,0,1,1-.26h.3a.69.69,0,0,0,.21,0h.29c.76.09,1.22.34,1,.51a6.37,6.37,0,0,0-.76.8,11.13,11.13,0,0,1-3.79,2.14c-.22.07.41-1,3.06-3.45"/><ellipse cx="49.21" cy="114.82" rx="3.3" ry="3.12" transform="translate(-73.97 135.58) rotate(-76.37)"/><path class="cls-7" d="M46.32,115.76a3.23,3.23,0,0,1,.28-1.58,3,3,0,0,1,2.48-1.86h.3a.69.69,0,0,0,.21,0h.29c.76.1,1.22.35,1,.52a6.37,6.37,0,0,0-.76.8,11,11,0,0,1-3.79,2.13c-.22.08.41-1,3.06-3.44"/><path class="cls-8" d="M35.21,122.31a2.42,2.42,0,0,0,2.33,2.47A2.6,2.6,0,0,0,40,122.13"/><path class="cls-8" d="M40,121.84a2.47,2.47,0,0,0,1.85,2.88,2.53,2.53,0,0,0,2.83-2.15"/><path class="cls-9" d="M40,122.39s-1.6-1.36-1.46-2.09c.07-.38,2.5-.28,2.5-.28a.37.37,0,0,1,.36.25.67.67,0,0,1-.12.54,10.18,10.18,0,0,1-1.14,1.48C40,122.39,40,122.42,40,122.39Z"/><line class="cls-10" x1="20.42" y1="121.51" x2="26.85" y2="121.09"/><line class="cls-10" x1="20.73" y1="124.61" x2="26.96" y2="122.72"/><line class="cls-10" x1="59.74" y1="121.44" x2="53.32" y2="121.13"/><line class="cls-10" x1="59.33" y1="124.55" x2="53.16" y2="122.76"/><g class="cls-11"><ellipse class="cls-12" cx="30.06" cy="123.4" rx="3.3" ry="3.12" transform="translate(-96.95 123.52) rotate(-76.37)"/></g><g class="cls-11"><ellipse class="cls-12" cx="49.33" cy="122.45" rx="3.3" ry="3.12" transform="translate(-81.29 141.52) rotate(-76.37)"/></g><path class="cls-13" d="M33.05,101.65l0,3.29,1.45,2.91L36,104.92l.06-3.94A29.84,29.84,0,0,0,33.05,101.65Z"/><path class="cls-14" d="M41.82,100.54h-.15c-1,0-1.91.07-2.85.16l0,2.61,1.45,2.91,1.55-2.93Z"/><path class="cls-14" d="M47.06,101.27,47,104.56l-1.55,2.93L44,104.59l.07-3.94C45.1,100.81,46.09,101,47.06,101.27Z"/><path class="cls-15" d="M28.31,160.09a32.09,32.09,0,0,0-5.89-3.74l-5.37-2.28a2.21,2.21,0,0,0-2.47,1.17,20.41,20.41,0,0,0-1.29,2.64l-1.7,4.64c-.81,1.43-1.52,5.12-1.75,6.44-.6,1.06-.58,9.11,1.31,8.32l.54,0a6.41,6.41,0,0,1,.69-1.08l3.46-2L27,168.54l6.24-2.38a.25.25,0,0,0,.08,0C33.66,165.63,30.93,162.36,28.31,160.09Z"/><path class="cls-16" d="M11.9,177.24h-.21C11.66,177.37,11.69,177.41,11.9,177.24Z"/><path class="cls-17" d="M66.78,180.65l-.21-.05C66.75,180.8,66.79,180.78,66.78,180.65Z"/><path class="cls-18" d="M70.19,172.78c0-1.34,0-5.09-.48-6.62l-.78-4.84a20.91,20.91,0,0,0-.76-2.81A2.14,2.14,0,0,0,66,157l-5.72,1.38a33.69,33.69,0,0,0-6.53,2.76c-3,1.81-6.33,4.6-6.05,5.13a.19.19,0,0,0,.07.06l5.68,3.34,9.87,7.29,3,2.53a6.33,6.33,0,0,1,.48,1.19l.52.11C69,181.83,70.58,173.92,70.19,172.78Z"/><path class="cls-19" d="M40.16,164.56c-18.83.23-34.25,12.76-34.46,27.79-.1,7.67,3.78,14.39,10.1,19.26a16.22,16.22,0,0,0,5,2.58c5.46,1.74,11.62-1.13,18.53-1.21,7.06-.09,16.25,2.73,21.73-.27,2.57-1.41,2.35-1.69,4.37-3.58,5.16-4.82,6.68-10,6.77-16.7C72.43,177.4,59,164.33,40.16,164.56Zm-8,32.1c.24.53.49.52,1,.52C32.62,197.18,32.37,197.19,32.13,196.66Z"/><path class="cls-6" d="M39.92,170.55c-13.59.12-24.76,9.16-24.94,20.08-.1,5.57,2.68,10.46,7.23,14a11.9,11.9,0,0,0,3.62,1.88c3.94,1.28,8.39-.78,13.39-.82s11.71,2,15.68-.14c1.86-1,1.7-1.21,3.16-2.58,3.74-3.49,4.84-7.21,4.93-12.11C63.18,180,53.5,170.44,39.92,170.55Z"/><ellipse cx="30.71" cy="184.44" rx="3.3" ry="3.12" transform="translate(-155.77 170.81) rotate(-76.37)"/><path class="cls-7" d="M27.82,185.39a3.27,3.27,0,0,1,.28-1.59,3.07,3.07,0,0,1,1.52-1.59,3,3,0,0,1,1-.26h.3a.69.69,0,0,0,.21,0h.29c.76.09,1.22.34,1,.51a6.37,6.37,0,0,0-.76.8,11.13,11.13,0,0,1-3.79,2.14c-.22.07.41-1,3.06-3.45"/><ellipse cx="48.21" cy="184.82" rx="3.3" ry="3.12" transform="translate(-142.76 188.1) rotate(-76.37)"/><path class="cls-7" d="M45.32,185.76a3.23,3.23,0,0,1,.28-1.58,3,3,0,0,1,2.48-1.86h.3a.69.69,0,0,0,.21,0h.29c.76.1,1.22.35,1,.52a6.37,6.37,0,0,0-.76.8,11,11,0,0,1-3.79,2.13c-.22.08.41-1,3.06-3.44"/><path class="cls-8" d="M34.21,192.31a2.42,2.42,0,0,0,2.33,2.47A2.6,2.6,0,0,0,39,192.13"/><path class="cls-8" d="M39,191.84a2.47,2.47,0,0,0,1.85,2.88,2.53,2.53,0,0,0,2.83-2.15"/><path class="cls-9" d="M39,192.39s-1.6-1.36-1.46-2.09c.07-.38,2.5-.28,2.5-.28a.37.37,0,0,1,.36.25.67.67,0,0,1-.12.54,10.18,10.18,0,0,1-1.14,1.48C39,192.39,39,192.42,39,192.39Z"/><line class="cls-10" x1="19.42" y1="191.51" x2="25.85" y2="191.09"/><line class="cls-10" x1="19.73" y1="194.61" x2="25.96" y2="192.72"/><line class="cls-10" x1="58.74" y1="191.44" x2="52.32" y2="191.13"/><line class="cls-10" x1="58.33" y1="194.55" x2="52.16" y2="192.76"/><g class="cls-11"><ellipse class="cls-12" cx="29.06" cy="193.4" rx="3.3" ry="3.12" transform="translate(-165.74 176.05) rotate(-76.37)"/></g><g class="cls-11"><ellipse class="cls-12" cx="48.33" cy="192.45" rx="3.3" ry="3.12" transform="translate(-150.09 194.05) rotate(-76.37)"/></g><path class="cls-13" d="M32.05,171.65l0,3.29,1.45,2.91L35,174.92l.06-3.94A29.84,29.84,0,0,0,32.05,171.65Z"/><path class="cls-14" d="M40.82,170.54h-.15c-1,0-1.91.07-2.85.16l0,2.61,1.45,2.91,1.55-2.93Z"/><path class="cls-14" d="M46.06,171.27,46,174.56l-1.55,2.93L43,174.59l.07-3.94C44.1,170.81,45.09,171,46.06,171.27Z"/><path class="cls-20" d="M30.31,24.09a32.09,32.09,0,0,0-5.89-3.74l-5.37-2.28a2.21,2.21,0,0,0-2.47,1.17,20.41,20.41,0,0,0-1.29,2.64l-1.7,4.64C12.78,28,12.07,31.64,11.84,33c-.6,1.06-.58,9.11,1.31,8.32l.54,0a6.41,6.41,0,0,1,.69-1.08l3.46-2L29,32.54l6.24-2.38a.25.25,0,0,0,.08-.05C35.66,29.63,32.93,26.36,30.31,24.09Z"/><path class="cls-21" d="M13.9,41.24h-.21C13.66,41.37,13.69,41.41,13.9,41.24Z"/><path class="cls-22" d="M68.78,44.65l-.21,0C68.75,44.8,68.79,44.78,68.78,44.65Z"/><path class="cls-23" d="M72.19,36.78c0-1.34,0-5.09-.48-6.62l-.78-4.84a20.91,20.91,0,0,0-.76-2.81A2.14,2.14,0,0,0,68,21l-5.72,1.38a33.69,33.69,0,0,0-6.53,2.76c-3,1.81-6.33,4.6-6.05,5.13a.19.19,0,0,0,.07.06l5.68,3.34,9.87,7.29,3,2.53a6.33,6.33,0,0,1,.48,1.19l.52.11C71,45.83,72.58,37.92,72.19,36.78Z"/><path class="cls-24" d="M42.16,28.56C23.33,28.79,7.91,41.32,7.7,56.35,7.6,64,11.48,70.74,17.8,75.61a16.22,16.22,0,0,0,5,2.58c5.46,1.74,11.62-1.13,18.53-1.21,7.06-.09,16.25,2.73,21.73-.27,2.57-1.41,2.35-1.69,4.37-3.58,5.16-4.82,6.68-10,6.77-16.7C74.43,41.4,61,28.33,42.16,28.56Zm-8,32.1c.24.53.49.52,1,.52C34.62,61.18,34.37,61.19,34.13,60.66Z"/><path class="cls-6" d="M41.92,34.55C28.33,34.67,17.16,43.71,17,54.63c-.1,5.57,2.68,10.46,7.23,14a11.9,11.9,0,0,0,3.62,1.88c3.94,1.28,8.39-.78,13.39-.82s11.71,2,15.68-.14c1.86-1,1.7-1.21,3.16-2.58C63.8,63.5,64.9,59.78,65,54.88,65.18,44,55.5,34.44,41.92,34.55Z"/><ellipse cx="32.71" cy="48.44" rx="3.3" ry="3.12" transform="translate(-22.07 68.81) rotate(-76.37)"/><path class="cls-7" d="M29.82,49.39a3.27,3.27,0,0,1,.28-1.59,3.07,3.07,0,0,1,1.52-1.59,3,3,0,0,1,1-.26h.3a.69.69,0,0,0,.21,0h.29c.76.09,1.22.34,1,.51a6.37,6.37,0,0,0-.76.8,11.13,11.13,0,0,1-3.79,2.14c-.22.07.41-1,3.06-3.45"/><ellipse cx="50.21" cy="48.82" rx="3.3" ry="3.12" transform="translate(-9.07 86.11) rotate(-76.37)"/><path class="cls-7" d="M47.32,49.76a3.23,3.23,0,0,1,.28-1.58,3,3,0,0,1,2.48-1.86h.3a.69.69,0,0,0,.21,0h.29c.76.1,1.22.35,1,.52a6.37,6.37,0,0,0-.76.8,11,11,0,0,1-3.79,2.13c-.22.08.41-1,3.06-3.44"/><path class="cls-8" d="M36.21,56.31a2.42,2.42,0,0,0,2.33,2.47A2.6,2.6,0,0,0,41,56.13"/><path class="cls-8" d="M41,55.84a2.47,2.47,0,0,0,1.85,2.88,2.53,2.53,0,0,0,2.83-2.15"/><path class="cls-9" d="M41,56.39S39.35,55,39.49,54.3C39.56,53.92,42,54,42,54a.37.37,0,0,1,.36.25.67.67,0,0,1-.12.54,10.18,10.18,0,0,1-1.14,1.48C41,56.39,41,56.42,41,56.39Z"/><line class="cls-10" x1="21.42" y1="55.51" x2="27.85" y2="55.09"/><line class="cls-10" x1="21.73" y1="58.61" x2="27.96" y2="56.72"/><line class="cls-10" x1="60.74" y1="55.44" x2="54.32" y2="55.13"/><line class="cls-10" x1="60.33" y1="58.55" x2="54.16" y2="56.76"/><g class="cls-11"><ellipse class="cls-12" cx="31.06" cy="57.4" rx="3.3" ry="3.12" transform="translate(-32.04 74.05) rotate(-76.37)"/></g><g class="cls-11"><ellipse class="cls-12" cx="50.33" cy="56.45" rx="3.3" ry="3.12" transform="translate(-16.39 92.05) rotate(-76.37)"/></g><path class="cls-13" d="M34.05,35.65l0,3.29,1.45,2.91L37,38.92,37.06,35A29.84,29.84,0,0,0,34.05,35.65Z"/><path class="cls-14" d="M42.82,34.54h-.15c-1,0-1.91.07-2.85.16l0,2.61,1.45,2.91,1.55-2.93Z"/><path class="cls-14" d="M48.06,35.27,48,38.56l-1.55,2.93L45,38.59l.07-3.94C46.1,34.81,47.09,35,48.06,35.27Z"/></svg>
