<svg id="Layer_1" data-name="Layer 1" xmlns="http://www.w3.org/2000/svg" xmlns:xlink="http://www.w3.org/1999/xlink" width="80" height="80" viewBox="0 0 80 80"><defs><style>.cls-1{filter:url(#AI_BevelShadow_1);}.cls-2{fill:url(#linear-gradient);}.cls-3,.cls-4,.cls-5{fill:none;stroke-miterlimit:10;}.cls-3{stroke:url(#linear-gradient-2);}.cls-4{stroke:url(#linear-gradient-3);}.cls-5{stroke:url(#linear-gradient-4);}</style><filter id="AI_BevelShadow_1" x="-20" y="-20" width="140" height="140" name="AI_BevelShadow_1"><feGaussianBlur result="blur" stdDeviation="4" in="SourceAlpha"/><feOffset result="offsetBlur" dx="4" dy="4" in="blur"/><feSpecularLighting result="specOut" surfaceScale="5" specularExponent="10" in="blur"><fePointLight x="-5000" y="-10000" z="-20000"/></feSpecularLighting><feComposite result="specOut" operator="in" in="specOut" in2="SourceAlpha"/><feComposite result="litPaint" operator="arithmetic" k2="1" k3="1" in="SourceGraphic" in2="specOut"/><feMerge><feMergeNode in="offsetBlur"/><feMergeNode in="litPaint"/></feMerge></filter><linearGradient id="linear-gradient" x1="13" y1="38" x2="39" y2="38" gradientUnits="userSpaceOnUse"><stop offset="0" stop-color="#fff"/><stop offset="1"/></linearGradient><linearGradient id="linear-gradient-2" x1="44" y1="38.4" x2="49" y2="38.4" xlink:href="#linear-gradient"/><linearGradient id="linear-gradient-3" x1="49.82" y1="37.5" x2="57" y2="37.5" xlink:href="#linear-gradient"/><linearGradient id="linear-gradient-4" x1="59.85" y1="54.66" x2="67.82" y2="54.66" gradientTransform="translate(-4.61 -15.64) rotate(-1.36)" xlink:href="#linear-gradient"/></defs><title>lyd</title><g class="cls-1"><path class="cls-2" d="M39,20.5l-10.65,9H16.8A3.81,3.81,0,0,0,13,33.3V43.7a3.81,3.81,0,0,0,3.8,3.8H28.2a3.76,3.76,0,0,0,1.12-.19L39,55.5Z"/><path class="cls-3" d="M44,24.8c1.1,0,4.5,4.69,4.5,12.2S45.1,52,44,52"/><path class="cls-4" d="M49.82,20.5c1.38,0,6.68,6.11,6.68,15.5s-5.3,18.5-6.68,18.5"/><path class="cls-5" d="M56.07,18.59c1.54,0,7.63,6.65,7.87,17.15s-5.43,20.81-7,20.84"/></g></svg>
