<svg id="Layer_1" data-name="Layer 1" xmlns="http://www.w3.org/2000/svg" xmlns:xlink="http://www.w3.org/1999/xlink" width="95" height="70" viewBox="0 0 95 70"><defs><style>.cls-1{fill:url(#linear-gradient);}.cls-2,.cls-3,.cls-4{fill:none;stroke-miterlimit:10;}.cls-2{stroke:url(#linear-gradient-2);}.cls-3{stroke:url(#linear-gradient-3);}.cls-4{stroke:url(#linear-gradient-4);}</style><linearGradient id="linear-gradient" x1="1.25" y1="35.74" x2="48.2" y2="35.74" gradientUnits="userSpaceOnUse"><stop offset="0" stop-color="#662d91"/><stop offset="1" stop-color="#9e005d"/></linearGradient><linearGradient id="linear-gradient-2" x1="57.22" y1="36.47" x2="65.85" y2="36.47" xlink:href="#linear-gradient"/><linearGradient id="linear-gradient-3" x1="67.73" y1="34.84" x2="80.29" y2="34.84" gradientUnits="userSpaceOnUse"><stop offset="0.01" stop-color="#662d91"/><stop offset="1" stop-color="#9e005d"/></linearGradient><linearGradient id="linear-gradient-4" x1="72.02" y1="6.69" x2="86" y2="6.69" gradientTransform="translate(7.67 30.02) rotate(-1.36)" xlink:href="#linear-gradient-3"/></defs><title>lyd2</title><path class="cls-1" d="M48.2,4.14,29,20.42l-.26,0H8.11a6.88,6.88,0,0,0-6.86,6.85V46A6.88,6.88,0,0,0,8.11,52.9H28.7a6.74,6.74,0,0,0,2-.34L48.2,67.34Z"/><path class="cls-2" d="M57.22,11.91c2,0,8.13,8.47,8.13,22S59.22,61,57.22,61"/><path class="cls-3" d="M67.73,4.14c2.49,0,12.06,11,12.06,28S70.22,65.54,67.73,65.54"/><path class="cls-4" d="M79,.7c2.79-.06,13.78,12,14.23,31S83.42,69.23,80.64,69.3"/></svg>
