<svg xmlns="http://www.w3.org/2000/svg" xmlns:xlink="http://www.w3.org/1999/xlink" width="160" height="150" viewBox="0 0 160 150"><defs><style>.cls-1{isolation:isolate;}.cls-2{filter:url(#AI_GaussianBlur_7);}.cls-3{opacity:0.51;mix-blend-mode:overlay;fill:url(#linear-gradient);}.cls-4{fill:url(#linear-gradient-2);}.cls-5{fill:#5b2354;}</style><filter id="AI_GaussianBlur_7" name="AI_GaussianBlur_7"><feGaussianBlur stdDeviation="7"/></filter><linearGradient id="linear-gradient" x1="6.68" y1="77" x2="148.55" y2="77" gradientUnits="userSpaceOnUse"><stop offset="0.48" stop-color="#fbb03b"/><stop offset="1" stop-color="#fcee21"/></linearGradient><linearGradient id="linear-gradient-2" x1="11.45" x2="153.32" xlink:href="#linear-gradient"/></defs><title>go stjerne</title><g class="cls-1"><g id="Layer_1" data-name="Layer 1"><g class="cls-2"><polygon class="cls-3" points="127.06 139.4 81.67 119.5 39.38 145.23 44.47 96.36 6.68 64.5 55.22 54.19 74.16 8.77 99.06 51.27 148.55 55.06 115.41 91.64 127.06 139.4"/><polygon class="cls-4" points="131.82 139.4 86.44 119.5 44.14 145.23 49.24 96.36 11.45 64.5 59.98 54.19 78.92 8.77 103.82 51.27 153.32 55.06 120.17 91.64 131.82 139.4"/></g><path class="cls-5" d="M81,86.11l.19,4.17A10.18,10.18,0,0,1,80.39,95a7.59,7.59,0,0,1-2.82,3.26,8.77,8.77,0,0,1-4.38,1.3,9.33,9.33,0,0,1-4.53-.85,7.42,7.42,0,0,1-3.13-2.82,9,9,0,0,1-1.26-4.37l-.32-7a10.11,10.11,0,0,1,.83-4.72,7.5,7.5,0,0,1,2.82-3.25A8.68,8.68,0,0,1,72,75.22a8.47,8.47,0,0,1,3.86.71,8.13,8.13,0,0,1,3,2.36A9.31,9.31,0,0,1,80.64,82L77,82.11a5.22,5.22,0,0,0-1.11-2,4.85,4.85,0,0,0-1.73-1.24,4.71,4.71,0,0,0-2-.36,4.82,4.82,0,0,0-2.59.81,4.68,4.68,0,0,0-1.65,2.06,6.73,6.73,0,0,0-.48,3l.32,7a5.61,5.61,0,0,0,.76,2.68,4.48,4.48,0,0,0,1.86,1.72A5.47,5.47,0,0,0,73,96.3a5,5,0,0,0,2.59-.78,4.36,4.36,0,0,0,1.65-2,6.86,6.86,0,0,0,.48-3l-.05-1-4.89.21-.14-3.2Z"/><path class="cls-5" d="M90.58,97.72a7.51,7.51,0,0,1-3.12-3,9.84,9.84,0,0,1-1.26-4.58l-.31-6.76a9.74,9.74,0,0,1,.84-4.66,7.52,7.52,0,0,1,2.84-3.22,9.6,9.6,0,0,1,8.88-.38,7.53,7.53,0,0,1,3.12,3,9.79,9.79,0,0,1,1.26,4.57l.31,6.76a9.69,9.69,0,0,1-.85,4.67,7.53,7.53,0,0,1-2.83,3.21,9.6,9.6,0,0,1-8.88.38Zm6.94-3.17a4.6,4.6,0,0,0,1.67-2,6.21,6.21,0,0,0,.49-2.85l-.32-7a6.21,6.21,0,0,0-.75-2.8,4.51,4.51,0,0,0-1.84-1.81,5.15,5.15,0,0,0-2.66-.55,5,5,0,0,0-2.6.78,4.51,4.51,0,0,0-1.67,2,6.1,6.1,0,0,0-.49,2.86l.32,7a6.21,6.21,0,0,0,.75,2.8,4.45,4.45,0,0,0,1.84,1.81,5.06,5.06,0,0,0,2.66.55A5.16,5.16,0,0,0,97.52,94.55Z"/></g></g></svg>
