<svg id="Layer_1" data-name="Layer 1" xmlns="http://www.w3.org/2000/svg" xmlns:xlink="http://www.w3.org/1999/xlink" width="180" height="180" viewBox="0 0 180 180"><defs><style>.cls-1{fill:url(#linear-gradient);}.cls-2{fill:#ff2a60;}.cls-3{fill:url(#linear-gradient-2);}.cls-4,.cls-5,.cls-6,.cls-7,.cls-8{fill:#514236;}.cls-4{opacity:0.56;}.cls-6{opacity:0.8;}.cls-7{opacity:0.4;}.cls-8{opacity:0.5;}.cls-10,.cls-9{opacity:0.55;}.cls-9{fill:url(#linear-gradient-3);}.cls-10{fill:url(#linear-gradient-4);}</style><linearGradient id="linear-gradient" x1="42.81" y1="96.16" x2="143.76" y2="96.16" gradientTransform="translate(73.82 -36.39) rotate(35.78)" gradientUnits="userSpaceOnUse"><stop offset="0" stop-color="#c1272d"/><stop offset="0.52" stop-color="#f7931e"/><stop offset="1" stop-color="#f15a24"/></linearGradient><linearGradient id="linear-gradient-2" x1="55.65" y1="98.53" x2="127.56" y2="98.53" gradientUnits="userSpaceOnUse"><stop offset="0" stop-color="#c69c6d"/><stop offset="0.52" stop-color="#8c6239"/><stop offset="1" stop-color="#42210b"/></linearGradient><linearGradient id="linear-gradient-3" x1="-249.09" y1="200.45" x2="-113.6" y2="200.45" gradientTransform="matrix(1.2, 0, 0, 1.17, 309.99, -142.41)" gradientUnits="userSpaceOnUse"><stop offset="0.48" stop-color="#fbb03b"/><stop offset="1" stop-color="#fcee21"/></linearGradient><linearGradient id="linear-gradient-4" x1="-358.08" y1="-48.61" x2="-222.59" y2="-48.61" gradientTransform="matrix(1.17, 0.22, -0.22, 1.15, 423.22, 209.76)" gradientUnits="userSpaceOnUse"><stop offset="0.21" stop-color="red"/><stop offset="0.61" stop-color="#fe4d0b"/><stop offset="1" stop-color="#fcee21"/></linearGradient></defs><title>point</title><ellipse class="cls-1" cx="93.28" cy="96.16" rx="51.32" ry="48.79" transform="translate(-38.62 72.68) rotate(-35.78)"/><circle class="cls-2" cx="91.68" cy="97.32" r="42.02"/><ellipse class="cls-3" cx="91.61" cy="98.53" rx="35.95" ry="35.37"/><ellipse class="cls-4" cx="87.24" cy="73.27" rx="12.69" ry="4.51" transform="translate(-8.7 11.83) rotate(-7.39)"/><ellipse class="cls-5" cx="66.37" cy="111.06" rx="4.51" ry="12.69" transform="translate(-43.6 42.9) rotate(-27.34)"/><ellipse class="cls-6" cx="70.9" cy="88.69" rx="3.5" ry="7.31" transform="translate(-21.02 22.03) rotate(-15.41)"/><ellipse class="cls-4" cx="100.47" cy="94.14" rx="4.51" ry="12.69" transform="translate(-5.81 181.67) rotate(-82.61)"/><ellipse class="cls-5" cx="116.81" cy="109.56" rx="7.31" ry="3.5" transform="translate(-19.86 193.05) rotate(-74.59)"/><ellipse class="cls-7" cx="96.52" cy="124.59" rx="12.69" ry="4.51" transform="translate(-15.22 13.44) rotate(-7.39)"/><ellipse class="cls-8" cx="91.77" cy="107.87" rx="7.31" ry="3.5" transform="translate(-29.1 34.06) rotate(-18.2)"/><ellipse class="cls-5" cx="112.86" cy="80.8" rx="3.5" ry="7.31" transform="translate(-24.98 97.1) rotate(-42.35)"/><polygon class="cls-9" points="132.52 164.87 96.75 133.34 68.11 171.45 65.77 124.35 18.03 131.65 50.48 96.56 11.6 68.77 59.83 66.26 52.59 19.66 88.35 51.18 116.99 13.07 119.33 60.17 167.08 52.87 134.63 87.96 173.51 115.75 125.27 118.26 132.52 164.87"/><polygon class="cls-10" points="118.56 167.75 89.44 130 54.07 161.98 60.73 115.29 12.46 113.39 50.99 85.11 18.1 50.43 65.93 57.13 67.68 10 96.8 47.75 132.16 15.77 125.5 62.46 173.77 64.37 135.24 92.65 168.13 127.32 120.3 120.62 118.56 167.75"/></svg>
