<svg xmlns="http://www.w3.org/2000/svg" xmlns:xlink="http://www.w3.org/1999/xlink" width="1600" height="900" viewBox="0 0 1600 900"><defs><style>.cls-1{fill:#fff;}.cls-2{isolation:isolate;}.cls-3{fill:url(#linear-gradient);}.cls-4{fill:url(#linear-gradient-2);}.cls-14,.cls-5,.cls-67,.cls-9{mix-blend-mode:overlay;}.cls-31,.cls-33,.cls-6{fill:none;}.cls-7{fill:url(#linear-gradient-3);}.cls-8{fill:url(#linear-gradient-4);}.cls-70,.cls-9{opacity:0.31;}.cls-10{fill:url(#linear-gradient-5);}.cls-11{fill:url(#linear-gradient-6);}.cls-12{fill:url(#linear-gradient-7);}.cls-13{fill:url(#linear-gradient-8);}.cls-14{opacity:0.45;}.cls-15{fill:url(#linear-gradient-9);}.cls-16{fill:url(#linear-gradient-10);}.cls-17{fill:url(#linear-gradient-11);}.cls-18{fill:url(#linear-gradient-12);}.cls-19{fill:url(#linear-gradient-13);}.cls-20{fill:url(#linear-gradient-14);}.cls-21{fill:url(#linear-gradient-15);}.cls-22{fill:url(#linear-gradient-16);}.cls-23{fill:url(#linear-gradient-17);}.cls-24{fill:url(#linear-gradient-18);}.cls-25{fill:url(#linear-gradient-19);}.cls-26{fill:url(#linear-gradient-20);}.cls-27{opacity:0.13;}.cls-28{fill:url(#linear-gradient-21);}.cls-29,.cls-34,.cls-35,.cls-42,.cls-43,.cls-44,.cls-45,.cls-47,.cls-48,.cls-50,.cls-51,.cls-52,.cls-53,.cls-55,.cls-56,.cls-58,.cls-59,.cls-60,.cls-61{fill:#f97f23;}.cls-30{fill:#ff2a60;}.cls-31,.cls-32,.cls-33{stroke:#ff2a60;}.cls-31,.cls-32,.cls-33,.cls-34,.cls-35,.cls-42,.cls-43,.cls-44,.cls-45,.cls-47,.cls-48,.cls-50,.cls-51,.cls-52,.cls-53,.cls-55,.cls-56,.cls-58,.cls-59,.cls-60,.cls-61{stroke-linecap:round;stroke-miterlimit:10;}.cls-31,.cls-32{stroke-width:17px;}.cls-32{fill:#f7931e;}.cls-33{stroke-width:20px;}.cls-34,.cls-47,.cls-55{stroke-width:11px;}.cls-34{stroke:url(#linear-gradient-22);}.cls-35,.cls-48,.cls-56{stroke-width:13px;}.cls-35{stroke:url(#linear-gradient-23);}.cls-36{fill:url(#linear-gradient-24);}.cls-37,.cls-38,.cls-39,.cls-40,.cls-41{fill:#514236;}.cls-37{opacity:0.56;}.cls-39{opacity:0.8;}.cls-40{opacity:0.4;}.cls-41{opacity:0.5;}.cls-42,.cls-44,.cls-45,.cls-50,.cls-52,.cls-53,.cls-58,.cls-60,.cls-61{stroke-width:19px;}.cls-42{stroke:url(#radial-gradient);}.cls-43,.cls-51,.cls-59{stroke-width:18px;}.cls-43{stroke:url(#radial-gradient-2);}.cls-44{stroke:url(#radial-gradient-3);}.cls-45{stroke:url(#radial-gradient-4);}.cls-46{fill:url(#linear-gradient-25);}.cls-47{stroke:url(#linear-gradient-26);}.cls-48{stroke:url(#linear-gradient-27);}.cls-49{fill:url(#linear-gradient-28);}.cls-50{stroke:url(#radial-gradient-5);}.cls-51{stroke:url(#radial-gradient-6);}.cls-52{stroke:url(#radial-gradient-7);}.cls-53{stroke:url(#radial-gradient-8);}.cls-54{fill:url(#linear-gradient-29);}.cls-55{stroke:url(#linear-gradient-30);}.cls-56{stroke:url(#linear-gradient-31);}.cls-57{fill:url(#linear-gradient-32);}.cls-58{stroke:url(#radial-gradient-9);}.cls-59{stroke:url(#radial-gradient-10);}.cls-60{stroke:url(#radial-gradient-11);}.cls-61{stroke:url(#radial-gradient-12);}.cls-62{opacity:0.36;}.cls-63{mask:url(#mask);}.cls-64{fill:#1ea6e2;}.cls-65{mask:url(#mask-2);}.cls-66{fill:#62759b;}.cls-67{fill:#277acc;}.cls-68{mask:url(#mask-3);}.cls-69{fill:#96cee0;opacity:0.46;}.cls-71{mask:url(#mask-4);}.cls-72{mask:url(#mask-5);}.cls-73{mask:url(#mask-6);}.cls-74{mask:url(#mask-7);}.cls-75{mask:url(#mask-8);}.cls-76{mask:url(#mask-9);}.cls-77{mask:url(#mask-10);}.cls-78{mask:url(#mask-11);}.cls-79{mask:url(#mask-12);}.cls-80{fill:url(#linear-gradient-33);}.cls-81{fill:url(#linear-gradient-34);}</style><linearGradient id="linear-gradient" x1="801" y1="900" x2="801" gradientUnits="userSpaceOnUse"><stop offset="0.05" stop-color="#185c75"/><stop offset="0.31" stop-color="#223e5e"/><stop offset="0.61" stop-color="#2b224c"/><stop offset="1" stop-color="#330838"/></linearGradient><linearGradient id="linear-gradient-2" x1="800.5" y1="900" x2="800.5" y2="740" gradientUnits="userSpaceOnUse"><stop offset="0" stop-color="#185c75" stop-opacity="0.5"/><stop offset="0.15" stop-color="#0071bc"/><stop offset="0.46" stop-color="#009245"/><stop offset="1" stop-color="#22b573"/></linearGradient><linearGradient id="linear-gradient-3" x1="1372.5" y1="71" x2="1567.5" y2="71" gradientTransform="matrix(0.98, 0.2, -0.2, 0.98, 45.46, -298.63)" gradientUnits="userSpaceOnUse"><stop offset="0" stop-color="#f2f2f2" stop-opacity="0.7"/><stop offset="0.19" stop-color="#f2f2f2" stop-opacity="0.59"/><stop offset="0.61" stop-color="#f2f2f2" stop-opacity="0.29"/><stop offset="1" stop-color="#f2f2f2" stop-opacity="0"/></linearGradient><linearGradient id="linear-gradient-4" x1="1371.82" y1="51.81" x2="1567.61" y2="92.64" gradientUnits="userSpaceOnUse"><stop offset="0" stop-color="#f2f2f2" stop-opacity="0.7"/><stop offset="1" stop-color="#f2f2f2" stop-opacity="0"/></linearGradient><linearGradient id="linear-gradient-5" x1="514.38" y1="252.01" x2="709.38" y2="252.01" gradientTransform="translate(-35.59 -133.83) rotate(-4.17)" xlink:href="#linear-gradient-3"/><linearGradient id="linear-gradient-6" x1="493.33" y1="81.53" x2="692.8" y2="66.98" xlink:href="#linear-gradient-4"/><linearGradient id="linear-gradient-7" x1="586.41" y1="254.25" x2="781.41" y2="254.25" gradientTransform="translate(-35.59 -133.83) rotate(-4.17)" xlink:href="#linear-gradient-3"/><linearGradient id="linear-gradient-8" x1="565.33" y1="78.53" x2="764.8" y2="63.98" xlink:href="#linear-gradient-4"/><linearGradient id="linear-gradient-9" x1="826.3" y1="570.45" x2="1021.3" y2="570.45" gradientTransform="matrix(-1.06, -1.14, 1.04, -0.97, 767.93, 1958.33)" xlink:href="#linear-gradient-3"/><linearGradient id="linear-gradient-10" x1="491.08" y1="464.06" x2="281.27" y2="237.75" xlink:href="#linear-gradient-4"/><linearGradient id="linear-gradient-11" x1="861.84" y1="317.97" x2="1056.84" y2="317.97" gradientTransform="matrix(-1.24, -0.94, 0.85, -1.14, 1088.81, 1895.54)" xlink:href="#linear-gradient-3"/><linearGradient id="linear-gradient-12" x1="290.39" y1="728.43" x2="43.63" y2="543.08" xlink:href="#linear-gradient-4"/><linearGradient id="linear-gradient-13" x1="745.54" y1="653.37" x2="940.54" y2="653.37" gradientTransform="matrix(-1.06, -1.14, 1.04, -0.97, 767.93, 1958.33)" xlink:href="#linear-gradient-3"/><linearGradient id="linear-gradient-14" x1="663.08" y1="476.06" x2="453.27" y2="249.75" xlink:href="#linear-gradient-4"/><linearGradient id="linear-gradient-15" x1="735.56" y1="696.9" x2="930.56" y2="696.9" gradientTransform="matrix(1.24, -0.94, -0.85, -1.14, 1159.67, 1895.54)" xlink:href="#linear-gradient-3"/><linearGradient id="linear-gradient-16" x1="1477.1" y1="415.43" x2="1723.85" y2="230.08" xlink:href="#linear-gradient-4"/><linearGradient id="linear-gradient-17" x1="774.32" y1="652.73" x2="969.32" y2="652.73" gradientTransform="matrix(1.24, -0.94, -0.85, -1.14, 1159.67, 1895.54)" xlink:href="#linear-gradient-3"/><linearGradient id="linear-gradient-18" x1="1563.1" y1="429.43" x2="1809.85" y2="244.08" xlink:href="#linear-gradient-4"/><linearGradient id="linear-gradient-19" x1="553.05" y1="728.25" x2="748.05" y2="728.25" gradientTransform="matrix(1.24, -0.94, -0.85, -1.14, 1159.67, 1895.54)" xlink:href="#linear-gradient-3"/><linearGradient id="linear-gradient-20" x1="1223.1" y1="550.43" x2="1469.85" y2="365.08" xlink:href="#linear-gradient-4"/><linearGradient id="linear-gradient-21" x1="1113.72" y1="135.21" x2="1179.66" y2="135.21" gradientTransform="translate(295.44 -644.89) rotate(35.78)" gradientUnits="userSpaceOnUse"><stop offset="0" stop-color="#c1272d"/><stop offset="0.52" stop-color="#f7931e"/><stop offset="1" stop-color="#f15a24"/></linearGradient><linearGradient id="linear-gradient-22" x1="1198.44" y1="107.24" x2="1274.33" y2="107.24" gradientTransform="matrix(0.96, 0.03, 0.03, 0.98, 1.56, -1.1)" gradientUnits="userSpaceOnUse"><stop offset="0.1" stop-color="#f47921"/><stop offset="0.5" stop-color="#fcee21"/><stop offset="0.51" stop-color="#fbe621"/><stop offset="0.64" stop-color="#f7aa22"/><stop offset="0.75" stop-color="#f47f23"/><stop offset="0.84" stop-color="#f26424"/><stop offset="0.89" stop-color="#f15a24"/></linearGradient><linearGradient id="linear-gradient-23" x1="1201.42" y1="29.11" x2="1279.32" y2="29.11" gradientTransform="matrix(0.93, 0.05, 0.05, 0.96, 3.57, -2.7)" gradientUnits="userSpaceOnUse"><stop offset="0.1" stop-color="#da5926"/><stop offset="0.5" stop-color="#fcee21"/><stop offset="0.52" stop-color="#fbe621"/><stop offset="0.68" stop-color="#f7aa22"/><stop offset="0.83" stop-color="#f47f23"/><stop offset="0.94" stop-color="#f26424"/><stop offset="1" stop-color="#f15a24"/></linearGradient><linearGradient id="linear-gradient-24" x1="1122.11" y1="136.76" x2="1169.08" y2="136.76" gradientUnits="userSpaceOnUse"><stop offset="0" stop-color="#c69c6d"/><stop offset="0.52" stop-color="#8c6239"/><stop offset="1" stop-color="#42210b"/></linearGradient><radialGradient id="radial-gradient" cx="1492.1" cy="-136.58" r="37.74" gradientTransform="matrix(0.81, 0.13, 0.14, 0.9, -17.35, 12.53)" gradientUnits="userSpaceOnUse"><stop offset="0" stop-color="#c1272d"/><stop offset="0.18" stop-color="#d1382a"/><stop offset="0.44" stop-color="#e34b27"/><stop offset="0.71" stop-color="#ed5625"/><stop offset="1" stop-color="#f15a24"/></radialGradient><radialGradient id="radial-gradient-2" cx="1839.95" cy="-380.72" r="37.24" gradientTransform="matrix(0.69, 0.23, 0.22, 0.84, -2.38, 2.09)" xlink:href="#radial-gradient"/><radialGradient id="radial-gradient-3" cx="1639.08" cy="-217.73" r="37.74" gradientTransform="matrix(0.76, 0.17, 0.17, 0.88, -18.36, 13.45)" xlink:href="#radial-gradient"/><radialGradient id="radial-gradient-4" cx="1850.72" cy="-366.41" r="37.74" gradientTransform="matrix(0.68, 0.24, 0.22, 0.84, 20.69, -12.99)" xlink:href="#radial-gradient"/><linearGradient id="linear-gradient-25" x1="1009.72" y1="620.19" x2="1079.77" y2="620.19" gradientTransform="translate(558.98 -494.83) rotate(35.78)" xlink:href="#linear-gradient-21"/><linearGradient id="linear-gradient-26" x1="1079.7" y1="604.94" x2="1159.64" y2="604.94" gradientTransform="matrix(0.96, 0.07, -0.01, 0.98, 27.98, -45.68)" xlink:href="#linear-gradient-22"/><linearGradient id="linear-gradient-27" x1="1064.83" y1="536.21" x2="1146.78" y2="536.21" gradientTransform="matrix(0.93, 0.09, 0.01, 0.97, 30.06, -47.19)" xlink:href="#linear-gradient-23"/><linearGradient id="linear-gradient-28" x1="1018.64" y1="621.83" x2="1068.54" y2="621.83" gradientTransform="translate(1664.59 -422.86) rotate(90)" xlink:href="#linear-gradient-24"/><radialGradient id="radial-gradient-5" cx="1275.48" cy="429.82" r="39.5" gradientTransform="matrix(0.81, 0.17, 0.1, 0.91, 8.51, -32.86)" xlink:href="#radial-gradient"/><radialGradient id="radial-gradient-6" cx="1483.07" cy="291.17" r="39.01" gradientTransform="matrix(0.68, 0.26, 0.18, 0.85, 23.91, -42.66)" xlink:href="#radial-gradient"/><radialGradient id="radial-gradient-7" cx="1377.58" cy="384.5" r="39.5" gradientTransform="matrix(0.76, 0.2, 0.13, 0.88, 7.47, -31.99)" xlink:href="#radial-gradient"/><radialGradient id="radial-gradient-8" cx="1480.92" cy="318.97" r="39.5" gradientTransform="matrix(0.67, 0.27, 0.19, 0.84, 47.6, -56.75)" xlink:href="#radial-gradient"/><linearGradient id="linear-gradient-29" x1="143.72" y1="574.19" x2="213.77" y2="574.19" gradientTransform="translate(369.43 3.85) rotate(35.78)" xlink:href="#linear-gradient-21"/><linearGradient id="linear-gradient-30" x1="181.28" y1="581.98" x2="261.22" y2="581.98" xlink:href="#linear-gradient-22"/><linearGradient id="linear-gradient-31" x1="135.11" y1="537.78" x2="217.06" y2="537.78" xlink:href="#linear-gradient-23"/><linearGradient id="linear-gradient-32" x1="152.64" y1="575.83" x2="202.54" y2="575.83" xlink:href="#linear-gradient-24"/><radialGradient id="radial-gradient-9" cx="193.73" cy="539.63" r="39.5" xlink:href="#radial-gradient"/><radialGradient id="radial-gradient-10" cx="129.39" cy="603.41" r="39.01" gradientTransform="matrix(0.69, 0.23, 0.22, 0.84, -2.38, 2.09)" xlink:href="#radial-gradient"/><radialGradient id="radial-gradient-11" cx="205.34" cy="562.62" r="39.5" gradientTransform="matrix(0.76, 0.17, 0.17, 0.88, -18.36, 13.45)" xlink:href="#radial-gradient"/><radialGradient id="radial-gradient-12" cx="92.55" cy="660.68" r="39.5" gradientTransform="matrix(0.68, 0.24, 0.22, 0.84, 20.69, -12.99)" xlink:href="#radial-gradient"/><mask id="mask" x="712.94" y="333.89" width="71.71" height="38.82" maskUnits="userSpaceOnUse"><ellipse class="cls-1" cx="755.72" cy="351.12" rx="29.11" ry="16.52" transform="translate(-40.37 104.87) rotate(-7.73)"/></mask><mask id="mask-2" x="653.64" y="339.29" width="70.99" height="28.25" maskUnits="userSpaceOnUse"><ellipse class="cls-1" cx="682.52" cy="355.73" rx="29.11" ry="11.24" transform="matrix(0.99, -0.13, 0.13, 0.99, -41.66, 95.06)"/></mask><mask id="mask-3" x="689.58" y="312.92" width="73.46" height="63.33" maskUnits="userSpaceOnUse"><circle class="cls-1" cx="718.69" cy="347.05" r="29.11"/></mask><mask id="mask-4" x="1370.83" y="241.12" width="51.98" height="29.69" maskUnits="userSpaceOnUse"><ellipse class="cls-1" cx="1391.58" cy="253.72" rx="11.92" ry="21.01" transform="translate(877.03 1571.34) rotate(-79)"/></mask><mask id="mask-5" x="1413.6" y="246.64" width="51.22" height="22.33" maskUnits="userSpaceOnUse"><ellipse class="cls-1" cx="1444.14" cy="260.06" rx="8.11" ry="21.01" transform="translate(913.34 1628.06) rotate(-79)"/></mask><mask id="mask-6" x="1385.58" y="226.27" width="53.86" height="47.08" maskUnits="userSpaceOnUse"><circle class="cls-1" cx="1418.43" cy="252.31" r="21.01"/></mask><mask id="mask-7" x="415.83" y="655.12" width="51.98" height="29.69" maskUnits="userSpaceOnUse"><ellipse class="cls-1" cx="436.58" cy="667.72" rx="11.92" ry="21.01" transform="translate(-302.17 968.9) rotate(-79)"/></mask><mask id="mask-8" x="458.6" y="660.64" width="51.22" height="22.33" maskUnits="userSpaceOnUse"><ellipse class="cls-1" cx="489.14" cy="674.06" rx="8.11" ry="21.01" transform="translate(-265.86 1025.61) rotate(-79)"/></mask><mask id="mask-9" x="430.58" y="640.27" width="53.86" height="47.08" maskUnits="userSpaceOnUse"><circle class="cls-1" cx="463.43" cy="666.31" r="21.01"/></mask><mask id="mask-10" x="425.36" y="132.54" width="46.21" height="25.02" maskUnits="userSpaceOnUse"><ellipse class="cls-1" cx="452.93" cy="143.64" rx="18.76" ry="10.64" transform="translate(-15.21 62.24) rotate(-7.73)"/></mask><mask id="mask-11" x="387.15" y="136.02" width="45.75" height="18.21" maskUnits="userSpaceOnUse"><ellipse class="cls-1" cx="405.76" cy="146.61" rx="18.76" ry="7.24" transform="translate(-16.04 55.93) rotate(-7.73)"/></mask><mask id="mask-12" x="410.31" y="119.03" width="47.34" height="40.81" maskUnits="userSpaceOnUse"><circle class="cls-1" cx="429.07" cy="141.02" r="18.76"/></mask><linearGradient id="linear-gradient-33" x1="299.5" y1="557" x2="299.5" y2="-236" gradientUnits="userSpaceOnUse"><stop offset="0.05" stop-color="#f2f2f2" stop-opacity="0"/><stop offset="1" stop-color="#f2f2f2" stop-opacity="0.4"/></linearGradient><linearGradient id="linear-gradient-34" x1="295.5" y1="500" x2="295.5" y2="-193" xlink:href="#linear-gradient-33"/></defs><title>spillebaggrund u elementer</title><g class="cls-2"><g id="Layer_1" data-name="Layer 1"><rect class="cls-3" x="1" width="1600" height="900"/><path class="cls-4" d="M780,740.69C420.7,747.89,115.24,810.2,1,891.06V900H1600v-3.93C1537.14,800,1193.7,732.4,780,740.69Z"/><g class="cls-5"><rect class="cls-6" x="1354.3" y="155.6" width="8" height="8"/><circle class="cls-1" cx="1358.3" cy="159.6" r="4"/><rect class="cls-6" x="1332.48" y="163.11" width="4.58" height="4.58"/><circle class="cls-1" cx="1334.77" cy="165.4" r="2.29"/><rect class="cls-6" x="1151.92" y="218.66" width="7.1" height="7.1"/><circle class="cls-1" cx="1155.47" cy="222.21" r="3.55"/><rect class="cls-6" x="1254.81" y="190.06" width="8.47" height="8.47"/><circle class="cls-1" cx="1259.04" cy="194.3" r="4.24"/><rect class="cls-6" x="850.98" y="323.14" width="6.89" height="6.89"/><circle class="cls-1" cx="854.43" cy="326.58" r="3.45"/><rect class="cls-6" x="961.48" y="112.07" width="6.58" height="6.58"/><circle class="cls-1" cx="964.77" cy="115.36" r="3.29"/><rect class="cls-6" x="718.49" y="27.11" width="4.06" height="4.06"/><circle class="cls-1" cx="720.52" cy="29.14" r="2.03"/><rect class="cls-6" x="470.5" y="246.58" width="5.8" height="5.8"/><circle class="cls-1" cx="473.4" cy="249.48" r="2.9"/><rect class="cls-6" x="702.85" y="350.04" width="8.27" height="8.27"/><circle class="cls-1" cx="706.98" cy="354.17" r="4.14"/><rect class="cls-6" x="746.44" y="108.88" width="4.79" height="4.79"/><circle class="cls-1" cx="748.84" cy="111.28" r="2.4"/><rect class="cls-6" x="475.22" y="164.86" width="4.24" height="4.24"/><circle class="cls-1" cx="477.34" cy="166.98" r="2.12"/><rect class="cls-6" x="460.77" y="254.49" width="8.46" height="8.46"/><circle class="cls-1" cx="465" cy="258.72" r="4.23"/><rect class="cls-6" x="533.8" y="477.1" width="6.42" height="6.42"/><circle class="cls-1" cx="537.01" cy="480.31" r="3.21"/><rect class="cls-6" x="819.87" y="401.85" width="4.57" height="4.57"/><circle class="cls-1" cx="822.15" cy="404.13" r="2.28"/><rect class="cls-6" x="947.29" y="223.19" width="5.54" height="5.54"/><circle class="cls-1" cx="950.06" cy="225.96" r="2.77"/><rect class="cls-6" x="1045.18" y="234.44" width="6.01" height="6.01"/><circle class="cls-1" cx="1048.19" cy="237.45" r="3.01"/><rect class="cls-6" x="1110.52" y="352.02" width="3.5" height="3.5"/><circle class="cls-1" cx="1112.27" cy="353.77" r="1.75"/><rect class="cls-6" x="1091.73" y="507.5" width="7.28" height="7.28"/><circle class="cls-1" cx="1095.37" cy="511.13" r="3.64"/><rect class="cls-6" x="1195.45" y="606.45" width="7.69" height="7.69"/><circle class="cls-1" cx="1199.29" cy="610.29" r="3.84"/><rect class="cls-6" x="1300.78" y="591.9" width="5.36" height="5.36"/><circle class="cls-1" cx="1303.46" cy="594.59" r="2.68"/><rect class="cls-6" x="1328.87" y="576.65" width="7.4" height="7.4"/><circle class="cls-1" cx="1332.57" cy="580.36" r="3.7"/><rect class="cls-6" x="1291.26" y="547.94" width="6.49" height="6.49"/><circle class="cls-1" cx="1294.5" cy="551.19" r="3.24"/><rect class="cls-6" x="1163.65" y="637.13" width="4.11" height="4.11"/><circle class="cls-1" cx="1165.71" cy="639.18" r="2.05"/><rect class="cls-6" x="1004.29" y="643.44" width="6.25" height="6.25"/><circle class="cls-1" cx="1007.42" cy="646.56" r="3.12"/><rect class="cls-6" x="805.25" y="623.52" width="7.29" height="7.29"/><circle class="cls-1" cx="808.89" cy="627.17" r="3.65"/><rect class="cls-6" x="798.77" y="606.94" width="4.21" height="4.21"/><circle class="cls-1" cx="800.88" cy="609.05" r="2.11"/><rect class="cls-6" x="815.12" y="574.35" width="4.66" height="4.66"/><circle class="cls-1" cx="817.44" cy="576.68" r="2.33"/><rect class="cls-6" x="875.46" y="535.8" width="8.71" height="8.71"/><circle class="cls-1" cx="879.81" cy="540.15" r="4.35"/><rect class="cls-6" x="906.78" y="568.43" width="5.34" height="5.34"/><circle class="cls-1" cx="909.45" cy="571.09" r="2.67"/><rect class="cls-6" x="756.09" y="611.6" width="6.16" height="6.16"/><circle class="cls-1" cx="759.17" cy="614.68" r="3.08"/><rect class="cls-6" x="605.62" y="648.91" width="3.03" height="3.03"/><circle class="cls-1" cx="607.13" cy="650.43" r="1.52"/><rect class="cls-6" x="537.85" y="663.76" width="4.88" height="4.88"/><circle class="cls-1" cx="540.29" cy="666.2" r="2.44"/><rect class="cls-6" x="475.71" y="586.18" width="6.68" height="6.68"/><circle class="cls-1" cx="479.05" cy="589.52" r="3.34"/><rect class="cls-6" x="490.89" y="569.2" width="4.27" height="4.27"/><circle class="cls-1" cx="493.02" cy="571.33" r="2.13"/><rect class="cls-6" x="461.14" y="609.61" width="5.25" height="5.25"/><circle class="cls-1" cx="463.76" cy="612.24" r="2.62"/><rect class="cls-6" x="436.72" y="644.38" width="5.31" height="5.31"/><circle class="cls-1" cx="439.38" cy="647.04" r="2.65"/><rect class="cls-6" x="253.06" y="696.94" width="3.37" height="3.37"/><circle class="cls-1" cx="254.74" cy="698.62" r="1.68"/><rect class="cls-6" x="138.99" y="687.21" width="4.92" height="4.92"/><circle class="cls-1" cx="141.45" cy="689.67" r="2.46"/><rect class="cls-6" x="183.65" y="575.74" width="5.44" height="5.44"/><circle class="cls-1" cx="186.37" cy="578.46" r="2.72"/><rect class="cls-6" x="260.17" y="524.68" width="8.12" height="8.12"/><circle class="cls-1" cx="264.23" cy="528.73" r="4.06"/><rect class="cls-6" x="291.71" y="549.53" width="3.72" height="3.72"/><circle class="cls-1" cx="293.57" cy="551.39" r="1.86"/><rect class="cls-6" x="180.47" y="586.39" width="8.11" height="8.11"/><circle class="cls-1" cx="184.53" cy="590.44" r="4.05"/><rect class="cls-6" x="105.45" y="551.64" width="7.04" height="7.04"/><circle class="cls-1" cx="108.96" cy="555.16" r="3.52"/><rect class="cls-6" x="130.5" y="424.43" width="4.75" height="4.75"/><circle class="cls-1" cx="132.88" cy="426.8" r="2.38"/><rect class="cls-6" x="240.29" y="386.75" width="6.72" height="6.72"/><circle class="cls-1" cx="243.65" cy="390.12" r="3.36"/><rect class="cls-6" x="154.89" y="398.22" width="4.74" height="4.74"/><circle class="cls-1" cx="157.26" cy="400.59" r="2.37"/><rect class="cls-6" x="241.8" y="271.05" width="4.02" height="4.02"/><circle class="cls-1" cx="243.82" cy="273.06" r="2.01"/><rect class="cls-6" x="224.54" y="270.14" width="7.09" height="7.09"/><circle class="cls-1" cx="228.08" cy="273.69" r="3.55"/><rect class="cls-6" x="365.67" y="493.22" width="6.67" height="6.67"/><circle class="cls-1" cx="369.01" cy="496.55" r="3.33"/><rect class="cls-6" x="570.96" y="452.48" width="5.79" height="5.79"/><circle class="cls-1" cx="573.85" cy="455.38" r="2.89"/><rect class="cls-6" x="724.16" y="516.85" width="8.35" height="8.35"/><circle class="cls-1" cx="728.34" cy="521.03" r="4.18"/><rect class="cls-6" x="878.47" y="439.93" width="5.23" height="5.23"/><circle class="cls-1" cx="881.09" cy="442.55" r="2.62"/><rect class="cls-6" x="983.42" y="400.21" width="4.03" height="4.03"/><circle class="cls-1" cx="985.43" cy="402.22" r="2.01"/><rect class="cls-6" x="1035.39" y="417.45" width="4.09" height="4.09"/><circle class="cls-1" cx="1037.43" cy="419.49" r="2.05"/><rect class="cls-6" x="1068.4" y="400.04" width="6.03" height="6.03"/><circle class="cls-1" cx="1071.42" cy="403.05" r="3.02"/><rect class="cls-6" x="1079.72" y="435.55" width="6.95" height="6.95"/><circle class="cls-1" cx="1083.2" cy="439.02" r="3.47"/><rect class="cls-6" x="1074.76" y="444.79" width="3.76" height="3.76"/><circle class="cls-1" cx="1076.64" cy="446.67" r="1.88"/><rect class="cls-6" x="1041.79" y="429.11" width="5.24" height="5.24"/><circle class="cls-1" cx="1044.41" cy="431.73" r="2.62"/><rect class="cls-6" x="1035.15" y="436.55" width="4.74" height="4.74"/><circle class="cls-1" cx="1037.52" cy="438.92" r="2.37"/><rect class="cls-6" x="1105.03" y="420.07" width="3.6" height="3.6"/><circle class="cls-1" cx="1106.83" cy="421.87" r="1.8"/><rect class="cls-6" x="1120.31" y="423.13" width="4.24" height="4.24"/><circle class="cls-1" cx="1122.43" cy="425.25" r="2.12"/><rect class="cls-6" x="1119.62" y="457.81" width="3.1" height="3.1"/><circle class="cls-1" cx="1121.17" cy="459.36" r="1.55"/><rect class="cls-6" x="1406.98" y="476.16" width="8.99" height="8.99"/><circle class="cls-1" cx="1411.47" cy="480.65" r="4.49"/><rect class="cls-6" x="1580.05" y="224.98" width="7.16" height="7.16"/><circle class="cls-1" cx="1583.63" cy="228.56" r="3.58"/><rect class="cls-6" x="1453.39" y="4.07" width="7.87" height="7.87"/><circle class="cls-1" cx="1457.32" cy="8.01" r="3.93"/><rect class="cls-6" x="1389.33" y="38.84" width="6.47" height="6.47"/><circle class="cls-1" cx="1392.57" cy="42.08" r="3.23"/><rect class="cls-6" x="1272.07" y="252.85" width="5.99" height="5.99"/><circle class="cls-1" cx="1275.06" cy="255.84" r="2.99"/><rect class="cls-6" x="1414.12" y="144.15" width="3.43" height="3.43"/><circle class="cls-1" cx="1415.83" cy="145.87" r="1.71"/><rect class="cls-6" x="1109.35" y="69.63" width="6.72" height="6.72"/><circle class="cls-1" cx="1112.71" cy="72.99" r="3.36"/><rect class="cls-6" x="1105.57" y="244.17" width="8.26" height="8.26"/><circle class="cls-1" cx="1109.7" cy="248.3" r="4.13"/><rect class="cls-6" x="1125.97" y="282.77" width="4.4" height="4.4"/><circle class="cls-1" cx="1128.17" cy="284.97" r="2.2"/><rect class="cls-6" x="1428.73" y="339.86" width="7.64" height="7.64"/><circle class="cls-1" cx="1432.55" cy="343.68" r="3.82"/><rect class="cls-6" x="1347.06" y="121.09" width="5.54" height="5.54"/><circle class="cls-1" cx="1349.83" cy="123.86" r="2.77"/><rect class="cls-6" x="1126.75" y="98.89" width="6.55" height="6.55"/><circle class="cls-1" cx="1130.03" cy="102.17" r="3.27"/><rect class="cls-6" x="971.29" y="171.58" width="6.9" height="6.9"/><circle class="cls-1" cx="974.74" cy="175.03" r="3.45"/><rect class="cls-6" x="943.51" y="154.52" width="7.6" height="7.6"/><circle class="cls-1" cx="947.31" cy="158.32" r="3.8"/><rect class="cls-6" x="863.96" y="157.48" width="5.13" height="5.13"/><circle class="cls-1" cx="866.52" cy="160.04" r="2.56"/><rect class="cls-6" x="859.09" y="119.08" width="6.81" height="6.81"/><circle class="cls-1" cx="862.49" cy="122.49" r="3.4"/><rect class="cls-6" x="916.9" y="35.44" width="3.25" height="3.25"/><circle class="cls-1" cx="918.53" cy="37.06" r="1.62"/><rect class="cls-6" x="1068.91" y="29.17" width="5.68" height="5.68"/><circle class="cls-1" cx="1071.75" cy="32.01" r="2.84"/><rect class="cls-6" x="1029.05" y="165.75" width="5.74" height="5.74"/><circle class="cls-1" cx="1031.92" cy="168.62" r="2.87"/><rect class="cls-6" x="974.77" y="199.29" width="3.5" height="3.5"/><circle class="cls-1" cx="976.52" cy="201.04" r="1.75"/><rect class="cls-6" x="779.81" y="210.32" width="4.42" height="4.42"/><circle class="cls-1" cx="782.02" cy="212.53" r="2.21"/><rect class="cls-6" x="689.02" y="256.65" width="8.16" height="8.16"/><circle class="cls-1" cx="693.1" cy="260.73" r="4.08"/><rect class="cls-6" x="750.38" y="244.92" width="6.94" height="6.94"/><circle class="cls-1" cx="753.85" cy="248.39" r="3.47"/><rect class="cls-6" x="856.68" y="220.33" width="4.37" height="4.37"/><circle class="cls-1" cx="858.86" cy="222.52" r="2.19"/><rect class="cls-6" x="898.43" y="218.43" width="8.11" height="8.11"/><circle class="cls-1" cx="902.49" cy="222.48" r="4.06"/><rect class="cls-6" x="947.84" y="213.37" width="7.25" height="7.25"/><circle class="cls-1" cx="951.46" cy="217" r="3.63"/><rect class="cls-6" x="825.81" y="264.56" width="6.9" height="6.9"/><circle class="cls-1" cx="829.26" cy="268.01" r="3.45"/><rect class="cls-6" x="587.15" y="293.02" width="8.55" height="8.55"/><circle class="cls-1" cx="591.42" cy="297.29" r="4.27"/><rect class="cls-6" x="449.55" y="281.55" width="7.48" height="7.48"/><circle class="cls-1" cx="453.29" cy="285.29" r="3.74"/><rect class="cls-6" x="350.77" y="195.08" width="5.62" height="5.62"/><circle class="cls-1" cx="353.59" cy="197.89" r="2.81"/><rect class="cls-6" x="532.6" y="139.14" width="7.81" height="7.81"/><circle class="cls-1" cx="536.5" cy="143.05" r="3.91"/><rect class="cls-6" x="566.55" y="137.91" width="6.89" height="6.89"/><circle class="cls-1" cx="569.99" cy="141.36" r="3.44"/></g><g class="cls-5"><rect class="cls-6" x="249.59" y="299.6" width="4.79" height="4.79"/><circle class="cls-1" cx="251.98" cy="302" r="2.4"/><rect class="cls-6" x="363.49" y="176.08" width="4.24" height="4.24"/><circle class="cls-1" cx="365.61" cy="178.2" r="2.12"/><rect class="cls-6" x="355.59" y="331.88" width="8.46" height="8.46"/><circle class="cls-1" cx="359.82" cy="336.11" r="4.23"/><rect class="cls-6" x="580.34" y="381.38" width="6.42" height="6.42"/><circle class="cls-1" cx="583.56" cy="384.59" r="3.21"/><rect class="cls-6" x="685.99" y="155.8" width="4.57" height="4.57"/><circle class="cls-1" cx="688.28" cy="158.08" r="2.28"/><rect class="cls-6" x="811.17" y="348.82" width="5.54" height="5.54"/><circle class="cls-1" cx="813.94" cy="351.59" r="2.77"/><rect class="cls-6" x="933.37" y="350.08" width="6.01" height="6.01"/><circle class="cls-1" cx="936.38" cy="353.09" r="3.01"/><rect class="cls-6" x="1042.83" y="160.15" width="3.5" height="3.5"/><circle class="cls-1" cx="1044.58" cy="161.9" r="1.75"/><rect class="cls-6" x="855.14" y="173.63" width="7.28" height="7.28"/><circle class="cls-1" cx="858.78" cy="177.27" r="3.64"/><rect class="cls-6" x="856.38" y="335.83" width="7.69" height="7.69"/><circle class="cls-1" cx="860.22" cy="339.67" r="3.84"/><rect class="cls-6" x="1008.08" y="347.81" width="5.36" height="5.36"/><circle class="cls-1" cx="1010.76" cy="350.49" r="2.68"/><rect class="cls-6" x="1036.02" y="326.04" width="7.4" height="7.4"/><circle class="cls-1" cx="1039.72" cy="329.74" r="3.7"/><rect class="cls-6" x="1075.7" y="321.35" width="6.49" height="6.49"/><circle class="cls-1" cx="1078.94" cy="324.6" r="3.24"/><rect class="cls-6" x="1001.56" y="62.65" width="4.11" height="4.11"/><circle class="cls-1" cx="1003.61" cy="64.7" r="2.05"/><rect class="cls-6" x="806.76" y="122.81" width="6.25" height="6.25"/><circle class="cls-1" cx="809.89" cy="125.93" r="3.12"/><rect class="cls-6" x="637.07" y="210.24" width="7.29" height="7.29"/><circle class="cls-1" cx="640.72" cy="213.89" r="3.65"/><rect class="cls-6" x="571.79" y="215.02" width="4.21" height="4.21"/><circle class="cls-1" cx="573.9" cy="217.12" r="2.11"/><rect class="cls-6" x="503.64" y="203.43" width="4.66" height="4.66"/><circle class="cls-1" cx="505.96" cy="205.76" r="2.33"/><rect class="cls-6" x="443" y="216.4" width="8.71" height="8.71"/><circle class="cls-1" cx="447.36" cy="220.75" r="4.35"/><rect class="cls-6" x="428.49" y="31.62" width="5.34" height="5.34"/><circle class="cls-1" cx="431.15" cy="34.29" r="2.67"/><rect class="cls-6" x="322.38" y="91.97" width="3.03" height="3.03"/><circle class="cls-1" cx="323.89" cy="93.48" r="1.52"/><rect class="cls-6" x="387.27" y="59.58" width="4.88" height="4.88"/><circle class="cls-1" cx="389.71" cy="62.02" r="2.44"/><rect class="cls-6" x="592.55" y="81.83" width="6.68" height="6.68"/><circle class="cls-1" cx="595.9" cy="85.18" r="3.34"/><rect class="cls-6" x="793.12" y="91.55" width="4.27" height="4.27"/><circle class="cls-1" cx="795.25" cy="93.68" r="2.13"/><rect class="cls-6" x="792.62" y="41.1" width="5.25" height="5.25"/><circle class="cls-1" cx="795.24" cy="43.73" r="2.62"/><rect class="cls-6" x="755.93" y="64" width="5.31" height="5.31"/><circle class="cls-1" cx="758.59" cy="66.65" r="2.65"/><rect class="cls-6" x="671.18" y="113.88" width="3.37" height="3.37"/><circle class="cls-1" cx="672.87" cy="115.56" r="1.68"/><rect class="cls-6" x="791.49" y="75.22" width="4.92" height="4.92"/><circle class="cls-1" cx="793.94" cy="77.68" r="2.46"/><rect class="cls-6" x="980.21" y="66.15" width="5.44" height="5.44"/><circle class="cls-1" cx="982.93" cy="68.87" r="2.72"/><rect class="cls-6" x="1100.05" y="58.76" width="8.12" height="8.12"/><circle class="cls-1" cx="1104.11" cy="62.82" r="4.06"/><rect class="cls-6" x="1165.92" y="61.32" width="3.72" height="3.72"/><circle class="cls-1" cx="1167.78" cy="63.18" r="1.86"/><rect class="cls-6" x="1095.05" y="114.53" width="8.11" height="8.11"/><circle class="cls-1" cx="1099.11" cy="118.59" r="4.05"/><rect class="cls-6" x="1247.42" y="63.81" width="7.04" height="7.04"/><circle class="cls-1" cx="1250.94" cy="67.32" r="3.52"/><rect class="cls-6" x="1395.97" y="43.06" width="4.75" height="4.75"/><circle class="cls-1" cx="1398.35" cy="45.43" r="2.38"/><rect class="cls-6" x="1479.59" y="52.07" width="6.72" height="6.72"/><circle class="cls-1" cx="1482.95" cy="55.43" r="3.36"/><rect class="cls-6" x="1321.77" y="137.04" width="4.74" height="4.74"/><circle class="cls-1" cx="1324.14" cy="139.41" r="2.37"/><rect class="cls-6" x="1490.86" y="102.85" width="4.02" height="4.02"/><circle class="cls-1" cx="1492.87" cy="104.86" r="2.01"/><rect class="cls-6" x="1507.47" y="104.95" width="7.09" height="7.09"/><circle class="cls-1" cx="1511.02" cy="108.5" r="3.55"/><rect class="cls-6" x="1464.01" y="145.87" width="6.67" height="6.67"/><circle class="cls-1" cx="1467.35" cy="149.2" r="3.33"/><rect class="cls-6" x="1422.26" y="186.57" width="5.79" height="5.79"/><circle class="cls-1" cx="1425.15" cy="189.46" r="2.89"/><rect class="cls-6" x="1471.11" y="154.66" width="8.35" height="8.35"/><circle class="cls-1" cx="1475.28" cy="158.84" r="4.18"/><rect class="cls-6" x="1382.64" y="215.39" width="5.23" height="5.23"/><circle class="cls-1" cx="1385.26" cy="218.01" r="2.62"/><rect class="cls-6" x="1295.66" y="116.05" width="4.03" height="4.03"/><circle class="cls-1" cx="1297.67" cy="118.07" r="2.01"/><rect class="cls-6" x="1202.23" y="67.82" width="4.09" height="4.09"/><circle class="cls-1" cx="1204.28" cy="69.87" r="2.05"/><rect class="cls-6" x="1155.64" y="95.58" width="6.03" height="6.03"/><circle class="cls-1" cx="1158.65" cy="98.6" r="3.02"/><rect class="cls-6" x="1037.93" y="97.4" width="6.95" height="6.95"/><circle class="cls-1" cx="1041.41" cy="100.88" r="3.47"/><rect class="cls-6" x="1011.15" y="101.83" width="3.76" height="3.76"/><circle class="cls-1" cx="1013.03" cy="103.71" r="1.88"/><rect class="cls-6" x="911.87" y="80.88" width="5.24" height="5.24"/><circle class="cls-1" cx="914.49" cy="83.5" r="2.62"/><rect class="cls-6" x="839.3" y="89.1" width="4.74" height="4.74"/><circle class="cls-1" cx="841.67" cy="91.47" r="2.37"/><rect class="cls-6" x="721.56" y="98.77" width="3.6" height="3.6"/><circle class="cls-1" cx="723.36" cy="100.57" r="1.8"/><rect class="cls-6" x="699.19" y="99.89" width="4.24" height="4.24"/><circle class="cls-1" cx="701.31" cy="102.02" r="2.12"/><rect class="cls-6" x="627.5" y="121.8" width="3.1" height="3.1"/><circle class="cls-1" cx="629.05" cy="123.35" r="1.55"/><rect class="cls-6" x="460.37" y="160.59" width="8.99" height="8.99"/><circle class="cls-1" cx="464.86" cy="165.08" r="4.49"/><rect class="cls-6" x="468.73" y="140.87" width="7.16" height="7.16"/><circle class="cls-1" cx="472.31" cy="144.44" r="3.58"/><rect class="cls-6" x="282.61" y="224.62" width="6.72" height="6.72"/><circle class="cls-1" cx="285.97" cy="227.98" r="3.36"/><rect class="cls-6" x="194.09" y="355.36" width="8.26" height="8.26"/><circle class="cls-1" cx="198.22" cy="359.49" r="4.13"/><rect class="cls-6" x="230.44" y="369.04" width="4.4" height="4.4"/><circle class="cls-1" cx="232.64" cy="371.24" r="2.2"/><rect class="cls-6" x="414.61" y="201.9" width="7.64" height="7.64"/><circle class="cls-1" cx="418.43" cy="205.72" r="3.82"/><rect class="cls-6" x="187.68" y="324.58" width="6.55" height="6.55"/><circle class="cls-1" cx="190.96" cy="327.86" r="3.27"/><rect class="cls-6" x="373.91" y="328.87" width="6.9" height="6.9"/><circle class="cls-1" cx="377.36" cy="332.32" r="3.45"/><rect class="cls-6" x="410.36" y="347.46" width="7.6" height="7.6"/><circle class="cls-1" cx="414.16" cy="351.26" r="3.8"/><rect class="cls-6" x="539.68" y="299.88" width="5.13" height="5.13"/><circle class="cls-1" cx="542.24" cy="302.44" r="2.56"/><rect class="cls-6" x="602.45" y="292.56" width="6.81" height="6.81"/><circle class="cls-1" cx="605.85" cy="295.96" r="3.4"/><rect class="cls-6" x="708.49" y="313.11" width="3.25" height="3.25"/><circle class="cls-1" cx="710.11" cy="314.74" r="1.62"/><rect class="cls-6" x="726.69" y="299.8" width="5.43" height="5.43"/><circle class="cls-1" cx="729.41" cy="302.51" r="2.71"/><rect class="cls-6" x="701.16" y="312.02" width="3.02" height="3.02"/><circle class="cls-1" cx="702.67" cy="313.53" r="1.51"/><rect class="cls-6" x="643.29" y="343.37" width="6.25" height="6.25"/><circle class="cls-1" cx="646.42" cy="346.5" r="3.13"/><rect class="cls-6" x="513.88" y="331.73" width="5.68" height="5.68"/><circle class="cls-1" cx="516.72" cy="334.56" r="2.84"/><rect class="cls-6" x="513.78" y="310.13" width="5.74" height="5.74"/><circle class="cls-1" cx="516.65" cy="313" r="2.87"/><rect class="cls-6" x="577.52" y="287.25" width="3.5" height="3.5"/><circle class="cls-1" cx="579.27" cy="289" r="1.75"/><rect class="cls-6" x="778.38" y="278.15" width="4.42" height="4.42"/><circle class="cls-1" cx="780.59" cy="280.37" r="2.21"/><rect class="cls-6" x="950.22" y="184.95" width="8.16" height="8.16"/><circle class="cls-1" cx="954.29" cy="189.03" r="4.08"/><rect class="cls-6" x="889.3" y="197.41" width="6.94" height="6.94"/><circle class="cls-1" cx="892.77" cy="200.88" r="3.47"/><rect class="cls-6" x="778.63" y="225.59" width="4.37" height="4.37"/><circle class="cls-1" cx="780.81" cy="227.77" r="2.19"/><rect class="cls-6" x="727.35" y="227.63" width="8.11" height="8.11"/><circle class="cls-1" cx="731.41" cy="231.69" r="4.06"/><rect class="cls-6" x="641.8" y="226.87" width="7.25" height="7.25"/><circle class="cls-1" cx="645.42" cy="230.49" r="3.63"/><rect class="cls-6" x="718.54" y="265.12" width="6.9" height="6.9"/><circle class="cls-1" cx="722" cy="268.57" r="3.45"/><rect class="cls-6" x="972.14" y="234.16" width="8.55" height="8.55"/><circle class="cls-1" cx="976.41" cy="238.44" r="4.27"/><rect class="cls-6" x="1117.41" y="235.28" width="7.48" height="7.48"/><circle class="cls-1" cx="1121.15" cy="239.02" r="3.74"/><rect class="cls-6" x="1283.29" y="274.44" width="5.62" height="5.62"/><circle class="cls-1" cx="1286.11" cy="277.25" r="2.81"/><rect class="cls-6" x="1066.6" y="260.64" width="7.81" height="7.81"/><circle class="cls-1" cx="1070.5" cy="264.55" r="3.91"/><rect class="cls-6" x="1034.05" y="266.99" width="6.89" height="6.89"/><circle class="cls-1" cx="1037.5" cy="270.43" r="3.44"/></g><g class="cls-5"><rect class="cls-6" x="1368.66" y="379.44" width="4.79" height="4.79"/><circle class="cls-1" cx="1371.05" cy="381.83" r="2.4"/><rect class="cls-6" x="1217.47" y="444.3" width="4.24" height="4.24"/><circle class="cls-1" cx="1219.59" cy="446.42" r="2.12"/><rect class="cls-6" x="1195.14" y="399.79" width="8.46" height="8.46"/><circle class="cls-1" cx="1199.37" cy="404.02" r="4.23"/><rect class="cls-6" x="1025.05" y="472.47" width="6.42" height="6.42"/><circle class="cls-1" cx="1028.26" cy="475.68" r="3.21"/><rect class="cls-6" x="938.46" y="454.6" width="4.57" height="4.57"/><circle class="cls-1" cx="940.75" cy="456.89" r="2.28"/><rect class="cls-6" x="793.97" y="435.47" width="5.54" height="5.54"/><circle class="cls-1" cx="796.74" cy="438.24" r="2.77"/><rect class="cls-6" x="683.5" y="438" width="6.01" height="6.01"/><circle class="cls-1" cx="686.5" cy="441.01" r="3.01"/><rect class="cls-6" x="612.59" y="427.06" width="3.5" height="3.5"/><circle class="cls-1" cx="614.34" cy="428.81" r="1.75"/><rect class="cls-6" x="742.77" y="410.42" width="7.28" height="7.28"/><circle class="cls-1" cx="746.41" cy="414.06" r="3.64"/><rect class="cls-6" x="740.78" y="392.78" width="7.69" height="7.69"/><circle class="cls-1" cx="744.62" cy="396.63" r="3.84"/><rect class="cls-6" x="613.76" y="402.76" width="5.36" height="5.36"/><circle class="cls-1" cx="616.44" cy="405.45" r="2.68"/><rect class="cls-6" x="588.44" y="418.38" width="7.4" height="7.4"/><circle class="cls-1" cx="592.14" cy="422.08" r="3.7"/><rect class="cls-6" x="565.59" y="409.74" width="6.49" height="6.49"/><circle class="cls-1" cx="568.83" cy="412.98" r="3.24"/><rect class="cls-6" x="625.41" y="352.51" width="4.11" height="4.11"/><circle class="cls-1" cx="627.46" cy="354.57" r="2.05"/><rect class="cls-6" x="730.77" y="374.47" width="6.25" height="6.25"/><circle class="cls-1" cx="733.89" cy="377.59" r="3.12"/><rect class="cls-6" x="974.08" y="488.19" width="7.29" height="7.29"/><circle class="cls-1" cx="977.72" cy="491.83" r="3.65"/><rect class="cls-6" x="1051.98" y="483.22" width="4.21" height="4.21"/><circle class="cls-1" cx="1054.08" cy="485.32" r="2.11"/><rect class="cls-6" x="1127.07" y="480.11" width="4.66" height="4.66"/><circle class="cls-1" cx="1129.39" cy="482.44" r="2.33"/><rect class="cls-6" x="1275.04" y="403.23" width="8.71" height="8.71"/><circle class="cls-1" cx="1279.39" cy="407.59" r="4.35"/><rect class="cls-6" x="1157.68" y="286.88" width="5.34" height="5.34"/><circle class="cls-1" cx="1160.35" cy="289.55" r="2.67"/><rect class="cls-6" x="1348.32" y="330.26" width="6.16" height="6.16"/><circle class="cls-1" cx="1351.4" cy="333.33" r="3.08"/><rect class="cls-6" x="1325.07" y="149.28" width="3.03" height="3.03"/><circle class="cls-1" cx="1326.59" cy="150.8" r="1.52"/><rect class="cls-6" x="1229.33" y="153.73" width="4.88" height="4.88"/><circle class="cls-1" cx="1231.77" cy="156.17" r="2.44"/><rect class="cls-6" x="1021.53" y="125.22" width="6.68" height="6.68"/><circle class="cls-1" cx="1024.87" cy="128.57" r="3.34"/><rect class="cls-6" x="746.41" y="159.95" width="4.27" height="4.27"/><circle class="cls-1" cx="748.54" cy="162.08" r="2.13"/><rect class="cls-6" x="772.11" y="324.39" width="5.25" height="5.25"/><circle class="cls-1" cx="774.73" cy="327.01" r="2.62"/><rect class="cls-6" x="832.76" y="335.49" width="5.31" height="5.31"/><circle class="cls-1" cx="835.41" cy="338.14" r="2.65"/><rect class="cls-6" x="973.35" y="182.14" width="3.37" height="3.37"/><circle class="cls-1" cx="975.04" cy="183.82" r="1.68"/><rect class="cls-6" x="835.03" y="168.82" width="4.92" height="4.92"/><circle class="cls-1" cx="837.48" cy="171.28" r="2.46"/><rect class="cls-6" x="636.81" y="137.1" width="5.44" height="5.44"/><circle class="cls-1" cx="639.53" cy="139.81" r="2.72"/><rect class="cls-6" x="503.71" y="151.44" width="8.12" height="8.12"/><circle class="cls-1" cx="507.77" cy="155.49" r="4.06"/><rect class="cls-6" x="416.83" y="297.33" width="3.72" height="3.72"/><circle class="cls-1" cx="418.69" cy="299.19" r="1.86"/><rect class="cls-6" x="618.06" y="224.27" width="8.11" height="8.11"/><circle class="cls-1" cx="622.11" cy="228.33" r="4.05"/><rect class="cls-6" x="378.56" y="109.45" width="7.04" height="7.04"/><circle class="cls-1" cx="382.08" cy="112.97" r="3.52"/><rect class="cls-6" x="100.02" y="288.57" width="6.72" height="6.72"/><circle class="cls-1" cx="103.39" cy="291.93" r="3.36"/><rect class="cls-6" x="367.26" y="220.2" width="4.74" height="4.74"/><circle class="cls-1" cx="369.63" cy="222.57" r="2.37"/><rect class="cls-6" x="144.34" y="385.98" width="6.67" height="6.67"/><circle class="cls-1" cx="147.67" cy="389.31" r="3.33"/><rect class="cls-6" x="197.1" y="266.83" width="5.79" height="5.79"/><circle class="cls-1" cx="199.99" cy="269.72" r="2.89"/><rect class="cls-6" x="69.57" y="406.83" width="8.35" height="8.35"/><circle class="cls-1" cx="73.75" cy="411.01" r="4.18"/><rect class="cls-6" x="271.15" y="438.04" width="5.23" height="5.23"/><circle class="cls-1" cx="273.76" cy="440.66" r="2.62"/><rect class="cls-6" x="365.84" y="349.67" width="4.03" height="4.03"/><circle class="cls-1" cx="367.86" cy="351.68" r="2.01"/><rect class="cls-6" x="415.33" y="358.2" width="4.09" height="4.09"/><circle class="cls-1" cx="417.38" cy="360.25" r="2.05"/><rect class="cls-6" x="445.34" y="334.05" width="6.03" height="6.03"/><circle class="cls-1" cx="448.35" cy="337.07" r="3.02"/><rect class="cls-6" x="564.62" y="382.08" width="6.95" height="6.95"/><circle class="cls-1" cx="568.1" cy="385.55" r="3.47"/><rect class="cls-6" x="614.66" y="384.5" width="3.76" height="3.76"/><circle class="cls-1" cx="616.54" cy="386.39" r="1.88"/><rect class="cls-6" x="726.28" y="369.01" width="5.24" height="5.24"/><circle class="cls-1" cx="728.9" cy="371.63" r="2.62"/><rect class="cls-6" x="791.04" y="334.55" width="4.74" height="4.74"/><circle class="cls-1" cx="793.41" cy="336.92" r="2.37"/><rect class="cls-6" x="852.7" y="374.96" width="3.6" height="3.6"/><circle class="cls-1" cx="854.5" cy="376.76" r="1.8"/><rect class="cls-6" x="869.72" y="388.34" width="4.24" height="4.24"/><circle class="cls-1" cx="871.85" cy="390.46" r="2.12"/><rect class="cls-6" x="977.62" y="407.65" width="3.1" height="3.1"/><circle class="cls-1" cx="979.17" cy="409.2" r="1.55"/><rect class="cls-6" x="1170.83" y="249.19" width="8.99" height="8.99"/><circle class="cls-1" cx="1175.32" cy="253.68" r="4.49"/><rect class="cls-6" x="1141.72" y="389.78" width="7.16" height="7.16"/><circle class="cls-1" cx="1145.3" cy="393.36" r="3.58"/><rect class="cls-6" x="1315.45" y="364.04" width="7.87" height="7.87"/><circle class="cls-1" cx="1319.38" cy="367.98" r="3.93"/><rect class="cls-6" x="1365.48" y="354.25" width="6.47" height="6.47"/><circle class="cls-1" cx="1368.71" cy="357.49" r="3.23"/><rect class="cls-6" x="1534.89" y="384.6" width="5.99" height="5.99"/><circle class="cls-1" cx="1537.89" cy="387.6" r="2.99"/><rect class="cls-6" x="1572.18" y="415.43" width="3.43" height="3.43"/><circle class="cls-1" cx="1573.9" cy="417.15" r="1.71"/><rect class="cls-6" x="1409.09" y="437.63" width="6.72" height="6.72"/><circle class="cls-1" cx="1412.45" cy="440.99" r="3.36"/><rect class="cls-6" x="1377.39" y="423.39" width="8.26" height="8.26"/><circle class="cls-1" cx="1381.52" cy="427.52" r="4.13"/><rect class="cls-6" x="1354.8" y="433.93" width="4.4" height="4.4"/><circle class="cls-1" cx="1357" cy="436.13" r="2.2"/><rect class="cls-6" x="1246.26" y="425.45" width="7.64" height="7.64"/><circle class="cls-1" cx="1250.08" cy="429.27" r="3.82"/><rect class="cls-6" x="1446.74" y="416.84" width="5.54" height="5.54"/><circle class="cls-1" cx="1449.51" cy="419.61" r="2.77"/><rect class="cls-6" x="1415.29" y="386.14" width="6.55" height="6.55"/><circle class="cls-1" cx="1418.56" cy="389.41" r="3.27"/><rect class="cls-6" x="1235.29" y="416.27" width="6.9" height="6.9"/><circle class="cls-1" cx="1238.74" cy="419.72" r="3.45"/><rect class="cls-6" x="1225.25" y="393.18" width="7.6" height="7.6"/><circle class="cls-1" cx="1229.05" cy="396.98" r="3.8"/><rect class="cls-6" x="1087.21" y="389.93" width="5.13" height="5.13"/><circle class="cls-1" cx="1089.78" cy="392.49" r="2.56"/><rect class="cls-6" x="1018.1" y="379.83" width="6.81" height="6.81"/><circle class="cls-1" cx="1021.51" cy="383.24" r="3.4"/><rect class="cls-6" x="851.7" y="370.14" width="3.25" height="3.25"/><circle class="cls-1" cx="853.33" cy="371.76" r="1.62"/><rect class="cls-6" x="828.45" y="519.16" width="5.43" height="5.43"/><circle class="cls-1" cx="831.17" cy="521.87" r="2.71"/><rect class="cls-6" x="863.65" y="559.39" width="3.02" height="3.02"/><circle class="cls-1" cx="865.16" cy="560.9" r="1.51"/><rect class="cls-6" x="955.71" y="578.08" width="6.25" height="6.25"/><circle class="cls-1" cx="958.84" cy="581.21" r="3.13"/><rect class="cls-6" x="1108.26" y="603.77" width="5.68" height="5.68"/><circle class="cls-1" cx="1111.1" cy="606.61" r="2.84"/><rect class="cls-6" x="1147.07" y="409.33" width="5.74" height="5.74"/><circle class="cls-1" cx="1149.94" cy="412.2" r="2.87"/><rect class="cls-6" x="1055.51" y="372.26" width="3.5" height="3.5"/><circle class="cls-1" cx="1057.26" cy="374.01" r="1.75"/><rect class="cls-6" x="838.94" y="354.32" width="4.42" height="4.42"/><circle class="cls-1" cx="841.15" cy="356.53" r="2.21"/><rect class="cls-6" x="607.23" y="462.95" width="8.16" height="8.16"/><circle class="cls-1" cx="611.3" cy="467.03" r="4.08"/><rect class="cls-6" x="703.67" y="494.13" width="6.94" height="6.94"/><circle class="cls-1" cx="707.14" cy="497.6" r="3.47"/><rect class="cls-6" x="837.24" y="484.05" width="4.37" height="4.37"/><circle class="cls-1" cx="839.43" cy="486.23" r="2.19"/><rect class="cls-6" x="884.74" y="477.79" width="8.11" height="8.11"/><circle class="cls-1" cx="888.79" cy="481.84" r="4.06"/><rect class="cls-6" x="977.38" y="467.59" width="7.25" height="7.25"/><circle class="cls-1" cx="981" cy="471.21" r="3.63"/><rect class="cls-6" x="918.3" y="315.5" width="6.9" height="6.9"/><circle class="cls-1" cx="921.75" cy="318.95" r="3.45"/><rect class="cls-6" x="637.11" y="310.03" width="8.55" height="8.55"/><circle class="cls-1" cx="641.38" cy="314.31" r="4.27"/><rect class="cls-6" x="491.42" y="319.73" width="7.48" height="7.48"/><circle class="cls-1" cx="495.16" cy="323.47" r="3.74"/><rect class="cls-6" x="243.21" y="379.36" width="5.62" height="5.62"/><circle class="cls-1" cx="246.02" cy="382.17" r="2.81"/><rect class="cls-6" x="553.24" y="516.59" width="7.81" height="7.81"/><circle class="cls-1" cx="557.15" cy="520.49" r="3.91"/><rect class="cls-6" x="585.17" y="505.48" width="6.89" height="6.89"/><circle class="cls-1" cx="588.61" cy="508.92" r="3.44"/></g><g class="cls-5"><path class="cls-7" d="M1368.53,80C1455.09,71.47,1571.47,62,1571.47,62"/><path class="cls-8" d="M1368.29,77.48q50.76-4.33,101.57-8.1T1571.47,62q-50.71,4.77-101.39,9.84t-101.3,10.59a2.5,2.5,0,1,1-.56-5Z"/></g><g class="cls-9"><path class="cls-10" d="M497.9,109.51c80.89-32,190.2-73,190.2-73"/><path class="cls-11" d="M497,107.19q47.63-18.14,95.43-35.71t95.68-35Q640.64,55,593.31,73.82t-94.49,38a2.5,2.5,0,1,1-1.89-4.63Z"/></g><g class="cls-9"><path class="cls-12" d="M569.9,106.51c80.89-32,190.2-73,190.2-73"/><path class="cls-13" d="M569,104.19q47.63-18.14,95.43-35.71t95.68-35Q712.64,52,665.31,70.82t-94.49,38a2.5,2.5,0,0,1-1.89-4.63Z"/></g><g class="cls-14"><path class="cls-15" d="M519.23,434.53c-115-69.61-268-165.57-268-165.57"/><path class="cls-16" d="M517.93,436.67q-67-41.35-133.63-83.41t-133-84.3q67.08,41.28,134.37,82.18t134.9,81.25a2.5,2.5,0,1,1-2.55,4.3Z"/></g><g class="cls-5"><path class="cls-17" d="M312.83,694.36c-125.55-48-293.17-115.22-293.17-115.22"/><path class="cls-18" d="M311.93,696.69q-73.33-28.76-146.34-58.28T19.66,579.14Q93,607.81,166.5,636.08T313.72,692a2.5,2.5,0,1,1-1.75,4.69Z"/></g><g class="cls-14"><path class="cls-19" d="M691.23,446.53c-115-69.61-268-165.57-268-165.57"/><path class="cls-20" d="M689.93,448.67q-67-41.35-133.63-83.41t-133-84.3q67.08,41.28,134.37,82.18t134.9,81.25a2.5,2.5,0,1,1-2.55,4.3Z"/></g><g class="cls-5"><path class="cls-21" d="M1454.66,381.36c125.54-48,293.17-115.22,293.17-115.22"/><path class="cls-22" d="M1453.76,379q73.76-27.57,147.22-55.94t146.85-56.94q-72.88,29.83-145.94,59.27t-146.34,58.28a2.5,2.5,0,0,1-1.83-4.65Z"/></g><g class="cls-5"><path class="cls-23" d="M1540.66,395.36c125.54-48,293.17-115.22,293.17-115.22"/><path class="cls-24" d="M1539.76,393q73.76-27.57,147.22-55.94t146.85-56.94q-72.88,29.83-145.94,59.27t-146.34,58.28a2.5,2.5,0,0,1-1.83-4.65Z"/></g><g class="cls-5"><path class="cls-25" d="M1200.66,516.36c125.54-48,293.17-115.22,293.17-115.22"/><path class="cls-26" d="M1199.76,514q73.76-27.57,147.22-55.94t146.85-56.94q-72.88,29.83-145.94,59.27t-146.34,58.28a2.5,2.5,0,0,1-1.83-4.65Z"/></g><g class="cls-27"><ellipse class="cls-28" cx="1146.69" cy="135.21" rx="33.52" ry="31.87" transform="matrix(0.81, -0.58, 0.58, 0.81, 137.34, 695.92)"/><rect class="cls-29" x="1175.26" y="128.98" width="8.1" height="4.05" transform="translate(596.12 -902.35) rotate(54.22)"/><circle class="cls-30" cx="1145.65" cy="135.97" r="27.44"/><line class="cls-31" x1="1162.96" y1="108.96" x2="1194.32" y2="86.92"/><line class="cls-31" x1="1172.22" y1="86.92" x2="1153.81" y2="100.35"/><line class="cls-32" x1="1189.16" y1="104.6" x2="1169.49" y2="118.91"/><rect class="cls-30" x="1173.31" y="130.97" width="11.42" height="3.68" transform="translate(597.46 -901.36) rotate(54.22)"/><line class="cls-31" x1="1200.58" y1="110.87" x2="1176.45" y2="128.3"/><line class="cls-31" x1="1193.21" y1="131.5" x2="1178.09" y2="142.55"/><line class="cls-33" x1="1171.49" y1="110.08" x2="1165.47" y2="114.64"/><line class="cls-33" x1="1181.11" y1="117.45" x2="1173.05" y2="123.26"/><line class="cls-33" x1="1184.93" y1="129.68" x2="1176.87" y2="135.49"/><line class="cls-34" x1="1226" y1="114.18" x2="1164.77" y2="158.57"/><line class="cls-35" x1="1189.53" y1="67.77" x2="1131.32" y2="109.76"/><rect class="cls-30" x="1129.59" y="114.01" width="54.71" height="27.82" transform="matrix(0.58, 0.81, -0.81, 0.58, 584.33, -885.48)"/><ellipse class="cls-36" cx="1145.6" cy="136.76" rx="23.48" ry="23.1"/><ellipse class="cls-37" cx="1142.74" cy="120.26" rx="8.29" ry="2.95" transform="translate(-5.98 147.93) rotate(-7.39)"/><ellipse class="cls-38" cx="1129.11" cy="144.94" rx="2.95" ry="8.29" transform="translate(59.59 534.84) rotate(-27.34)"/><ellipse class="cls-39" cx="1132.07" cy="130.33" rx="2.29" ry="4.77" transform="translate(6.07 305.53) rotate(-15.41)"/><ellipse class="cls-37" cx="1151.39" cy="133.89" rx="2.95" ry="8.29" transform="translate(870.56 1258.5) rotate(-82.61)"/><ellipse class="cls-38" cx="1162.06" cy="143.97" rx="4.77" ry="2.29" transform="translate(714.46 1225.98) rotate(-74.59)"/><ellipse class="cls-40" cx="1148.81" cy="153.78" rx="8.29" ry="2.95" transform="translate(-10.24 148.99) rotate(-7.39)"/><ellipse class="cls-41" cx="1145.7" cy="142.86" rx="4.77" ry="2.29" transform="translate(12.7 365) rotate(-18.2)"/><ellipse class="cls-38" cx="1159.48" cy="125.18" rx="2.29" ry="4.77" transform="translate(218.2 813.69) rotate(-42.35)"/><line class="cls-42" x1="1202.42" y1="72.56" x2="1155.93" y2="106.26"/><line class="cls-43" x1="1201.5" y1="88.95" x2="1166.98" y2="113.63"/><line class="cls-44" x1="1218.63" y1="90.24" x2="1176.92" y2="120.26"/><line class="cls-45" x1="1211.63" y1="110.87" x2="1178.03" y2="134.63"/></g><g class="cls-27"><ellipse class="cls-46" cx="1043.99" cy="619.13" rx="35.61" ry="33.85" transform="translate(-168.45 676.01) rotate(-33.36)"/><rect class="cls-29" x="1074.49" y="613.98" width="8.61" height="4.3" transform="translate(1000.27 -623.72) rotate(56.64)"/><circle class="cls-30" cx="1042.84" cy="619.89" r="29.16"/><line class="cls-31" x1="1062.43" y1="592" x2="1096.7" y2="570.02"/><line class="cls-31" x1="1073.24" y1="569.02" x2="1053.1" y2="582.45"/><line class="cls-32" x1="1090.43" y1="588.55" x2="1068.92" y2="602.85"/><rect class="cls-30" x="1072.33" y="616.08" width="12.13" height="3.91" transform="translate(1001.68 -622.54) rotate(56.64)"/><line class="cls-31" x1="1102.27" y1="595.71" x2="1075.88" y2="613.13"/><line class="cls-31" x1="1093.53" y1="617.28" x2="1076.98" y2="628.34"/><line class="cls-33" x1="1071.43" y1="593.57" x2="1064.84" y2="598.14"/><line class="cls-33" x1="1081.32" y1="601.82" x2="1072.49" y2="607.63"/><line class="cls-33" x1="1084.82" y1="614.98" x2="1076" y2="620.79"/><line class="cls-47" x1="1129.11" y1="600.37" x2="1062.12" y2="644.74"/><line class="cls-48" x1="1092.48" y1="549.47" x2="1028.82" y2="591.43"/><rect class="cls-30" x="1026.13" y="597.08" width="58.12" height="29.56" transform="translate(986.07 -605.93) rotate(56.64)"/><ellipse class="cls-49" cx="1042.75" cy="620.73" rx="24.54" ry="24.95" transform="translate(378.52 1636.32) rotate(-87.58)"/><ellipse class="cls-37" cx="1040.47" cy="603.09" rx="8.81" ry="3.13" transform="translate(-48.3 92.33) rotate(-4.97)"/><ellipse class="cls-38" cx="1024.89" cy="628.67" rx="3.13" ry="8.81" transform="translate(-169.48 490.43) rotate(-24.92)"/><ellipse class="cls-39" cx="1028.69" cy="613.3" rx="2.43" ry="5.07" transform="translate(-111.53 246.91) rotate(-12.99)"/><ellipse class="cls-37" cx="1049.03" cy="617.94" rx="3.13" ry="8.81" transform="translate(261.4 1546.35) rotate(-80.19)"/><ellipse class="cls-38" cx="1059.9" cy="629.11" rx="5.07" ry="2.43" transform="translate(136.43 1445.43) rotate(-72.17)"/><ellipse class="cls-40" cx="1045.4" cy="638.94" rx="8.81" ry="3.13" transform="translate(-51.38 92.89) rotate(-4.97)"/><ellipse class="cls-41" cx="1042.59" cy="627.21" rx="5.07" ry="2.43" transform="translate(-131.27 307.14) rotate(-15.78)"/><ellipse class="cls-38" cx="1058.01" cy="609.06" rx="2.43" ry="5.07" transform="translate(-144.25 820.98) rotate(-39.92)"/><line class="cls-50" x1="1105.95" y1="555.13" x2="1055.08" y2="588.82"/><line class="cls-51" x1="1104.24" y1="572.49" x2="1066.48" y2="597.14"/><line class="cls-52" x1="1122.36" y1="574.63" x2="1076.74" y2="604.62"/><line class="cls-53" x1="1114" y1="596.21" x2="1077.27" y2="619.92"/></g><g class="cls-27"><ellipse class="cls-54" cx="178.75" cy="574.19" rx="35.61" ry="33.85" transform="translate(-301.96 212.86) rotate(-35.78)"/><rect class="cls-29" x="209.09" y="567.57" width="8.61" height="4.3" transform="matrix(0.58, 0.81, -0.81, 0.58, 550.85, 63.51)"/><circle class="cls-30" cx="177.64" cy="574.99" r="29.16"/><line class="cls-31" x1="196.03" y1="546.3" x2="229.34" y2="522.89"/><line class="cls-31" x1="205.86" y1="522.89" x2="186.31" y2="537.15"/><line class="cls-32" x1="223.86" y1="541.67" x2="202.97" y2="556.87"/><rect class="cls-30" x="207.02" y="569.68" width="12.13" height="3.91" transform="translate(552.27 64.56) rotate(54.22)"/><line class="cls-31" x1="236" y1="548.33" x2="210.36" y2="566.85"/><line class="cls-31" x1="228.17" y1="570.24" x2="212.11" y2="581.99"/><line class="cls-33" x1="205.09" y1="547.49" x2="198.7" y2="552.34"/><line class="cls-33" x1="215.32" y1="555.32" x2="206.74" y2="561.49"/><line class="cls-33" x1="219.37" y1="568.31" x2="210.8" y2="574.49"/><line class="cls-55" x1="263" y1="551.85" x2="197.95" y2="599.01"/><line class="cls-56" x1="224.26" y1="502.54" x2="162.42" y2="547.15"/><rect class="cls-30" x="160.58" y="551.67" width="58.12" height="29.56" transform="translate(538.32 81.43) rotate(54.22)"/><ellipse class="cls-57" cx="177.59" cy="575.83" rx="24.95" ry="24.54"/><ellipse class="cls-37" cx="174.55" cy="558.31" rx="8.81" ry="3.13" transform="translate(-70.34 27.08) rotate(-7.39)"/><ellipse class="cls-38" cx="160.07" cy="584.53" rx="3.13" ry="8.81" transform="translate(-250.61 138.84) rotate(-27.34)"/><ellipse class="cls-39" cx="163.22" cy="569.01" rx="2.43" ry="5.07" transform="translate(-145.34 63.83) rotate(-15.41)"/><ellipse class="cls-37" cx="183.73" cy="572.79" rx="3.13" ry="8.81" transform="translate(-407.92 681.35) rotate(-82.61)"/><ellipse class="cls-38" cx="195.07" cy="583.49" rx="5.07" ry="2.43" transform="translate(-419.28 616.49) rotate(-74.59)"/><ellipse class="cls-40" cx="180.99" cy="593.92" rx="8.81" ry="3.13" transform="translate(-74.86 28.2) rotate(-7.39)"/><ellipse class="cls-41" cx="177.7" cy="582.31" rx="5.07" ry="2.43" transform="translate(-172.99 84.64) rotate(-18.2)"/><ellipse class="cls-38" cx="192.33" cy="563.53" rx="2.43" ry="5.07" transform="translate(-329.42 276.59) rotate(-42.35)"/><line class="cls-58" x1="237.95" y1="507.63" x2="188.56" y2="543.43"/><line class="cls-59" x1="236.97" y1="525.04" x2="200.3" y2="551.26"/><line class="cls-60" x1="255.17" y1="526.41" x2="210.86" y2="558.31"/><line class="cls-61" x1="247.74" y1="548.33" x2="212.04" y2="573.57"/></g><g class="cls-62"><g class="cls-63"><path class="cls-64" d="M714.71,340l15.11-2,29.85-4.05c1.06-.14,2,.23,2.07.83h0c.08.6-.71,1.2-1.77,1.35l-11.87,1.61c-1.06.14-1.86.75-1.77,1.35s1,1,2.06.83l21-2.85c1.06-.15,2,.22,2.06.83s-.71,1.2-1.77,1.34l-26.06,3.54c-1.06.15-1.85.75-1.77,1.35h0c.08.6,1,1,2.07.83l19.9-2.7c1.06-.15,2,.22,2.07.83s-.71,1.2-1.77,1.34l-14.82,2c-1.06.14-1.85.74-1.77,1.35s1,1,2.06.82l22.58-3.06c1.06-.15,2,.22,2.07.83h0c.08.6-.71,1.2-1.77,1.35l-33.29,4.51c-1.06.15-1.85.75-1.77,1.35s1,1,2.07.83l19.9-2.7c1.06-.14,2,.23,2.07.83s-.71,1.2-1.77,1.35l-9.2,1.25c-1.06.14-1.85.74-1.77,1.34h0c.08.61,1,1,2.07.83L768,355c1.06-.14,2,.23,2.07.83s-.71,1.21-1.77,1.35L743,360.57c-1.06.14-1.85.75-1.77,1.35s1,1,2.07.83l30.61-4.16c1.06-.14,2,.23,2.06.83h0c.09.6-.71,1.2-1.77,1.35l-22.58,3.06c-1.06.15-1.85.75-1.77,1.35s1,1,2.07.83l9.2-1.25c1.05-.14,2,.23,2.06.83s-.71,1.21-1.77,1.35l-27.17,3.69-15.11,2.05c-1.06.14-2-.23-2.07-.83l-4.14-30.48C712.86,340.77,713.66,340.17,714.71,340Z"/></g><g class="cls-65"><path class="cls-64" d="M719.79,339.33l-15.11,2.06-29.85,4.05c-1.06.14-1.87.59-1.82,1h0c.06.41,1,.62,2,.48l11.87-1.61c1.06-.15,2,.07,2,.48s-.76.86-1.81,1l-21,2.85c-1.06.14-1.87.59-1.82,1s1,.62,2,.48l26.06-3.54c1.06-.14,2,.07,2,.48h0c.06.41-.76.86-1.82,1l-19.9,2.7c-1.06.15-1.87.6-1.82,1s1,.63,2,.48l14.82-2c1.06-.14,2,.07,2,.48s-.76.86-1.82,1l-22.58,3.07c-1.06.14-1.87.59-1.82,1h0c.06.41,1,.62,2,.48l33.29-4.52c1.06-.14,2,.07,2,.48s-.76.86-1.82,1l-19.9,2.7c-1.06.15-1.88.6-1.82,1s1,.62,2,.48l9.19-1.25c1.06-.15,2,.07,2,.48h0c.06.41-.76.85-1.82,1L671.49,361c-1.06.14-1.88.59-1.82,1s1,.62,2,.48L697,359c1.06-.14,2,.07,2,.48s-.75.86-1.81,1l-30.61,4.16c-1.06.14-1.88.59-1.82,1h0c0,.41,1,.62,2,.48l22.58-3.07c1.06-.14,2,.07,2,.48s-.76.86-1.82,1l-9.2,1.25c-1.06.15-1.87.59-1.82,1s1,.63,2,.48l27.18-3.69,15.11-2.05c1.06-.14,1.87-.59,1.81-1l-2.81-20.74C721.75,339.41,720.85,339.19,719.79,339.33Z"/></g><circle class="cls-66" cx="718.21" cy="347.05" r="36.47"/><circle class="cls-67" cx="718.69" cy="347.05" r="29.11"/><g class="cls-68"><path class="cls-69" d="M753.55,312.94,738.45,315l-29.86,4.06a1.92,1.92,0,0,0-1.65,2.17h0a1.93,1.93,0,0,0,2.18,1.66l11.6-1.57a2.22,2.22,0,0,1,1.92.62c1.31,1.32,0,3-1.4,3.21l-20.63,2.8a2,2,0,0,0-1.75,1.95,1.93,1.93,0,0,0,2.2,1.9l26.06-3.54a1.94,1.94,0,0,1,2.18,1.66h0a1.94,1.94,0,0,1-1.66,2.18l-19.83,2.69a2,2,0,0,0-1.75,2,1.94,1.94,0,0,0,2.2,1.9l14.74-2a2,2,0,0,1,2.2,1.41,1.93,1.93,0,0,1-1.61,2.41L701,343.52a1.92,1.92,0,0,0-1.65,2.18h0a1.93,1.93,0,0,0,2.17,1.66l33.22-4.51a2,2,0,0,1,2.2,1.41,1.93,1.93,0,0,1-1.61,2.41l-19.83,2.7a2,2,0,0,0-1.75,1.94,1.93,1.93,0,0,0,2.2,1.9l9.2-1.25a1.93,1.93,0,0,1,2.17,1.66h0a1.92,1.92,0,0,1-1.65,2.18l-17.16,2.33a2,2,0,0,0-1.75,1.95A2,2,0,0,0,709,362l25.19-3.42a2,2,0,0,1,2.2,1.41,1.93,1.93,0,0,1-1.61,2.41l-30.61,4.16a1.94,1.94,0,0,0-1.66,2.18h0a1.94,1.94,0,0,0,2.18,1.66l22.51-3.06a2,2,0,0,1,2.2,1.41,1.94,1.94,0,0,1-1.61,2.42l-9.12,1.24a2,2,0,0,0-1.75,1.94,1.93,1.93,0,0,0,2.2,1.9l27.17-3.69,15.11-2.05a1.94,1.94,0,0,0,1.66-2.18l-7.3-53.71A1.94,1.94,0,0,0,753.55,312.94Z"/></g></g><g class="cls-70"><g class="cls-71"><path class="cls-64" d="M1421.58,247.41l-10.8-2.1-21.34-4.15c-.76-.14-1.44.09-1.53.52h0c-.08.42.47.89,1.22,1l8.49,1.65c.76.15,1.31.61,1.22,1s-.76.66-1.52.52l-15-2.92c-.75-.15-1.43.08-1.52.51s.46.9,1.22,1l18.64,3.62c.75.15,1.3.62,1.22,1.05h0c-.09.42-.77.65-1.53.51L1386.12,247c-.76-.15-1.44.08-1.52.51s.46.9,1.22,1l10.59,2.06c.76.14,1.31.61,1.22,1s-.76.66-1.52.51L1380,249c-.76-.15-1.44.08-1.53.51h0c-.08.43.47.9,1.22,1l23.8,4.63c.76.15,1.31.61,1.23,1s-.77.66-1.53.51L1388.93,254c-.76-.15-1.44.08-1.52.51s.46.9,1.22,1.05l6.57,1.27c.76.15,1.31.62,1.22,1.05h0c-.08.43-.76.66-1.52.51L1382.58,256c-.75-.15-1.44.08-1.52.51s.46.9,1.22,1l18.06,3.51c.76.15,1.3.62,1.22,1.05s-.76.66-1.52.51l-21.89-4.25c-.76-.15-1.44.08-1.52.51h0c-.09.43.46.9,1.22,1l16.14,3.14c.76.15,1.31.62,1.22,1.05s-.76.65-1.52.51l-6.57-1.28c-.76-.15-1.44.08-1.53.51s.47.9,1.22,1.05l19.43,3.77,10.81,2.1c.75.15,1.44-.08,1.52-.51l4.24-21.79C1422.89,248,1422.34,247.56,1421.58,247.41Z"/></g><g class="cls-72"><path class="cls-64" d="M1418,246.71l10.8,2.1L1450.1,253c.76.15,1.33.51,1.27.8h0c0,.29-.71.41-1.47.26l-8.49-1.65c-.76-.14-1.42,0-1.48.27s.51.64,1.27.79l15,2.92c.76.14,1.32.5,1.27.79s-.72.41-1.48.27l-18.63-3.63c-.76-.14-1.42,0-1.47.27h0c-.06.29.51.65,1.26.79l14.24,2.77c.75.15,1.32.5,1.26.8s-.71.41-1.47.26l-10.6-2.06c-.75-.15-1.41,0-1.47.26s.51.65,1.27.8l16.14,3.14c.76.14,1.33.5,1.27.79h0c0,.29-.71.41-1.47.27l-23.8-4.63c-.76-.15-1.42,0-1.48.26s.51.65,1.27.8l14.23,2.76c.76.15,1.33.51,1.27.8s-.72.41-1.47.26l-6.58-1.27c-.76-.15-1.42,0-1.47.26h0c-.06.29.51.65,1.27.79l12.31,2.4c.76.15,1.33.5,1.27.79s-.72.41-1.47.27l-18.06-3.51c-.76-.15-1.42,0-1.48.26s.51.65,1.27.8l21.89,4.25c.76.15,1.32.5,1.27.8h0c-.06.29-.72.41-1.48.26l-16.14-3.14c-.76-.15-1.42,0-1.48.26s.51.65,1.27.8l6.58,1.28c.76.15,1.32.5,1.27.79s-.72.42-1.48.27l-19.43-3.78-10.8-2.1c-.76-.15-1.33-.5-1.27-.79l2.88-14.83C1416.54,246.68,1417.2,246.56,1418,246.71Z"/></g><circle class="cls-66" cx="1418.78" cy="252.33" r="26.32"/><circle class="cls-67" cx="1418.43" cy="252.31" r="21.01"/><g class="cls-73"><path class="cls-69" d="M1394.71,226.3l10.8,2.1,21.35,4.15a1.39,1.39,0,0,1,1.1,1.63h0a1.39,1.39,0,0,1-1.64,1.11l-8.29-1.61a1.63,1.63,0,0,0-1.41.36,1.41,1.41,0,0,0,.87,2.38l14.76,2.87a1.43,1.43,0,0,1,1.18,1.47,1.39,1.39,0,0,1-1.66,1.28l-18.64-3.62a1.4,1.4,0,0,0-1.64,1.1h0a1.4,1.4,0,0,0,1.11,1.64l14.18,2.76a1.43,1.43,0,0,1,1.18,1.47,1.39,1.39,0,0,1-1.66,1.28l-10.55-2a1.44,1.44,0,0,0-1.64.93,1.39,1.39,0,0,0,1.06,1.81l16.14,3.13a1.4,1.4,0,0,1,1.11,1.64h0a1.41,1.41,0,0,1-1.64,1.11L1407,248.62a1.44,1.44,0,0,0-1.64.93,1.38,1.38,0,0,0,1.06,1.8l14.18,2.76a1.44,1.44,0,0,1,1.18,1.48,1.4,1.4,0,0,1-1.67,1.27l-6.57-1.27a1.39,1.39,0,0,0-1.64,1.1h0a1.4,1.4,0,0,0,1.11,1.64l12.26,2.38a1.44,1.44,0,0,1,1.18,1.48,1.4,1.4,0,0,1-1.66,1.28l-18-3.5a1.42,1.42,0,0,0-1.64.92,1.39,1.39,0,0,0,1.06,1.81l21.89,4.25a1.4,1.4,0,0,1,1.1,1.64h0a1.41,1.41,0,0,1-1.64,1.11l-16.09-3.13a1.44,1.44,0,0,0-1.65.93,1.4,1.4,0,0,0,1.06,1.8l6.53,1.27a1.44,1.44,0,0,1,1.18,1.48,1.39,1.39,0,0,1-1.66,1.27l-19.44-3.77-10.8-2.1a1.39,1.39,0,0,1-1.1-1.64l7.46-38.41A1.4,1.4,0,0,1,1394.71,226.3Z"/></g></g><g class="cls-70"><g class="cls-74"><path class="cls-64" d="M466.58,661.41l-10.8-2.1-21.34-4.15c-.76-.14-1.44.09-1.53.52h0c-.08.42.47.89,1.22,1l8.49,1.65c.76.15,1.31.61,1.22,1s-.76.66-1.52.52l-15-2.92c-.75-.15-1.43.08-1.52.51s.46.9,1.22,1.05l18.64,3.62c.75.15,1.3.62,1.22,1h0c-.09.42-.77.65-1.53.51L431.12,661c-.76-.15-1.44.08-1.52.51s.46.9,1.22,1l10.59,2.06c.76.14,1.31.61,1.22,1s-.76.66-1.52.51L425,663c-.76-.15-1.44.08-1.53.51h0c-.08.43.47.9,1.22,1l23.8,4.63c.76.15,1.31.61,1.23,1s-.77.66-1.53.51L433.93,668c-.76-.15-1.44.08-1.52.51s.46.9,1.22,1l6.57,1.27c.76.15,1.31.62,1.22,1h0c-.08.43-.76.66-1.52.51L427.58,670c-.75-.15-1.44.08-1.52.51s.46.9,1.22,1l18.06,3.51c.76.15,1.3.62,1.22,1.05s-.76.66-1.52.51l-21.89-4.25c-.76-.15-1.44.08-1.52.51h0c-.09.43.46.9,1.22,1L439,677.05c.76.15,1.31.62,1.22,1.05s-.76.65-1.52.51l-6.57-1.28c-.76-.15-1.44.08-1.53.51s.47.9,1.22,1l19.43,3.77,10.81,2.1c.75.15,1.44-.08,1.52-.51l4.24-21.79C467.89,662,467.34,661.56,466.58,661.41Z"/></g><g class="cls-75"><path class="cls-64" d="M463,660.71l10.8,2.1L495.1,667c.76.15,1.33.51,1.27.8h0c-.05.29-.71.41-1.47.26l-8.49-1.65c-.76-.14-1.42,0-1.48.27s.51.64,1.27.79l15,2.92c.76.14,1.32.5,1.27.79s-.72.41-1.48.27l-18.63-3.63c-.76-.14-1.42,0-1.47.27h0c-.06.29.51.65,1.26.79l14.24,2.77c.75.15,1.32.5,1.26.8s-.71.41-1.47.26l-10.6-2.06c-.75-.15-1.41,0-1.47.26s.51.65,1.27.8l16.14,3.14c.76.14,1.33.5,1.27.79h0c-.05.29-.71.41-1.47.27l-23.8-4.63c-.76-.15-1.42,0-1.48.26s.51.65,1.27.8l14.23,2.76c.76.15,1.33.51,1.27.8s-.72.41-1.47.26l-6.58-1.27c-.76-.15-1.42,0-1.47.26h0c-.06.29.51.65,1.27.79l12.31,2.4c.76.15,1.33.5,1.27.79s-.72.41-1.47.27l-18.06-3.51c-.76-.15-1.42,0-1.48.26s.51.65,1.27.8l21.89,4.25c.76.15,1.32.5,1.27.8h0c-.06.29-.72.41-1.48.26l-16.14-3.14c-.76-.15-1.42,0-1.48.26s.51.65,1.27.8l6.58,1.28c.76.15,1.32.5,1.27.79s-.72.42-1.48.27l-19.43-3.78-10.8-2.1c-.76-.15-1.33-.5-1.27-.79L461.48,661C461.54,660.68,462.2,660.56,463,660.71Z"/></g><circle class="cls-66" cx="463.78" cy="666.33" r="26.32"/><circle class="cls-67" cx="463.43" cy="666.31" r="21.01"/><g class="cls-76"><path class="cls-69" d="M439.71,640.3l10.8,2.1,21.35,4.15a1.39,1.39,0,0,1,1.1,1.63h0a1.39,1.39,0,0,1-1.64,1.11L463,647.68a1.63,1.63,0,0,0-1.41.36,1.41,1.41,0,0,0,.87,2.38l14.76,2.87a1.43,1.43,0,0,1,1.18,1.47,1.39,1.39,0,0,1-1.66,1.28l-18.64-3.62a1.4,1.4,0,0,0-1.64,1.1h0a1.4,1.4,0,0,0,1.11,1.64l14.18,2.76a1.43,1.43,0,0,1,1.18,1.47,1.39,1.39,0,0,1-1.66,1.28l-10.55-2a1.44,1.44,0,0,0-1.64.93,1.39,1.39,0,0,0,1.06,1.81l16.14,3.13a1.4,1.4,0,0,1,1.11,1.64h0a1.41,1.41,0,0,1-1.64,1.11L452,662.62a1.44,1.44,0,0,0-1.64.93,1.38,1.38,0,0,0,1.06,1.8l14.18,2.76a1.44,1.44,0,0,1,1.18,1.48,1.4,1.4,0,0,1-1.67,1.27l-6.57-1.27a1.39,1.39,0,0,0-1.64,1.1h0a1.4,1.4,0,0,0,1.11,1.64l12.26,2.38a1.44,1.44,0,0,1,1.18,1.48,1.4,1.4,0,0,1-1.66,1.28l-18-3.5a1.42,1.42,0,0,0-1.64.92,1.39,1.39,0,0,0,1.06,1.81L473.12,681a1.4,1.4,0,0,1,1.1,1.64h0a1.41,1.41,0,0,1-1.64,1.11l-16.09-3.13a1.44,1.44,0,0,0-1.65.93,1.4,1.4,0,0,0,1.06,1.8l6.53,1.27a1.44,1.44,0,0,1,1.18,1.48,1.39,1.39,0,0,1-1.66,1.27l-19.44-3.77-10.8-2.1a1.39,1.39,0,0,1-1.1-1.64l7.46-38.41A1.4,1.4,0,0,1,439.71,640.3Z"/></g></g><g class="cls-62"><g class="cls-77"><path class="cls-64" d="M426.51,136.49l9.73-1.32,19.24-2.61c.68-.1,1.28.14,1.33.53h0c.05.39-.46.78-1.14.87L448,135c-.68.09-1.19.48-1.14.87s.65.62,1.33.53l13.51-1.83c.69-.1,1.28.14,1.34.53s-.46.78-1.14.87l-16.8,2.28c-.68.09-1.19.48-1.14.87h0c0,.39.65.62,1.33.53l12.83-1.74c.68-.09,1.28.15,1.33.53s-.46.78-1.14.87l-9.55,1.3c-.68.09-1.19.48-1.14.87s.65.62,1.33.53l14.55-2c.68-.1,1.28.14,1.33.53h0c.06.39-.45.78-1.14.87l-21.45,2.91c-.68.09-1.19.48-1.14.87s.65.63,1.33.54L455.28,144c.68-.09,1.28.15,1.33.54s-.46.77-1.14.87l-5.93.8c-.68.09-1.19.48-1.14.87h0c.05.39.65.63,1.33.53l11.1-1.5c.69-.1,1.28.14,1.34.53s-.46.78-1.15.87l-16.27,2.21c-.68.09-1.19.48-1.14.87s.65.63,1.33.53l19.72-2.68c.69-.09,1.28.15,1.34.54h0c.05.39-.46.77-1.14.87l-14.56,2c-.68.1-1.19.48-1.14.87s.65.63,1.33.54l5.93-.81c.68-.09,1.28.15,1.33.54s-.46.77-1.14.86l-17.51,2.38-9.74,1.32c-.68.1-1.27-.14-1.33-.53l-2.66-19.64C425.31,137,425.82,136.58,426.51,136.49Z"/></g><g class="cls-78"><path class="cls-64" d="M429.78,136.05,420,137.37,400.8,140c-.68.09-1.2.38-1.17.64h0c0,.27.62.41,1.3.31l7.66-1c.68-.09,1.26.05,1.3.31s-.49.56-1.18.65l-13.51,1.83c-.68.1-1.21.39-1.17.65s.62.4,1.3.31l16.79-2.28c.68-.09,1.27,0,1.3.31h0c0,.26-.49.55-1.17.64l-12.82,1.74c-.69.1-1.21.39-1.18.65s.62.4,1.31.31l9.54-1.3c.69-.09,1.27,0,1.3.31s-.48.55-1.17.65l-14.55,2c-.68.1-1.2.38-1.17.65h0c0,.26.62.4,1.3.31l21.45-2.92c.69-.09,1.27,0,1.3.31s-.48.56-1.17.65l-12.82,1.74c-.69.09-1.21.38-1.17.65s.61.4,1.3.31l5.92-.81c.68-.09,1.27.05,1.3.31h0c0,.26-.49.55-1.17.65l-11.1,1.5c-.68.1-1.21.38-1.17.65s.62.4,1.3.31l16.28-2.21c.68-.1,1.26,0,1.3.31s-.49.55-1.17.64l-19.73,2.68c-.68.09-1.21.38-1.17.64h0c0,.27.62.41,1.3.31l14.55-2c.68-.09,1.27,0,1.3.31s-.49.55-1.17.64l-5.93.81c-.68.09-1.2.38-1.17.64s.62.4,1.3.31L422,151.68l9.73-1.32c.68-.09,1.21-.38,1.17-.64l-1.81-13.37C431,136.09,430.46,136,429.78,136.05Z"/></g><circle class="cls-66" cx="428.76" cy="141.01" r="23.5"/><circle class="cls-67" cx="429.07" cy="141.02" r="18.76"/><g class="cls-79"><path class="cls-69" d="M451.54,119l-9.74,1.32L422.56,123a1.25,1.25,0,0,0-1.07,1.4h0a1.25,1.25,0,0,0,1.41,1.07l7.47-1a1.46,1.46,0,0,1,1.25.4c.84.85,0,2-.91,2.07l-13.29,1.81a1.26,1.26,0,0,0-1.13,1.25,1.25,1.25,0,0,0,1.42,1.22l16.79-2.28a1.25,1.25,0,0,1,1.4,1.07h0a1.24,1.24,0,0,1-1.07,1.41l-12.77,1.73a1.28,1.28,0,0,0-1.13,1.26,1.24,1.24,0,0,0,1.41,1.22l9.51-1.29a1.28,1.28,0,0,1,1.42.91,1.26,1.26,0,0,1-1,1.56l-14.55,2a1.25,1.25,0,0,0-1.07,1.41h0a1.23,1.23,0,0,0,1.4,1.06l21.41-2.9a1.27,1.27,0,0,1,1.42.91,1.24,1.24,0,0,1-1,1.55L427,142.51a1.29,1.29,0,0,0-1.13,1.25,1.25,1.25,0,0,0,1.42,1.23l5.93-.81a1.25,1.25,0,0,1,1.4,1.07h0a1.26,1.26,0,0,1-1.07,1.41l-11.05,1.5a1.27,1.27,0,0,0-1.13,1.25,1.25,1.25,0,0,0,1.42,1.23L439,148.43a1.29,1.29,0,0,1,1.43.91,1.26,1.26,0,0,1-1,1.56l-19.73,2.68a1.25,1.25,0,0,0-1.07,1.4h0a1.26,1.26,0,0,0,1.41,1.07l14.5-2A1.27,1.27,0,0,1,436,155a1.24,1.24,0,0,1-1,1.56l-5.88.79a1.28,1.28,0,0,0-1.12,1.26,1.24,1.24,0,0,0,1.41,1.22l17.52-2.37,9.73-1.33a1.25,1.25,0,0,0,1.07-1.4l-4.7-34.61A1.23,1.23,0,0,0,451.54,119Z"/></g></g><circle class="cls-80" cx="299.5" cy="160.5" r="396.5"/><circle class="cls-81" cx="295.5" cy="153.5" r="346.5"/></g></g></svg>
