<svg xmlns="http://www.w3.org/2000/svg" xmlns:xlink="http://www.w3.org/1999/xlink" width="160" height="150" viewBox="0 0 160 150"><defs><style>.cls-1{isolation:isolate;}.cls-2{opacity:0.51;mix-blend-mode:overlay;filter:url(#AI_GaussianBlur_7);}.cls-3{fill:url(#linear-gradient);}.cls-4{fill:url(#linear-gradient-2);}.cls-5{fill:#5b2354;}</style><filter id="AI_GaussianBlur_7" name="AI_GaussianBlur_7"><feGaussianBlur stdDeviation="7"/></filter><linearGradient id="linear-gradient" x1="0.92" y1="75.62" x2="151.07" y2="75.62" gradientUnits="userSpaceOnUse"><stop offset="0.48" stop-color="#fbb03b"/><stop offset="1" stop-color="#fcee21"/></linearGradient><linearGradient id="linear-gradient-2" x1="5.96" y1="75.62" x2="156.11" y2="75.62" xlink:href="#linear-gradient"/></defs><title>timer</title><g class="cls-1"><g id="Layer_1" data-name="Layer 1"><text/><g class="cls-2"><polygon class="cls-3" points="128.32 141.66 80.28 120.6 35.52 147.83 40.91 96.1 0.92 62.38 52.29 51.48 72.33 3.41 98.69 48.39 151.07 52.4 115.99 91.11 128.32 141.66"/></g><polygon class="cls-4" points="133.36 141.66 85.33 120.6 40.57 147.83 45.96 96.1 5.96 62.38 57.33 51.48 77.37 3.41 103.73 48.39 156.11 52.4 121.03 91.11 133.36 141.66"/><path class="cls-5" d="M53.15,92a5.66,5.66,0,0,1-1.72-4l-.67-8.91a5.69,5.69,0,0,1,1.12-4.21,5.63,5.63,0,0,1,4.06-1.77,5.58,5.58,0,0,1,4.28,1.14,5.7,5.7,0,0,1,1.73,4l.66,8.91A5.89,5.89,0,0,1,53.15,92Zm6.18-2.38a3.17,3.17,0,0,0,.53-2.24l-.66-8.91a3.22,3.22,0,0,0-.85-2.14,2.82,2.82,0,0,0-2.22-.6,2.77,2.77,0,0,0-2.09.93,3.11,3.11,0,0,0-.53,2.24l.66,8.9A3.18,3.18,0,0,0,55,89.89a3.43,3.43,0,0,0,4.3-.32Z"/><path class="cls-5" d="M68.38,90.81a5.63,5.63,0,0,1-1.73-4L66,77.92a5.64,5.64,0,0,1,1.12-4.21,5.54,5.54,0,0,1,4.06-1.77,5.58,5.58,0,0,1,4.28,1.14,5.65,5.65,0,0,1,1.72,4L77.84,86a5.64,5.64,0,0,1-1.13,4.21,5.53,5.53,0,0,1-4,1.77A5.54,5.54,0,0,1,68.38,90.81Zm6.18-2.37a3.17,3.17,0,0,0,.53-2.24l-.67-8.91a3.15,3.15,0,0,0-.85-2.14,3.45,3.45,0,0,0-4.31.32,3.17,3.17,0,0,0-.52,2.24l.66,8.91a3.17,3.17,0,0,0,.86,2.14,3.43,3.43,0,0,0,4.3-.32Z"/><path class="cls-5" d="M80.16,77.15l2.75-.21.2,2.75-2.75.21ZM81,88.38l2.74-.2L84,90.93l-2.75.2Z"/><path class="cls-5" d="M91.16,90.6l-1.3-.51a5,5,0,0,1-2.14-1.59,6.15,6.15,0,0,1-1.17-2.67l2.8-.21A2.94,2.94,0,0,0,90,87a2.41,2.41,0,0,0,1.1.72,4.11,4.11,0,0,0,1.53.15A3,3,0,0,0,94.67,87a2.75,2.75,0,0,0,.6-2.11l0-.59A3.33,3.33,0,0,0,94.34,82a2.58,2.58,0,0,0-2.08-.65l-1.39.1-.19-2.61,1.39-.1A2.29,2.29,0,0,0,93.79,78a2.72,2.72,0,0,0,.49-2l0-.61a2.39,2.39,0,0,0-.8-1.74,2.66,2.66,0,0,0-1.94-.49,2.89,2.89,0,0,0-1.24.35,2.53,2.53,0,0,0-.87.88,3.84,3.84,0,0,0-.46,1.41L86.14,76A7.16,7.16,0,0,1,87,73.15a4.94,4.94,0,0,1,1.77-1.88,5.48,5.48,0,0,1,2.58-.79,5.42,5.42,0,0,1,4,1A5,5,0,0,1,97,75.18l0,.32a4.24,4.24,0,0,1-.6,2.62,4.56,4.56,0,0,1-2.13,1.76,4,4,0,0,1,2.6,1.39A5.25,5.25,0,0,1,98,84.33l0,.32a6.1,6.1,0,0,1-.44,3,4.32,4.32,0,0,1-1.79,2,6.62,6.62,0,0,1-3,.86Z"/><path class="cls-5" d="M101.64,84.19l5.52-14.68L110,69.3l-5.37,14.51,9.61-.72.19,2.55-12.6.94Zm8-6.76,2.68-.2.86,11.54-2.69.2Z"/></g></g></svg>
