<svg xmlns="http://www.w3.org/2000/svg" xmlns:xlink="http://www.w3.org/1999/xlink" width="270" height="240" viewBox="0 0 270 240"><defs><style>.cls-1{isolation:isolate;}.cls-2,.cls-5{opacity:0.51;mix-blend-mode:overlay;}.cls-2{fill:url(#linear-gradient);}.cls-3{fill:url(#linear-gradient-2);}.cls-4{opacity:0.73;mix-blend-mode:screen;}.cls-5{fill:url(#linear-gradient-3);}.cls-6{fill:url(#linear-gradient-4);}.cls-7{fill:#5b2354;}</style><linearGradient id="linear-gradient" x1="-189.03" y1="162.35" x2="13.28" y2="162.35" gradientTransform="matrix(1.21, 0, 0, 1.17, 237.7, -71.79)" gradientUnits="userSpaceOnUse"><stop offset="0.48" stop-color="#fbb03b"/><stop offset="1" stop-color="#fcee21"/></linearGradient><linearGradient id="linear-gradient-2" x1="-182.24" y1="162.35" x2="20.07" y2="162.35" xlink:href="#linear-gradient"/><linearGradient id="linear-gradient-3" x1="50.88" y1="122.95" x2="215.85" y2="122.95" gradientTransform="matrix(1, 0, 0, 1, 0, 0)" xlink:href="#linear-gradient"/><linearGradient id="linear-gradient-4" x1="56.42" y1="122.95" x2="221.39" y2="122.95" gradientTransform="matrix(1, 0, 0, 1, 0, 0)" xlink:href="#linear-gradient"/></defs><title>try again</title><g class="cls-1"><g id="Layer_1" data-name="Layer 1"><polygon class="cls-2" points="216.01 222.64 137.76 189.58 64.67 232.71 73.65 151.05 8.55 97.98 92.35 80.58 125.21 4.65 168.02 75.55 253.43 81.69 196.09 142.91 216.01 222.64"/><polygon class="cls-3" points="224.24 222.62 145.98 189.56 72.9 232.69 81.87 151.03 16.77 97.96 100.58 80.56 133.43 4.63 176.25 75.53 261.65 81.68 204.31 142.89 224.24 222.62"/><image class="cls-4" width="256" height="244" transform="translate(7.95 0.63)" xlink:href="try%20again1.png"/><polygon class="cls-5" points="190.86 195.51 138.08 172.37 88.9 202.28 94.83 145.45 50.88 108.41 107.32 96.42 129.34 43.61 158.3 93.03 215.85 97.44 177.31 139.97 190.86 195.51"/><polygon class="cls-6" points="196.4 195.51 143.62 172.37 94.44 202.28 100.37 145.45 56.42 108.41 112.86 96.42 134.88 43.61 163.84 93.03 221.39 97.44 182.85 139.97 196.4 195.51"/><path class="cls-7" d="M94.8,127.15l10.65-1,.19,2-10.65,1Zm4.38.82,2.12-.2,1.34,13.71-2.12.21Z"/><path class="cls-7" d="M106.49,130.35l2.12-.2,1,10.67-2.12.2Zm5.42,1.52a2.54,2.54,0,0,0-1-.08,2.06,2.06,0,0,0-1.5.7,2,2,0,0,0-.41,1.57l-.42-2a4,4,0,0,1,1.14-1.61,3.09,3.09,0,0,1,1.69-.69,4,4,0,0,1,1.36.08,3,3,0,0,1,1.1.52l-1.2,2A1.89,1.89,0,0,0,111.91,131.87Z"/><path class="cls-7" d="M114.42,129.6l2.16-.21,4.22,9-1,2.39Zm9.54-.91-3.3,13.6a3.15,3.15,0,0,1-.54,1.21,2.37,2.37,0,0,1-.94.71,5.11,5.11,0,0,1-1.44.33l-.42,0-.2-2,.43,0a1.64,1.64,0,0,0,.91-.33,1.74,1.74,0,0,0,.53-.86l2.81-12.44Z"/><path class="cls-7" d="M135.93,131.49a2.25,2.25,0,0,0-.73-1.58,2.18,2.18,0,0,0-1.66-.43,4.44,4.44,0,0,0-1.24.32,3.53,3.53,0,0,0-1,.65l-1.65-.9a4,4,0,0,1,1.5-1.29,5.82,5.82,0,0,1,2.19-.62,5.3,5.3,0,0,1,2.34.25,3.29,3.29,0,0,1,1.59,1.22,4.32,4.32,0,0,1,.7,2.09l.67,6.86-2,.19Zm-5,6.63a3.07,3.07,0,0,1-1.23-2.39,3,3,0,0,1,.67-2.46,4.11,4.11,0,0,1,2.65-1.05l3.07-.29.31,1.67-3.2.31a1.81,1.81,0,0,0-1.21.48,1.66,1.66,0,0,0,.36,2.3,2.86,2.86,0,0,0,1.7.24,5,5,0,0,0,1.79-.43.84.84,0,0,0,.51-.86l.37,1.48a2.6,2.6,0,0,1-.62.77,3.21,3.21,0,0,1-.91.51,5.8,5.8,0,0,1-4.26-.28Z"/><path class="cls-7" d="M143.19,137.29a3.21,3.21,0,0,1-1.42-1.36,5.66,5.66,0,0,1-.67-2.3l-.23-2.36a5.88,5.88,0,0,1,.2-2.39,3.19,3.19,0,0,1,1.1-1.6,3.6,3.6,0,0,1,1.9-.7,3.27,3.27,0,0,1,1.8.33,3.79,3.79,0,0,1,1.42,1.26v2.2a2.4,2.4,0,0,0-.36-1.13,1.71,1.71,0,0,0-.79-.67,2.34,2.34,0,0,0-1.18-.14,2.06,2.06,0,0,0-1.56.8,2.64,2.64,0,0,0-.39,1.87l.22,2.33a2.61,2.61,0,0,0,.75,1.73,2.08,2.08,0,0,0,1.69.48,2.36,2.36,0,0,0,1.12-.37,1.75,1.75,0,0,0,.65-.82,2.62,2.62,0,0,0,.13-1.21l.37,2.24a3.07,3.07,0,0,1-.93,1.42,2.92,2.92,0,0,1-1.74.71A3.85,3.85,0,0,1,143.19,137.29Zm1.45,4.57-1-.36a3.48,3.48,0,0,1-1.61-1.12l1.3-1.42a3.1,3.1,0,0,0,1.08.78,2.44,2.44,0,0,0,3.54-2.58l-1-10.66,2.12-.2,1,10.34a5.3,5.3,0,0,1-.3,2.57,3.65,3.65,0,0,1-1.42,1.75,5.33,5.33,0,0,1-2.45.78Z"/><path class="cls-7" d="M158.71,129.31a2.25,2.25,0,0,0-.73-1.57,2.18,2.18,0,0,0-1.66-.43,4.12,4.12,0,0,0-1.24.32,3.53,3.53,0,0,0-1,.65l-1.65-.9a4,4,0,0,1,1.5-1.29,5.82,5.82,0,0,1,2.19-.62,5.16,5.16,0,0,1,2.34.25,3.25,3.25,0,0,1,1.58,1.22,4.29,4.29,0,0,1,.71,2.09l.67,6.85-2,.2Zm-5,6.64a3.06,3.06,0,0,1-1.22-2.39,3,3,0,0,1,.67-2.46,4.09,4.09,0,0,1,2.65-1l3.06-.29.31,1.67-3.19.3a1.86,1.86,0,0,0-1.21.49,1.41,1.41,0,0,0-.3,1.15,1.37,1.37,0,0,0,.66,1.15,2.87,2.87,0,0,0,1.7.23,4.64,4.64,0,0,0,1.78-.43.83.83,0,0,0,.52-.85l.37,1.48a2.48,2.48,0,0,1-.63.77,3,3,0,0,1-.9.51,5.28,5.28,0,0,1-1.21.25A4.64,4.64,0,0,1,153.68,136Z"/><path class="cls-7" d="M163.14,120.64l2.12-.21.2,2.1-2.12.2Zm.42,4.27,2.11-.2,1.05,10.67-2.12.2Z"/><path class="cls-7" d="M168.89,124.4l2.12-.2,1,10.67-2.12.2Zm7,3.58a2.42,2.42,0,0,0-.76-1.69,2.59,2.59,0,0,0-3.27.24,2.07,2.07,0,0,0-.42,1.59l-.42-2a3.87,3.87,0,0,1,1.16-1.61,3.27,3.27,0,0,1,1.73-.7,3.39,3.39,0,0,1,2.83.88,4.88,4.88,0,0,1,1.27,3.12l.63,6.47-2.11.21Z"/><path class="cls-7" d="M180,119l2.12-.21,1.08,11.11-2.11.2Zm1.25,12.84,2.12-.2.21,2.09-2.12.21Z"/></g></g></svg>